<svg class="video-preview__hd-svg" width="26" height="20" fill="none" xmlns="http://www.w3.org/2000/svg"><path class="video-preview__hd-svg-path" d="M24.968 0H1.032C.462 0 0 .463 0 1.033v17.934C0 19.537.462 20 1.032 20h23.936c.57 0 1.032-.462 1.032-1.033V1.033C26 .463 25.538 0 24.968 0zM9.321 14.035l.895-3.136h-3.34l-.894 3.136h-2.05l2.303-8.07h2.05l-.948 3.32h3.34l.947-3.32h2.05l-2.303 8.07h-2.05zM21.886 10c-.681 2.386-2.926 4.035-5.517 4.035h-3.385l1.521-5.332h2.05L15.5 12.398h1.462c1.255 0 2.43-.969 2.835-2.386.408-1.43-.257-2.41-1.558-2.41h-3.421l.467-1.637h3.467c2.533 0 3.817 1.637 3.133 4.035z" fill="#2C2953"/></svg>