<svg width="9" height="8" fill="none" xmlns="http://www.w3.org/2000/svg"><path d="M8.28 2.554c-.046-.007-2.221 0-2.221 0l.304-.782c.21-.54.073-1.365-.508-1.659a1.049 1.049 0 0 0-.667-.092.48.48 0 0 0-.294.207C4.82.346 4.828.484 4.8.614a1.638 1.638 0 0 1-.489.883A114.03 114.03 0 0 1 2.473 3.1v4.356H7.28c.649 0 1.074-.683.754-1.217a.798.798 0 0 0 .288-1.09.798.798 0 0 0 .289-1.088c.658-.398.438-1.383-.331-1.506zM1.442 2.554H.288c-.158 0-.288.122-.288.273v4.9C0 7.879.13 8 .288 8h1.154c.16 0 .288-.122.288-.272V2.827c0-.15-.13-.273-.288-.273z" fill="#36BD20"/></svg>