<svg width="19" height="19" fill="none" xmlns="http://www.w3.org/2000/svg"><path d="M3.6 2.145H4.83c.569 0 1.03-.48 1.03-1.072C5.861.48 5.4 0 4.831 0H1.113l-.01.001a.995.995 0 0 0-.192.02C.881.028.851.04.821.05.788.06.753.07.72.083.685.098.653.118.62.136.595.151.567.163.541.181a1.017 1.017 0 0 0-.153.131L.385.315.38.322C.368.334.359.349.347.362.136.56 0 .842 0 1.16V5.03c0 .592.461 1.072 1.03 1.072.57 0 1.03-.48 1.03-1.072V3.575l3.476 3.618c.2.21.465.314.728.314.263 0 .527-.104.729-.314a1.104 1.104 0 0 0 0-1.517L3.6 2.145zM5.536 11.807L2.06 15.426V13.97c0-.592-.461-1.072-1.03-1.072S0 13.378 0 13.97v3.871c0 .319.136.601.347.797.058.068.122.13.195.181.024.018.05.03.076.044.034.019.066.04.101.055.034.014.069.022.103.033.03.01.059.021.09.028a.988.988 0 0 0 .201.021h3.718c.569 0 1.03-.48 1.03-1.072 0-.593-.461-1.073-1.03-1.073H3.6l3.393-3.532a1.103 1.103 0 0 0 0-1.516 1 1 0 0 0-1.456 0zM17.97 12.898c-.57 0-1.03.48-1.03 1.072v1.456l-3.476-3.62a1 1 0 0 0-1.457 0 1.103 1.103 0 0 0 0 1.517l3.393 3.532H14.17c-.57 0-1.03.48-1.03 1.073 0 .592.46 1.072 1.03 1.072h3.718a.986.986 0 0 0 .201-.021c.032-.007.061-.019.092-.029.034-.01.068-.018.1-.032.037-.016.071-.037.106-.058.024-.014.049-.024.072-.04.073-.051.137-.113.195-.182.211-.196.347-.479.347-.797v-3.87c0-.593-.461-1.073-1.03-1.073zM12.694 7.508c.264 0 .527-.104.728-.314l3.476-3.619v1.456c0 .592.461 1.072 1.03 1.072s1.03-.48 1.03-1.072V1.159c0-.318-.136-.601-.347-.797a1.046 1.046 0 0 0-.195-.181c-.024-.017-.05-.028-.074-.042-.034-.02-.067-.041-.104-.057-.033-.014-.067-.023-.101-.033-.03-.01-.06-.021-.09-.028A.98.98 0 0 0 17.844 0h-3.718c-.57 0-1.03.48-1.03 1.072 0 .593.46 1.073 1.03 1.073h1.231l-3.393 3.532a1.103 1.103 0 0 0 0 1.516c.202.21.465.315.729.315z" fill="#fff"/></svg>