<svg width="19" height="19" fill="none" xmlns="http://www.w3.org/2000/svg"><path d="M4.586 15.414a1 1 0 0 0-1-1H1a1 1 0 0 0-1 1V18a1 1 0 0 0 1 1h2.586a1 1 0 0 0 1-1v-2.586zM4.586 8.207a1 1 0 0 0-1-1H1a1 1 0 0 0-1 1v2.586a1 1 0 0 0 1 1h2.586a1 1 0 0 0 1-1V8.207zM4.586 1a1 1 0 0 0-1-1H1a1 1 0 0 0-1 1v2.586a1 1 0 0 0 1 1h2.586a1 1 0 0 0 1-1V1zM11.793 15.414a1 1 0 0 0-1-1H8.207a1 1 0 0 0-1 1V18a1 1 0 0 0 1 1h2.586a1 1 0 0 0 1-1v-2.586zM11.793 8.207a1 1 0 0 0-1-1H8.207a1 1 0 0 0-1 1v2.586a1 1 0 0 0 1 1h2.586a1 1 0 0 0 1-1V8.207zM11.793 1a1 1 0 0 0-1-1H8.207a1 1 0 0 0-1 1v2.586a1 1 0 0 0 1 1h2.586a1 1 0 0 0 1-1V1zM19 15.414a1 1 0 0 0-1-1h-2.586a1 1 0 0 0-1 1V18a1 1 0 0 0 1 1H18a1 1 0 0 0 1-1v-2.586zM19 8.207a1 1 0 0 0-1-1h-2.586a1 1 0 0 0-1 1v2.586a1 1 0 0 0 1 1H18a1 1 0 0 0 1-1V8.207zM19 1a1 1 0 0 0-1-1h-2.586a1 1 0 0 0-1 1v2.586a1 1 0 0 0 1 1H18a1 1 0 0 0 1-1V1z" fill="#fff"/></svg>