<svg width="24" height="19" fill="none" xmlns="http://www.w3.org/2000/svg"><path d="M12.007 16.955a1.085 1.085 0 0 1-1.09 1.086c-.25 0-.496-.085-.695-.25l-5.959-4.92H1.09c-.602 0-1.09-.486-1.09-1.086V7.458c0-.6.488-1.086 1.09-1.086h3.174l5.958-4.92a1.09 1.09 0 0 1 1.786.836v14.667zm4.189-1.697a1.09 1.09 0 0 1-.849-.315l-.146-.146a1.083 1.083 0 0 1-.105-1.415 6.254 6.254 0 0 0 1.247-3.76 6.232 6.232 0 0 0-1.415-3.979 1.082 1.082 0 0 1 .075-1.452l.146-.146c.217-.217.51-.335.825-.316.307.015.595.16.79.397a8.572 8.572 0 0 1 1.962 5.496c0 1.89-.6 3.69-1.735 5.203-.19.252-.48.41-.795.433zm4.506 3.357a1.092 1.092 0 0 1-1.604.067l-.143-.143a1.084 1.084 0 0 1-.064-1.467 11.54 11.54 0 0 0-.193-15.123 1.084 1.084 0 0 1 .045-1.486l.143-.143a1.091 1.091 0 0 1 1.587.045A13.899 13.899 0 0 1 24 9.622c0 3.287-1.17 6.481-3.298 8.993z" fill="#fff"/></svg>