<svg class="model-header__like-svg" width="19" height="17" fill="none" xmlns="http://www.w3.org/2000/svg"><path class="model-header__like-svg-path" d="M17.48 5.428c-.098-.016-4.69 0-4.69 0l.642-1.662c.442-1.149.156-2.902-1.072-3.525-.4-.203-.958-.305-1.408-.197a1.012 1.012 0 0 0-.62.441c-.156.25-.14.543-.196.82a3.488 3.488 0 0 1-1.032 1.877c-.946.876-3.882 3.403-3.882 3.403v9.258h10.147c1.37 0 2.267-1.452 1.591-2.588.805-.49 1.08-1.521.61-2.314.804-.49 1.08-1.522.608-2.314 1.39-.846.925-2.938-.698-3.199zM3.044 5.428H.61c-.335 0-.609.26-.609.579v10.415c0 .319.273.578.609.578h2.435c.336 0 .61-.26.61-.578V6.007c0-.32-.275-.579-.61-.579z" fill="#36BD20"/></svg>