<svg class="order-filter__svg" width="14" height="13" fill="none" xmlns="http://www.w3.org/2000/svg"><path class="order-filter__svg-path" d="M7.676.408l1.579 3.107c.11.216.322.366.568.4l3.53.498c.62.088.866.825.418 1.249L11.216 8.08a.72.72 0 0 0-.216.648l.603 3.414c.106.599-.541 1.054-1.094.772L7.35 11.302a.775.775 0 0 0-.702 0l-3.158 1.612c-.553.283-1.2-.173-1.094-.772L3 8.728a.719.719 0 0 0-.217-.648L.228 5.662c-.447-.424-.2-1.162.418-1.249l3.531-.498a.753.753 0 0 0 .568-.4L6.325.408c.275-.544 1.074-.544 1.35 0z" fill="#7481A2"/></svg>