<svg class="order-filter__svg" width="16" height="14" fill="none" xmlns="http://www.w3.org/2000/svg"><path class="order-filter__svg-path order-filter__svg-path--recent" d="M2.847 5.794a6.25 6.25 0 0 0-.043.24L1.764 5a.45.45 0 0 0-.633 0 .442.442 0 0 0 0 .629L3.369 7.85l-.522-2.057zm0 0l-.942-.936a.65.65 0 0 0-.915 0h0a.642.642 0 0 0 0 .913h0l2.238 2.222.141.14.14-.14 2.239-2.222h0a.642.642 0 0 0 0-.913h0a.65.65 0 0 0-.915 0s0 0 0 0 0 0 0 0l-.543.539A4.933 4.933 0 0 1 8.265 2.15h0a4.95 4.95 0 0 1 5.103 2.645 4.879 4.879 0 0 1-.882 5.646 4.967 4.967 0 0 1-5.67.986h0l-.004-.002A.646.646 0 1 0 6.28 12.6a6.275 6.275 0 0 0 6.817-.96 6.173 6.173 0 0 0 1.78-6.61l-.19.064.19-.064A6.235 6.235 0 0 0 9.448.818h0C6.28.578 3.456 2.735 2.847 5.794zm5.245 2.095v.1l.08.06 1.612 1.2s0 0 0 0a.65.65 0 0 0 .906-.128.642.642 0 0 0-.13-.903s0 0 0 0l-1.172-.874v-2.9A.646.646 0 0 0 8.74 3.8a.646.646 0 0 0-.648.645v3.444z" fill="#7481A3" stroke="#7481A3" stroke-width=".4"/></svg>