<svg width="28" height="20" fill="none" xmlns="http://www.w3.org/2000/svg"><path d="M28 0H0v20h28V0z" fill="#F0F0F0"/><path d="M15.75 0h-3.5v8.125H0v3.75h12.25V20h3.5v-8.125H28v-3.75H15.75V0z" fill="#D80027"/><path d="M21.535 13.478L28 17.326v-3.848h-6.465zM17.044 13.478L28 20v-1.845l-7.858-4.677h-3.098zM25.081 20l-8.037-4.785V20h8.037z" fill="#0052B4"/><path d="M17.044 13.478L28 20v-1.845l-7.858-4.677h-3.098z" fill="#F0F0F0"/><path d="M17.044 13.478L28 20v-1.845l-7.858-4.677h-3.098z" fill="#D80027"/><path d="M4.94 13.478L0 16.418v-2.94h4.94zM10.957 14.307V20H1.393l9.563-5.693z" fill="#0052B4"/><path d="M7.858 13.478L0 18.155V20l10.957-6.522H7.857z" fill="#D80027"/><path d="M6.465 6.522L0 2.673v3.849h6.465zM10.957 6.522L0 0v1.844l7.858 4.678h3.099zM2.918 0l8.039 4.785V0H2.918z" fill="#0052B4"/><path d="M10.957 6.522L0 0v1.844l7.858 4.678h3.099z" fill="#F0F0F0"/><path d="M10.957 6.522L0 0v1.844l7.858 4.678h3.099z" fill="#D80027"/><path d="M23.06 6.522L28 3.58v2.94h-4.94zM17.044 5.692V0h9.562l-9.563 5.692z" fill="#0052B4"/><path d="M20.142 6.522L28 1.844V0L17.044 6.522h3.098z" fill="#D80027"/></svg>