<svg width="20" height="20" fill="none" xmlns="http://www.w3.org/2000/svg"><path fill-rule="evenodd" clip-rule="evenodd" d="M2.313 0h4.593a2.315 2.315 0 0 1 2.313 2.313v4.593a2.315 2.315 0 0 1-2.313 2.313H2.313A2.315 2.315 0 0 1 0 6.906V2.313A2.315 2.315 0 0 1 2.313 0zm4.593 7.656c.414 0 .75-.336.75-.75V2.313a.751.751 0 0 0-.75-.75H2.313a.751.751 0 0 0-.75.75v4.593c0 .414.336.75.75.75h4.593zM13.125 0h4.531A2.346 2.346 0 0 1 20 2.344v4.531a2.346 2.346 0 0 1-2.344 2.344h-4.531a2.346 2.346 0 0 1-2.344-2.344V2.344A2.346 2.346 0 0 1 13.125 0zm4.531 7.656c.431 0 .782-.35.782-.781V2.344c0-.431-.351-.781-.782-.781h-4.531c-.43 0-.781.35-.781.78v4.532c0 .43.35.781.781.781h4.531zM6.906 10.781H2.313A2.316 2.316 0 0 0 0 13.094v4.593A2.315 2.315 0 0 0 2.313 20h4.593a2.315 2.315 0 0 0 2.313-2.313v-4.593a2.316 2.316 0 0 0-2.313-2.313zm.75 6.906c0 .414-.336.75-.75.75H2.313a.751.751 0 0 1-.75-.75v-4.593c0-.414.336-.75.75-.75h4.593c.414 0 .75.336.75.75v4.593zM13.125 10.781h4.531A2.346 2.346 0 0 1 20 13.125v4.531A2.346 2.346 0 0 1 17.656 20h-4.531a2.346 2.346 0 0 1-2.344-2.344v-4.531a2.347 2.347 0 0 1 2.344-2.344zm4.531 7.656c.431 0 .782-.35.782-.78v-4.532c0-.43-.351-.781-.782-.781h-4.531c-.43 0-.781.35-.781.781v4.531c0 .431.35.782.781.782h4.531z" fill="#fff"/></svg>