<svg width="20" height="20" fill="none" xmlns="http://www.w3.org/2000/svg"><mask id="a" fill="#fff"><path d="M19.414 5.02H.586A.586.586 0 0 0 0 5.608v13.807c0 .324.262.586.586.586h18.828a.586.586 0 0 0 .586-.586V5.607a.586.586 0 0 0-.586-.586zm-6.108 7.978L8.6 16.136a.586.586 0 0 1-.91-.487V9.372a.586.586 0 0 1 .91-.487l4.707 3.138a.586.586 0 0 1 0 .975zM17.531 2.51H2.47a.586.586 0 0 0 0 1.172H17.53a.586.586 0 0 0 0-1.172zM15.648 0H4.352a.586.586 0 0 0 0 1.172h11.296a.586.586 0 0 0 0-1.172z"/></mask><path d="M19.414 5.02H.586A.586.586 0 0 0 0 5.608v13.807c0 .324.262.586.586.586h18.828a.586.586 0 0 0 .586-.586V5.607a.586.586 0 0 0-.586-.586zm-6.108 7.978L8.6 16.136a.586.586 0 0 1-.91-.487V9.372a.586.586 0 0 1 .91-.487l4.707 3.138a.586.586 0 0 1 0 .975zM17.531 2.51H2.47a.586.586 0 0 0 0 1.172H17.53a.586.586 0 0 0 0-1.172zM15.648 0H4.352a.586.586 0 0 0 0 1.172h11.296a.586.586 0 0 0 0-1.172z" fill="#fff"/><path d="M13.306 12.998l-.554-.832.554.832zM8.6 16.136l.554.832-.554-.832zm-.601.03l-.472.88v.001l.472-.882zm0-7.31l-.472-.882.472.882zm.601.029l-.555.832.555-.832zm4.707 3.138l-.555.832.555-.832zm6.108-8.002H.586v2h18.828v-2zm-18.828 0C-.29 4.02-1 4.73-1 5.607h2a.414.414 0 0 1-.414.414v-2zM-1 5.607v13.807h2V5.607h-2zm0 13.807C-1 20.29-.29 21 .586 21v-2c.229 0 .414.185.414.414h-2zM.586 21h18.828v-2H.586v2zm18.828 0C20.29 21 21 20.29 21 19.414h-2c0-.229.185-.414.414-.414v2zM21 19.414V5.607h-2v13.807h2zm0-13.807c0-.876-.71-1.586-1.586-1.586v2A.414.414 0 0 1 19 5.607h2zm-8.249 6.559l-4.707 3.138 1.11 1.664 4.707-3.138-1.11-1.664zm-4.706 3.138a.413.413 0 0 1 .23-.07v2c.307 0 .613-.09.878-.266l-1.108-1.664zm.23-.07c.066 0 .133.017.194.05l-.943 1.763c.234.125.492.187.748.187v-2zm.195.05a.414.414 0 0 1 .218.364h-2c0 .585.322 1.123.838 1.399l.944-1.764zm.218.364V9.373h-2v6.277h2zm0-6.276a.414.414 0 0 1-.219.366l-.943-1.764a1.586 1.586 0 0 0-.838 1.398h2zm-.219.366a.414.414 0 0 1-.425-.021l1.11-1.664a1.586 1.586 0 0 0-1.628-.079l.943 1.764zm-.425-.021l4.707 3.138 1.11-1.664-4.707-3.138-1.11 1.664zm4.708 3.138a.414.414 0 0 1-.185-.345h2c0-.53-.265-1.025-.706-1.32l-1.11 1.665zm-.185-.345c0-.138.07-.267.185-.344l1.109 1.664c.441-.294.706-.79.706-1.32h-2zm4.964-11H2.47v2H17.53v-2zm-15.062 0c-.876 0-1.586.71-1.586 1.586h2a.414.414 0 0 1-.414.414v-2zM.883 3.096c0 .876.71 1.586 1.586 1.586v-2c.228 0 .414.186.414.414h-2zm1.586 1.586H17.53v-2H2.47v2zm15.062 0c.876 0 1.586-.71 1.586-1.586h-2c0-.228.186-.414.414-.414v2zm1.586-1.586c0-.875-.71-1.586-1.586-1.586v2a.414.414 0 0 1-.414-.414h2zM15.648-1H4.352v2h11.296v-2zM4.352-1C3.476-1 2.766-.29 2.766.586h2A.414.414 0 0 1 4.352 1v-2zM2.766.586c0 .876.71 1.586 1.586 1.586v-2c.228 0 .414.185.414.414h-2zm1.586 1.586h11.296v-2H4.352v2zm11.296 0c.876 0 1.586-.71 1.586-1.586h-2c0-.229.186-.414.414-.414v2zM17.234.586c0-.876-.71-1.586-1.586-1.586v2a.414.414 0 0 1-.414-.414h2z" fill="#000" mask="url(#a)"/><path d="M13.306 12.998l-.554-.832.554.832zM8.6 16.136l.554.832-.554-.832zm-.601.03l-.472.88v.001l.472-.882zm0-7.31l-.472-.882.472.882zm.601.029l-.555.832.555-.832zm4.707 3.138l-.555.832.555-.832zm6.108-8.002H.586v2h18.828v-2zm-18.828 0C-.29 4.02-1 4.73-1 5.607h2a.414.414 0 0 1-.414.414v-2zM-1 5.607v13.807h2V5.607h-2zm0 13.807C-1 20.29-.29 21 .586 21v-2c.229 0 .414.185.414.414h-2zM.586 21h18.828v-2H.586v2zm18.828 0C20.29 21 21 20.29 21 19.414h-2c0-.229.185-.414.414-.414v2zM21 19.414V5.607h-2v13.807h2zm0-13.807c0-.876-.71-1.586-1.586-1.586v2A.414.414 0 0 1 19 5.607h2zm-8.249 6.559l-4.707 3.138 1.11 1.664 4.707-3.138-1.11-1.664zm-4.706 3.138a.413.413 0 0 1 .23-.07v2c.307 0 .613-.09.878-.266l-1.108-1.664zm.23-.07c.066 0 .133.017.194.05l-.943 1.763c.234.125.492.187.748.187v-2zm.195.05a.414.414 0 0 1 .218.364h-2c0 .585.322 1.123.838 1.399l.944-1.764zm.218.364V9.373h-2v6.277h2zm0-6.276a.414.414 0 0 1-.219.366l-.943-1.764a1.586 1.586 0 0 0-.838 1.398h2zm-.219.366a.414.414 0 0 1-.425-.021l1.11-1.664a1.586 1.586 0 0 0-1.628-.079l.943 1.764zm-.425-.021l4.707 3.138 1.11-1.664-4.707-3.138-1.11 1.664zm4.708 3.138a.414.414 0 0 1-.185-.345h2c0-.53-.265-1.025-.706-1.32l-1.11 1.665zm-.185-.345c0-.138.07-.267.185-.344l1.109 1.664c.441-.294.706-.79.706-1.32h-2zm4.964-11H2.47v2H17.53v-2zm-15.062 0c-.876 0-1.586.71-1.586 1.586h2a.414.414 0 0 1-.414.414v-2zM.883 3.096c0 .876.71 1.586 1.586 1.586v-2c.228 0 .414.186.414.414h-2zm1.586 1.586H17.53v-2H2.47v2zm15.062 0c.876 0 1.586-.71 1.586-1.586h-2c0-.228.186-.414.414-.414v2zm1.586-1.586c0-.875-.71-1.586-1.586-1.586v2a.414.414 0 0 1-.414-.414h2zM15.648-1H4.352v2h11.296v-2zM4.352-1C3.476-1 2.766-.29 2.766.586h2A.414.414 0 0 1 4.352 1v-2zM2.766.586c0 .876.71 1.586 1.586 1.586v-2c.228 0 .414.185.414.414h-2zm1.586 1.586h11.296v-2H4.352v2zm11.296 0c.876 0 1.586-.71 1.586-1.586h-2c0-.229.186-.414.414-.414v2zM17.234.586c0-.876-.71-1.586-1.586-1.586v2a.414.414 0 0 1-.414-.414h2z" fill="url(#paint0_linear)" mask="url(#a)"/><defs><linearGradient id="paint0_linear" x1="10" y1="0" x2="10" y2="20" gradientUnits="userSpaceOnUse"><stop stop-color="#fff"/><stop offset="1" stop-color="#fff" stop-opacity="0"/></linearGradient></defs></svg>