<svg width="16" height="16" fill="none" xmlns="http://www.w3.org/2000/svg"><path fill-rule="evenodd" clip-rule="evenodd" d="M15.95 7.112c-.025-.225-.288-.394-.514-.394-.733 0-1.384-.43-1.657-1.096a1.782 1.782 0 0 1 .447-1.979.444.444 0 0 0 .05-.603 7.913 7.913 0 0 0-1.268-1.28.445.445 0 0 0-.608.05c-.477.527-1.334.724-1.996.447A1.777 1.777 0 0 1 9.324.521.444.444 0 0 0 8.93.053a7.987 7.987 0 0 0-1.8-.004.445.445 0 0 0-.396.457A1.78 1.78 0 0 1 5.64 2.213c-.654.267-1.505.073-1.98-.45a.446.446 0 0 0-.604-.052c-.48.377-.916.807-1.295 1.28a.445.445 0 0 0 .048.608c.557.504.737 1.306.447 1.996-.276.658-.959 1.082-1.74 1.082a.435.435 0 0 0-.462.392A8.014 8.014 0 0 0 .05 8.89c.025.225.295.393.525.393a1.754 1.754 0 0 1 1.646 1.096c.28.682.1 1.477-.448 1.979a.445.445 0 0 0-.048.602c.372.474.798.905 1.265 1.28.184.148.45.128.61-.048.478-.529 1.334-.725 1.994-.448.69.289 1.125.987 1.082 1.736a.444.444 0 0 0 .393.468 7.943 7.943 0 0 0 1.8.004.445.445 0 0 0 .396-.458 1.778 1.778 0 0 1 1.094-1.706c.659-.269 1.506-.072 1.982.451.158.172.42.193.603.05a7.965 7.965 0 0 0 1.295-1.28.444.444 0 0 0-.048-.607 1.773 1.773 0 0 1-.448-1.996 1.79 1.79 0 0 1 1.636-1.084l.1.002c.229.019.44-.158.467-.392a8.01 8.01 0 0 0 .004-1.82zm-7.937 3.573a2.671 2.671 0 0 1-2.669-2.668 2.671 2.671 0 0 1 2.669-2.669 2.671 2.671 0 0 1 2.668 2.669 2.671 2.671 0 0 1-2.668 2.668z" fill="#7481A2"/></svg>