<svg class="content-type__svg" width="14" height="13" fill="none" xmlns="http://www.w3.org/2000/svg"><path class="content-type__svg-path" d="M1.611 1.3H3.5L4.9 0h4.2l1.4 1.3h1.889c.723 0 1.328.539 1.394 1.243.145 1.535.217 3.071.217 4.607 0 1.532-.072 2.998-.216 4.397a1.385 1.385 0 0 1-1.28 1.227 73.48 73.48 0 0 1-10.996.039 1.386 1.386 0 0 1-1.29-1.23A43.754 43.754 0 0 1 0 7.15c0-1.536.072-3.072.217-4.607A1.388 1.388 0 0 1 1.611 1.3zM7 10.263c1.546 0 2.8-1.225 2.8-2.737 0-1.511-1.254-2.737-2.8-2.737-1.546 0-2.8 1.226-2.8 2.737 0 1.512 1.254 2.737 2.8 2.737zm2.8-6.158h1.4c.387 0 .7-.306.7-.684a.692.692 0 0 0-.7-.684H9.8c-.387 0-.7.306-.7.684 0 .378.313.684.7.684z" fill="#7481A2"/></svg>