<svg class="content-type__svg" width="16" height="13" fill="none" xmlns="http://www.w3.org/2000/svg"><path class="content-type__svg-path" d="M11.904 3.051l3.037-1.057a.797.797 0 0 1 1.016.505.825.825 0 0 1 .043.263v7.475a.806.806 0 0 1-.8.812.789.789 0 0 1-.26-.044l-3.028-1.054c-.028.467-.062.93-.101 1.386a1.613 1.613 0 0 1-1.453 1.476c-1.446.13-2.897.192-4.355.187a47.574 47.574 0 0 1-4.4-.223 1.614 1.614 0 0 1-1.445-1.503C.053 9.764 0 8.173 0 6.5c0-1.677.053-3.29.159-4.838A1.613 1.613 0 0 1 1.634.154 54.028 54.028 0 0 1 6.004 0c1.51.006 2.958.07 4.343.19a1.613 1.613 0 0 1 1.459 1.481c.038.454.07.914.098 1.38zM2.4 3.25h2.402c.442 0 .8-.364.8-.813a.806.806 0 0 0-.8-.812H2.4c-.442 0-.8.364-.8.812 0 .449.358.813.8.813z" fill="#7481A2"/></svg>