<svg width="133" height="30" fill="none" xmlns="http://www.w3.org/2000/svg"><path d="M18.355 5.642h-6.402V23H6.812V5.642H.527v-3.97h17.828v3.97zm10.43 15.644c-1.046 1.338-2.457 2.007-4.234 2.007-1.738 0-3.057-.503-3.955-1.509-.889-1.015-1.333-2.47-1.333-4.365V7.15h4.936v10.298c0 1.358.66 2.036 1.978 2.036 1.133 0 1.938-.405 2.417-1.215V7.15h4.966V23h-4.63l-.146-1.714zm22.206-6.079c0 2.598-.537 4.595-1.611 5.991-1.074 1.397-2.588 2.095-4.541 2.095-1.611 0-2.91-.64-3.897-1.919L40.737 23h-4.424V.5h4.937v7.925c.918-1.045 2.105-1.568 3.56-1.568 1.972 0 3.496.708 4.57 2.124 1.074 1.417 1.611 3.409 1.611 5.977v.249zm-4.951-.308c0-1.523-.205-2.607-.615-3.251-.4-.655-1.02-.982-1.86-.982-1.114 0-1.885.425-2.315 1.274v6.3c.42.84 1.201 1.259 2.344 1.259 1.162 0 1.9-.566 2.212-1.7.156-.556.234-1.523.234-2.9zm14.81 8.394c-2.432 0-4.4-.723-5.904-2.168-1.504-1.455-2.256-3.345-2.256-5.669v-.41c0-1.621.298-3.052.894-4.292.605-1.24 1.484-2.197 2.637-2.871 1.152-.684 2.52-1.026 4.101-1.026 2.227 0 3.985.694 5.274 2.08 1.289 1.378 1.933 3.301 1.933 5.772v1.919h-9.814c.176.889.561 1.587 1.157 2.095.596.508 1.367.761 2.315.761 1.562 0 2.783-.547 3.662-1.64l2.255 2.666c-.615.85-1.489 1.528-2.622 2.036-1.123.498-2.334.747-3.632.747zm-.557-12.627c-1.445 0-2.305.957-2.578 2.871h4.98v-.38c.02-.792-.18-1.402-.6-1.832-.42-.44-1.02-.659-1.802-.659zm12.363 10.81h10.532V23H70.84V1.672h1.816v19.805zm12.627-6.635c0-1.524.293-2.896.88-4.116.595-1.221 1.43-2.168 2.504-2.842 1.084-.684 2.31-1.026 3.677-1.026 2.11 0 3.818.743 5.127 2.227 1.308 1.475 1.963 3.433 1.963 5.874v.366c0 1.533-.298 2.915-.894 4.146-.586 1.22-1.416 2.163-2.49 2.827-1.074.664-2.3.996-3.677.996-2.1 0-3.809-.737-5.127-2.212-1.308-1.484-1.963-3.447-1.963-5.889v-.351zm1.758.483c0 1.895.488 3.452 1.465 4.673.986 1.211 2.275 1.817 3.867 1.817 1.582 0 2.861-.606 3.838-1.817.986-1.22 1.48-2.827 1.48-4.82v-.336c0-1.211-.225-2.32-.674-3.325-.45-1.006-1.08-1.783-1.89-2.33-.81-.556-1.738-.834-2.783-.834-1.563 0-2.837.615-3.823 1.845-.987 1.221-1.48 2.823-1.48 4.805v.322zm15.322-.395c0-2.48.547-4.444 1.641-5.889 1.103-1.455 2.598-2.183 4.482-2.183 2.159 0 3.799.86 4.922 2.579l.088-2.286h1.641v15.528c0 2.04-.572 3.657-1.714 4.848-1.143 1.192-2.691 1.788-4.644 1.788a7.043 7.043 0 0 1-3.164-.748c-.996-.488-1.782-1.142-2.358-1.962l.981-1.055c1.241 1.523 2.715 2.285 4.424 2.285 1.465 0 2.608-.435 3.428-1.304.82-.86 1.245-2.055 1.274-3.589V20.95c-1.123 1.563-2.759 2.344-4.907 2.344-1.836 0-3.311-.732-4.424-2.197-1.113-1.465-1.67-3.443-1.67-5.933v-.234zm1.773.307c0 2.022.405 3.619 1.216 4.79.81 1.163 1.953 1.744 3.427 1.744 2.159 0 3.687-.967 4.585-2.9V11.5c-.41-1.016-1.001-1.787-1.772-2.314-.772-.538-1.699-.806-2.783-.806-1.475 0-2.622.58-3.443 1.743-.82 1.152-1.23 2.856-1.23 5.112zm14.604-.395c0-1.524.293-2.896.879-4.116.596-1.221 1.431-2.168 2.505-2.842 1.084-.684 2.31-1.026 3.677-1.026 2.109 0 3.818.743 5.127 2.227 1.308 1.475 1.963 3.433 1.963 5.874v.366c0 1.533-.298 2.915-.894 4.146-.586 1.22-1.416 2.163-2.49 2.827-1.074.664-2.3.996-3.677.996-2.1 0-3.809-.737-5.127-2.212-1.308-1.484-1.963-3.447-1.963-5.889v-.351zm1.758.483c0 1.895.488 3.452 1.465 4.673.986 1.211 2.275 1.817 3.867 1.817 1.582 0 2.861-.606 3.838-1.817.986-1.22 1.479-2.827 1.479-4.82v-.336c0-1.211-.224-2.32-.673-3.325-.45-1.006-1.079-1.783-1.89-2.33-.811-.556-1.738-.834-2.783-.834-1.563 0-2.837.615-3.823 1.845-.987 1.221-1.48 2.823-1.48 4.805v.322z" fill="#fff"/></svg>