<svg width="22" height="27" fill="none" xmlns="http://www.w3.org/2000/svg"><mask id="a" fill="#fff"><path d="M11 26.846c1.52 0 2.75-1.19 2.75-2.658h-5.5c0 1.469 1.23 2.658 2.75 2.658zM19.25 18.872v-6.646c0-4.087-2.248-7.497-6.188-8.4v-.904c0-1.104-.92-1.994-2.062-1.994-1.141 0-2.062.89-2.062 1.994v.903c-3.94.904-6.188 4.314-6.188 8.4v6.647L0 21.53v1.329h22v-1.33l-2.75-2.657z"/></mask><path d="M13.75 24.188h1.5a1.5 1.5 0 0 0-1.5-1.5v1.5zm-5.5 0v-1.5a1.5 1.5 0 0 0-1.5 1.5h1.5zm11-5.316h-1.5c0 .406.165.795.457 1.078l1.043-1.078zM13.062 3.825h-1.5a1.5 1.5 0 0 0 1.165 1.462l.335-1.462zm-4.124 0l.335 1.462a1.5 1.5 0 0 0 1.165-1.462h-1.5zM2.75 18.872l1.043 1.078a1.5 1.5 0 0 0 .457-1.078h-1.5zM0 21.53l-1.043-1.079A1.5 1.5 0 0 0-1.5 21.53H0zm0 1.329h-1.5a1.5 1.5 0 0 0 1.5 1.5v-1.5zm22 0v1.5a1.5 1.5 0 0 0 1.5-1.5H22zm0-1.33h1.5a1.5 1.5 0 0 0-.457-1.078L22 21.53zm-11 6.817c2.3 0 4.25-1.813 4.25-4.158h-3c0 .593-.51 1.158-1.25 1.158v3zm2.75-5.658h-5.5v3h5.5v-3zm-7 1.5c0 2.345 1.95 4.158 4.25 4.158v-3c-.74 0-1.25-.565-1.25-1.158h-3zm14-5.316v-6.646h-3v6.646h3zm0-6.646c0-4.648-2.605-8.773-7.352-9.863l-.67 2.924c3.13.719 5.022 3.412 5.022 6.939h3zm-6.188-8.4v-.904h-3v.903h3zm0-.904c0-1.98-1.64-3.494-3.562-3.494v3c.361 0 .563.266.563.494h3zM11-.572c-1.921 0-3.562 1.514-3.562 3.494h3c0-.228.2-.494.562-.494v-3zM7.438 2.922v.903h3v-.903h-3zm1.164-.559C3.855 3.453 1.25 7.578 1.25 12.226h3c0-3.526 1.891-6.22 5.023-6.939l-.67-2.924zM1.25 12.226v6.646h3v-6.646h-3zm.458 5.567l-2.75 2.658 2.085 2.157 2.75-2.658-2.086-2.157zM-1.5 21.53v1.329h3v-1.33h-3zM0 24.359h22v-3H0v3zm23.5-1.5v-1.33h-3v1.33h3zm-.457-2.408l-2.75-2.658-2.085 2.157 2.75 2.658 2.085-2.157z" fill="#fff" mask="url(#a)"/></svg>