<svg width="19" height="23" fill="none" xmlns="http://www.w3.org/2000/svg"><path d="M12.478 12.862a3.805 3.805 0 0 1-.534.332c-.549.283-1.355.546-2.444.546s-1.895-.263-2.444-.546a3.804 3.804 0 0 1-.534-.332c-2.678.45-3.993 1.007-4.71 1.848-.748.876-.994 2.226-1.048 4.764h0a19.052 19.052 0 0 1-.013.433v.214c.026.027.058.058.097.092.196.177.558.446 1.175.726 1.237.561 3.498 1.17 7.477 1.17 3.98 0 6.24-.609 7.478-1.17.616-.28.978-.549 1.175-.726.038-.034.07-.065.097-.092v-.089l-.003-.067v-.001c-.002-.058-.005-.16-.008-.325m-5.76-6.777l6.502 6.371a.75.75 0 0 0-.647.404l-.095.002m-5.76-6.777c2.709.456 4.022 1.02 4.734 1.877.747.899.98 2.288 1.026 4.9m-5.76-6.777l5.858 6.775m-.098.002s0 0 0 0l.095-.002a.748.748 0 0 0-.03.072v-.002c.004-.008.014-.034.033-.07m0 0l.652-.012m-.652.012l.661.346s0 0 0 0a11.552 11.552 0 0 1-.009-.358m0 0l-.652.012.644-.397.008.386zM13.78 6.291c0 2.593-1.96 4.613-4.28 4.613-2.319 0-4.28-2.02-4.28-4.613 0-1.455.19-2.581.758-3.345.53-.712 1.515-1.268 3.522-1.268 2.008 0 2.993.556 3.522 1.268.567.764.758 1.89.758 3.345z" stroke="#fff" stroke-width="1.5" stroke-linejoin="round"/></svg>