<svg width="13" height="13" fill="none" xmlns="http://www.w3.org/2000/svg"><path d="M12 0H1a1 1 0 0 0-1 1v11a1 1 0 0 0 1 1h11a1 1 0 0 0 1-1V1a1 1 0 0 0-1-1z" fill="#fff"/><path d="M9.874 4.74l-.615-.614A.418.418 0 0 0 8.952 4a.418.418 0 0 0-.307.126L5.683 7.094 4.355 5.76a.418.418 0 0 0-.307-.126.418.418 0 0 0-.307.126l-.615.614A.418.418 0 0 0 3 6.683c0 .12.042.222.126.307l1.635 1.634.614.615a.418.418 0 0 0 .308.126c.12 0 .222-.042.307-.126l.614-.615 3.27-3.27A.418.418 0 0 0 10 5.049a.418.418 0 0 0-.126-.307z" fill="#2C2953"/></svg>