<svg class="player-info__dislike-svg" width="19" height="17" fill="none" xmlns="http://www.w3.org/2000/svg"><path class="player-info__dislike-svg-path" d="M17.48 11.572c-.098.016-4.69 0-4.69 0l.642 1.662c.442 1.149.156 2.902-1.072 3.525-.4.203-.958.305-1.408.197a1.012 1.012 0 0 1-.62-.441c-.156-.25-.14-.543-.196-.82a3.488 3.488 0 0 0-1.032-1.877c-.946-.876-3.882-3.403-3.882-3.403V1.157h10.147c1.37 0 2.267 1.452 1.591 2.587.805.49 1.08 1.522.61 2.315.804.49 1.08 1.522.608 2.314 1.39.846.925 2.938-.698 3.199zM3.044 11.572H.61c-.335 0-.609-.26-.609-.579V.58C0 .259.273 0 .609 0h2.435c.336 0 .61.26.61.579v10.414c0 .32-.275.579-.61.579z" fill="#7C7C7C"/></svg>