<svg width="17" height="16" fill="none" xmlns="http://www.w3.org/2000/svg"><path d="M15.883 11.15L10.63 2.044a2.65 2.65 0 0 0-4.59 0L.691 11.306a2.65 2.65 0 0 0 2.295 3.975H13.686a2.65 2.65 0 0 0 2.197-4.131zm-6.415.886c0 .627-.482 1.106-1.131 1.106-.65 0-1.132-.48-1.132-1.106v-.026c0-.623.482-1.106 1.132-1.106.65 0 1.131.48 1.131 1.106v.026zm.026-7.454l-.56 4.89c-.037.353-.271.572-.597.572-.327 0-.56-.222-.598-.572l-.56-4.893c-.038-.378.167-.664.52-.664h1.273c.352.003.56.289.522.667z" fill="#A55656"/></svg>