<svg width="17" height="16" fill="none" xmlns="http://www.w3.org/2000/svg"><path d="M16.721 5.598L12.15 1.027a.549.549 0 0 0-.402-.17.549.549 0 0 0-.401.17.55.55 0 0 0-.17.402v2.285h-2c-4.244 0-6.848 1.2-7.813 3.599C1.05 8.11.891 9.1.891 10.286c0 .988.378 2.33 1.134 4.027a22.054 22.054 0 0 0 .214.482c.036.077.075.142.116.196.072.101.155.152.25.152.09 0 .16-.03.21-.09a.333.333 0 0 0 .076-.223c0-.053-.007-.132-.022-.236a1.849 1.849 0 0 1-.023-.21c-.03-.405-.044-.77-.044-1.098a7.6 7.6 0 0 1 .156-1.616c.104-.476.248-.888.433-1.237.185-.348.423-.648.714-.901.292-.253.606-.46.942-.621.337-.16.732-.287 1.188-.38.455-.092.913-.156 1.375-.191.461-.036.983-.054 1.567-.054h2v2.286a.55.55 0 0 0 .17.402.55.55 0 0 0 .401.17.55.55 0 0 0 .402-.17l4.571-4.572a.549.549 0 0 0 .17-.402.55.55 0 0 0-.17-.402z" fill="#fff"/></svg>