<svg id="Слой_1" xmlns="http://www.w3.org/2000/svg" viewBox="0 0 189 39"><style>.kuren{fill:#671700}</style><path class="kuren" d="M4.3 2.7c.3.1.6.3.8.5.2.2.4.5.5.8.1.3.2.7.2 1 0 .4-.1.7-.2 1-.1.4-.2.7-.5.9-.2.2-.5.4-.8.5-.3.2-.6.2-1 .2s-.7-.1-1-.2c-.3-.1-.6-.3-.8-.5-.2-.2-.4-.5-.5-.8-.1-.3-.2-.6-.2-1 0-.6.1-1.2.2-1.8.2-.6.4-1.1.7-1.5.4-.5.8-.9 1.3-1.2.5-.3 1-.4 1.7-.4C6.2.2 7.3.6 8 1.5c0 0 .1.1.1.2.1.1.2.3.3.4.1.2.2.3.3.4l.2.2H9V.2h4.2v38.4H9v-20L4.8 22v16.6H.6V23.3l7.8-6.2v-1l-.4.2c-.2.1-.5.3-.8.5-.4.2-.8.3-1.2.5-.4.1-.8.2-1.2.2-.6 0-1.1-.1-1.7-.4-.5-.3-1-.6-1.3-1.1-.4-.4-.7-1-.9-1.5-.2-.6-.3-1.2-.3-1.7 0-.7.1-1.2.2-1.7.2-.4.4-.8.6-1.1s.6-.5 1-.7c.4-.2.9-.4 1.4-.6.4-.2.8-.4 1.3-.6.5-.2 1-.5 1.5-.8s.9-.6 1.2-.9c.3-.3.5-.6.5-.8V3.7c0-.3-.1-.5-.3-.8-.1-.4-.4-.6-.7-.9-.3-.3-.6-.5-.9-.7-.4-.1-.7-.2-1-.2h-.9c-.3 0-.6.1-.9.1-.2.1-.5.2-.7.4-.2.1-.2.3-.2.5 0 0 0 .1.1.1s.1.1.2.1.2.1.2.1h.1c.4.1.7.1 1 .3zm4 4.2c-.4.4-.8.8-1.3 1.1L5.8 9.2c-.3.4-.6.8-.7 1.4-.2.5-.3 1.1-.3 1.6 0 .4 0 .8.1 1.2.1.4.2.8.4 1.1.2.3.4.6.6.8.2.2.5.3.9.3 1.5 0 2.2-.6 2.2-1.8v-7h-.7zM27.4 6.4V1.1h-1.9v37.5h-4.4V1.1H19V11h-4.2V.2h17v6.2h-4.4zM36.9 2.7c.3.1.6.3.8.6.2.2.4.5.5.8.1.3.2.7.2 1 0 .4-.1.7-.2 1-.1.3-.3.6-.5.8-.2.2-.5.4-.8.5-.3.1-.7.2-1 .2-.4 0-.7-.1-1-.2-.3-.1-.6-.3-.8-.5-.2-.2-.4-.5-.5-.8-.1-.3-.2-.6-.2-1 0-.6.1-1.2.2-1.8.2-.6.4-1.1.7-1.5.3-.4.7-.8 1.2-1.1.5-.3 1-.4 1.7-.4 1.5 0 2.6.4 3.3 1.3 0 0 .1.1.1.2.1.1.2.3.3.4.1.2.2.3.3.4l.2.2h.1V.2h4.2v38.4h-4.2v-20L37.4 22v16.6h-4.2V23.3l7.8-6.2v-1l-.4.2c-.2.1-.5.3-.8.5-.3.2-.7.3-1.1.5-.4.1-.8.2-1.2.2-.6 0-1.1-.1-1.7-.4-.5-.3-1-.6-1.3-1.1-.4-.4-.7-1-.9-1.5-.2-.6-.3-1.2-.3-1.7 0-.7.1-1.2.2-1.7.1-.4.4-.8.6-1.1s.6-.5 1-.7c.4-.2.9-.4 1.4-.6.4-.2.8-.4 1.3-.6.5-.2 1-.5 1.5-.8s.9-.6 1.2-.9c.3-.3.5-.6.5-.9V3.7c0-.3-.1-.5-.3-.8-.2-.3-.4-.6-.7-.8-.3-.3-.6-.5-1-.7-.3-.2-.7-.3-.9-.3h-.9c-.3 0-.6.1-.9.1-.3.1-.5.2-.7.3-.2.1-.3.3-.3.6 0 0 0 .1.1.1s.1.1.2.1.2.1.2.1h.1c.4.1.7.1 1 .3zm4 4.2c-.4.4-.8.8-1.2 1.1l-1.2 1.2c-.4.4-.6.8-.8 1.4-.2.5-.3 1.1-.3 1.6 0 .4 0 .8.1 1.2.1.4.2.8.4 1.1.2.3.4.6.6.8.2.2.5.3.9.3 1.5 0 2.2-.6 2.2-1.8v-7h-.7zM51.6 2.7c.3.1.6.3.8.6.2.2.4.5.5.8.1.3.2.7.2 1 0 .4-.1.7-.2 1-.1.3-.3.6-.5.8-.2.2-.5.4-.8.5-.3.1-.7.2-1 .2-.4 0-.7-.1-1-.2-.3-.1-.6-.3-.8-.5-.2-.2-.4-.5-.5-.8-.1-.3-.2-.6-.2-1 0-.6.1-1.2.2-1.8.2-.6.4-1.1.7-1.5.3-.5.7-.8 1.2-1.1.5-.3 1-.4 1.7-.4.6 0 1.1 0 1.5.1.4.1.8.2 1.1.4s.6.5.8.8c.2.3.5.8.7 1.3V.2h4.4v22.7l2.9-7.4c.1-.2.1-.3.1-.5v-.4c0-.3-.1-.6-.2-1L61.9 12l.8-2.9 1.8 2V.1H69v38.4h-4.5v-23L62.2 22c-.4 1-.5 1.8-.5 2.5v.5c0 .1.1.3.1.4l1.1 1.4-.7 3.1-1.7-1.9v10.7h-4.4V18.9l-4 3.2v16.6h-4.2V23.3l7.8-6.2v-1l-.4.2c-.2.1-.5.3-.8.5-.3.2-.7.3-1.1.5-.4.1-.8.2-1.2.2-.6 0-1.1-.1-1.7-.4-.5-.3-1-.6-1.3-1.1-.4-.4-.7-1-.9-1.5s-.3-1.2-.3-1.7c0-.7.1-1.2.2-1.7.1-.4.4-.8.6-1.1.3-.3.6-.5 1-.7.4-.2.9-.4 1.4-.6.4-.2.8-.4 1.3-.6.5-.2 1-.5 1.5-.8.5-.3.9-.6 1.2-.9.3-.3.5-.6.5-.9V3.7c0-.3-.1-.5-.3-.8-.2-.3-.5-.6-.8-.8-.3-.3-.6-.5-1-.7-.3-.2-.7-.3-.9-.3h-.9c-.4 0-.6 0-.8.1-.3.1-.5.2-.7.3-.2.2-.3.4-.3.6 0 0 0 .1.1.1s.1.1.2.1.1.1.2.1h.1c.4.1.7.1 1 .3zm4 4.2c-.4.4-.8.8-1.2 1.1l-1.2 1.2c-.4.4-.6.8-.8 1.4-.2.5-.3 1.1-.3 1.6 0 .4 0 .8.1 1.2.1.4.2.8.4 1.1.2.3.4.6.6.8.2.2.5.3.9.3 1 0 1.6-.3 2-.9V6.9h-.5zM74.8 2.7c.3.1.6.3.8.6.2.2.4.5.5.8.1.3.2.7.2 1 0 .4-.1.7-.2 1-.1.3-.3.6-.5.8-.2.2-.5.4-.8.5-.3.1-.7.2-1 .2-.4 0-.7-.1-1-.2-.3-.1-.6-.3-.8-.5-.2-.2-.4-.5-.5-.8-.1-.3-.2-.6-.2-1 0-.6.1-1.2.2-1.8.2-.6.4-1.1.7-1.5.3-.4.7-.8 1.2-1.1.5-.3 1-.4 1.7-.4 1.5 0 2.6.4 3.3 1.3 0 0 .1.1.1.2.1.1.2.3.3.4.1.2.2.3.3.4l.2.2h.1V.2h4.2v38.4h-4.2v-20L75.3 22v16.6h-4.2V23.3l7.8-6.2v-1l-.4.2c-.2.1-.5.3-.8.5-.3.2-.7.3-1.1.5-.4.1-.8.2-1.2.2-.6 0-1.1-.1-1.7-.4-.5-.3-1-.6-1.3-1.1-.4-.4-.7-1-.9-1.5-.2-.6-.3-1.2-.3-1.7 0-.7.1-1.2.2-1.7.1-.4.4-.8.6-1.1s.6-.5 1-.7c.4-.2.9-.4 1.4-.6.4-.2.8-.4 1.3-.6.5-.2 1-.5 1.5-.8s.9-.6 1.2-.9c.3-.3.5-.6.5-.8V3.7c0-.3-.1-.5-.3-.8-.2-.3-.4-.6-.7-.8-.3-.3-.6-.5-1-.7-.3-.2-.7-.3-.9-.3h-.9c-.3 0-.6.1-.9.1-.3.1-.5.2-.7.3-.2.1-.3.3-.3.6 0 0 0 .1.1.1s.1.1.2.1.2.1.2.1h.1c.4.1.7.1 1 .3zm4 4.2c-.4.4-.8.8-1.3 1.1l-1.2 1.2c-.4.4-.6.8-.8 1.4-.2.5-.3 1.1-.3 1.6 0 .4 0 .8.1 1.2.1.4.2.8.4 1.1.2.3.4.6.6.8.2.2.5.3.9.3 1.5 0 2.2-.6 2.2-1.8v-7h-.6zM94.4 22.9V.2h4.4v38.4h-4.4V27.9l-1.7 1.9-.7-3 1.1-1.4c.1-.1.1-.2.1-.4v-.5c0-.7-.2-1.5-.5-2.5l-2.5-6.4v23h-4.5V.2h4.5v11l1.8-2 .8 2.9-1.3 1.6c-.2.2-.2.5-.2 1v.4c0 .1.1.3.1.5l3 7.3zM101 38.6V.2h4.3v15.4h.3c.8-1.3 2-2.4 3.9-3.4V.2h4.5v12c-.3 0-.8.1-1.3.2s-1 .4-1.6.6c-.5.3-1.1.6-1.6.9-.5.3-1 .7-1.4 1.1-.4.4-.8.8-1 1.2-.3.4-.4.8-.4 1.2 0 .5.1.9.4 1.3.3.4.6.8 1 1.1.4.3.9.7 1.4.9.5.3 1.1.5 1.6.7.5.2 1.1.3 1.6.4.5.1.9.2 1.3.2v16.5h-4.5V22.2c-1.6-.5-2.9-1.5-3.9-3h-.3v19.5H101zM128.8 4.5c-.3 0-.6.3-1 .8-.3.6-.6 1.3-.9 2.2-.3.9-.6 1.9-.8 3-.3 1.1-.5 2.2-.7 3.4-.2 1.1-.4 2.2-.6 3.2-.2 1-.3 1.9-.4 2.6-.3 1.8-.5 3.6-.6 5.3 1.8 0 3.1.9 4 2.6.7 1.4 1.1 3 1.1 5 0 .9-.2 1.8-.5 2.5-.4.7-.8 1.4-1.5 1.9-.6.5-1.3.9-2.2 1.2s-1.7.4-2.6.4c-.9 0-1.8-.2-2.6-.5s-1.5-.7-2.1-1.3c-.6-.5-1-1.2-1.4-1.9-.3-.7-.5-1.6-.5-2.5 0-2.3.7-4.1 2.2-5.6.7-.7 1.4-1.2 2.1-1.5.8-.3 1.6-.5 2.4-.5l1.4-7.9h-3.4L115.7 0h4.1l3.6 13.7h.5c.1-.6.1-1.1.2-1.6s.1-1 .2-1.6c.1-.6.2-1.1.2-1.7.1-.6.2-1.1.2-1.6.1-.5.1-.9.2-1.1.1-.7.3-1.4.5-2.1.2-.7.5-1.4.8-2 .3-.6.7-1.1 1.1-1.5.4-.4.9-.6 1.4-.6v4.6zM118.3 32c.2.6.6 1.1 1.1 1.5.8.6 1.8 1 3.2 1 .7 0 1.4-.1 1.9-.3.6-.2 1.1-.5 1.5-.9.4-.4.7-.9.9-1.4.2-.6.3-1.2.3-1.9 0-.5-.1-.9-.3-1.4-.2-.5-.5-.9-.8-1.3-.3-.4-.7-.7-1.1-.9-.4-.2-.9-.4-1.3-.4 0 .3-.1.6-.2 1s-.2.8-.3 1.3c-.1.5-.2.9-.4 1.4-.1.5-.3.9-.4 1.3-.1.4-.3.8-.4 1.1-.1.3-.3.5-.5.7l-1.3-2.8 1.6-1 .6-2.9c-.5 0-1.1.1-1.6.3-.5.2-1 .4-1.4.8-.4.3-.8.7-1 1.2-.3.5-.4 1-.4 1.6-.1.7 0 1.4.3 2zM140.4 18.6c.3.1.6.3.8.6s.4.5.6.8.2.7.2 1c0 .4-.1.7-.2 1s-.3.6-.5.8c-.2.2-.5.4-.8.5-.3.1-.7.2-1 .2-.5 0-.8-.1-1.2-.2-.3-.1-.7-.3-1-.5-.3-.2-.7-.5-1.1-.9s-.8-.8-1.4-1.3v18h-4V.2h13v13.5c-1.1.5-2.1.9-3.1 1.2s-1.8.7-2.5 1-1.3.7-1.7 1-.6.8-.6 1.3c0 .7.1 1.3.3 1.9.2.6.5 1 .9 1.3 0-.4.1-.8.2-1.1.1-.4.3-.7.5-1 .2-.3.5-.5.8-.7.3-.2.7-.2 1-.2.2 0 .5.1.8.2zm-1-17.5h-4.6V16l4.6-2.1V1.1zM154 3.9c0-.3-.1-.6-.2-.9-.1-.3-.3-.5-.5-.7s-.5-.3-.7-.5c-.3-.1-.6-.2-.9-.2-.3 0-.5.1-.8.2-.2.1-.5.3-.6.6s-.3.5-.4.8c-.1.3-.2.6-.2.9v10.1h4.4c1.8 0 3 .9 3.6 2.7.4 1.1.6 2.7.6 4.9H154v-4.4c0-.2-.1-.4-.2-.6-.1-.2-.3-.4-.6-.6-.2-.2-.5-.3-.7-.5-.3-.1-.5-.2-.7-.2-.2 0-.5.1-.8.2-.3.1-.5.2-.7.4-.2.2-.4.4-.5.6-.1.2-.2.5-.2.7v15.8c0 2.5.3 3.7.9 3.7.4 0 .8-.2 1.2-.5.3-.4.6-.8.9-1.4.3-.6.5-1.3.6-2.1.2-.8.3-1.6.4-2.4.1-.8.2-1.7.2-2.5s.1-1.6.1-2.3h4.2c0 3.9-.9 7.1-2.7 9.4-1.7 2.2-3.9 3.4-6.6 3.4-.5 0-1 0-1.4-.1s-.9-.2-1.3-.4-.7-.4-1-.7c-.3-.3-.4-.6-.4-1 0-.9.1-1.5.3-1.9.3-.5.8-.8 1.7-.8.1 0 .3.1.4.4s.3.5.4.8c.1.3.3.5.4.8s.3.4.5.4c-.2-.9-.4-2-.7-3.1-.2-1.1-.5-2.3-.7-3.5-.2-1.2-.4-2.4-.6-3.7s-.4-2.4-.5-3.6c-.2-1.1-.3-2.2-.4-3.2-.1-1-.1-1.9-.1-2.6 0-4.3.5-7.9 1.4-10.8 1.1-3.5 2.7-5.3 4.8-5.3 1.4 0 2.5.2 3.4.7.9.4 1.5 1.1 2 1.8.5.8.8 1.7.9 2.8s.2 2.3.2 3.6V13H154V3.9zM168.7 22.9V.2h4.4v38.4h-4.4V27.9l-1.7 1.9-.7-3.1 1.1-1.4c.1-.1.1-.2.1-.4v-.5c0-.7-.2-1.5-.5-2.5l-2.5-6.4v23H160V.2h4.5v11l1.8-2 .8 2.9-1.3 1.6c-.2.2-.2.5-.2 1v.4c0 .1.1.3.1.5l3 7.3zM183 20.2c-.3-.2-.6-.4-.8-.7-.2-.3-.4-.5-.5-.8-.1-.3-.2-.5-.2-.8l-.6.9c-.1.3-.3.5-.4.9s-.2.6-.2.9c0 .5.2 1 .7 1.3.4.4 1 .7 1.8 1.1s1.6.7 2.5 1 2 .7 3 1.1v13.5h-13V.2h4v18c.5-.5 1-.9 1.4-1.3s.7-.7 1.1-.9c.3-.2.7-.4 1-.5.3-.1.7-.2 1.2-.2.4 0 .7.1 1 .2.3.1.6.3.8.5.2.2.4.5.5.8.1.3.2.7.2 1 0 .4-.1.7-.2 1s-.3.6-.5.8-.5.4-.8.6-.6.2-1 .2-.7 0-1-.2zm.8 17.6V25l-4.6-2.1v14.9h4.6z"/></svg>