<svg id="Layer_1" xmlns="http://www.w3.org/2000/svg" viewBox="0 0 512 512"><style>.st0{fill:#333}.st1{fill:#fff}.st2{fill:#999}</style><path class="st0" d="M136.5 115h239.1v294.8H136.5z"/><path class="st1" d="M309.5 395.3H151V122.8h211.5v216.6z"/><path class="st2" d="M309.5 339.5h53l-53 55.8z"/><path d="M347.7 379.7l14.8-40.2-53 55.8z"/><path class="st2" d="M294.5 108.1c0-20.8-16.9-37.7-37.7-37.7S219 87.3 219 108.1h-27v44.2h128v-44.2h-25.5zm-82.9 29.2c-4 0-7.2-3.2-7.2-7.2s3.2-7.2 7.2-7.2 7.2 3.2 7.2 7.2-3.3 7.2-7.2 7.2zm29-29.2c0-8.9 7.2-16.1 16.1-16.1 8.9 0 16.1 7.2 16.1 16.1h-32.2zm60.4 29.2c-4 0-7.2-3.2-7.2-7.2s3.2-7.2 7.2-7.2 7.2 3.2 7.2 7.2-3.2 7.2-7.2 7.2z"/><path d="M174.4 178.9v6.7h163.1v-6.7H174.4zm0 25.8h163.1V198H174.4v6.7zm0 19h163.1V217H174.4v6.7zm0 19h163.1V236H174.4v6.7zm0 19h163.1V255H174.4v6.7zm0 19h163.1V274H174.4v6.7zm0 19h163.1V293H174.4v6.7zm0 19h163.1V312H174.4v6.7z"/><path class="st2" d="M294.5 108.1c0-20.8-16.9-37.7-37.7-37.7l-.7.1v21.6l.7-.1c8.9 0 16.1 7.2 16.1 16.1H256v44.2h64v-44.2h-25.5zm6.5 29.2c-4 0-7.2-3.2-7.2-7.2s3.2-7.2 7.2-7.2 7.2 3.2 7.2 7.2-3.2 7.2-7.2 7.2z"/></svg>