<svg id="Layer_1" xmlns="http://www.w3.org/2000/svg" viewBox="0 0 512 512"><style>.st0{fill:#fff}.st1{fill:#666}.st2{fill:#ccc}.st3{fill:#333}.st4{fill:#999}</style><path d="M417.6 187c-35.7-35.7-93.5-35.7-129.1 0l-57.8 57.8c-4.1 4.1-4.1 10.8 0 15L344.9 374c4.1 4.1 10.8 4.1 15 0l57.8-57.8c35.5-35.8 35.5-93.6-.1-129.2z"/><circle class="st0" cx="352.7" cy="251.9" r="74.6"/><path class="st1" d="M307.1 297.4c-25.1-25.1-25.1-66 0-91.1s66-25.1 91.1 0 25.1 66 0 91.1-66 25.1-91.1 0zm82.9-82.8c-20.6-20.6-54.1-20.6-74.6 0-20.6 20.6-20.6 54.1 0 74.6 20.6 20.6 54.1 20.6 74.6 0 20.6-20.6 20.5-54.1 0-74.6z"/><path class="st1" d="M398.2 206.3l-8.2 8.2c20.6 20.6 20.6 54.1 0 74.6-20.6 20.6-54.1 20.6-74.6 0l-8.2 8.2c25.1 25.1 66 25.1 91.1 0 25-25 25-65.9-.1-91z"/><circle class="st1" cx="255.7" cy="252.4" r="10.7"/><path transform="rotate(-45.001 188.1 186.118)" class="st2" d="M178.4 114.6h19.4v143.1h-19.4z"/><circle class="st1" cx="352.1" cy="348.8" r="10.7"/><path transform="rotate(-45.001 141.951 126.063)" class="st3" d="M122.4 122.5h39.1v7.1h-39.1z"/><path class="st3" d="M140.2 142.7l3.3 3.3 9.1-9.1-3.3-3.3-9.1 9.1zm8.7 8.7l3.3 3.3 9.1-9.1-3.3-3.3-9.1 9.1zm8.6 8.6l3.3 3.3 9.1-9.1-3.3-3.3-9.1 9.1zm8.7 8.7l3.3 3.3 9.1-9.1-3.3-3.3-9.1 9.1zm8.6 8.6l3.3 3.3 9.1-9.1-3.3-3.3-9.1 9.1zm8.6 8.7l3.3 3.3 9.1-9.1-3.3-3.3-9.1 9.1zm8.7 8.6l3.3 3.3 9.1-9.1-3.3-3.3-9.1 9.1zm8.7 8.7l3.3 3.3 9.1-9.1-3.3-3.3-9.1 9.1zm8.6 8.6l3.3 3.3 9.1-9.1-3.3-3.3-9.1 9.1zm8.6 8.7l3.3 3.3 9.1-9.1-3.3-3.3-9.1 9.1zm17.8-.5l-9.1 9.1 3.3 3.3 9.1-9.1-3.3-3.3z"/><path transform="rotate(-45.001 169.968 301.81)" class="st4" d="M138.3 188.9h63.3v225.9h-63.3z"/><path class="st1" d="M227.4 404l12.7-12.7L80.4 231.6l-12.7 12.7L227.4 404zM99.7 212.3L259.4 372l12.7-12.7-159.7-159.7-12.7 12.7z"/><path class="st2" d="M287.7 419.6L227.4 404l44.7-44.7z"/><path class="st3" d="M255 411.2l32.7 8.4-8.4-32.7z"/><path transform="rotate(-45.001 98.65 230.07)" class="st3" d="M66.7 218.3h63.9v23.6H66.7z"/><path d="M352.4 248.5l-15.6-15.6c-1.2-1.2-1.2-3.1 0-4.2l15.6-15.6c1.2-1.2 3.1-1.2 4.2 0l15.6 15.6c1.2 1.2 1.2 3.1 0 4.2l-15.6 15.6c-1.1 1.1-3 1.1-4.2 0zM331.3 269.6L315.7 254c-1.2-1.2-1.2-3.1 0-4.2l15.6-15.6c1.2-1.2 3.1-1.2 4.2 0l15.6 15.6c1.2 1.2 1.2 3.1 0 4.2l-15.6 15.6c-1.1 1.2-3 1.2-4.2 0zM352.4 290.7l-15.6-15.6c-1.2-1.2-1.2-3.1 0-4.2l15.6-15.6c1.2-1.2 3.1-1.2 4.2 0l15.6 15.6c1.2 1.2 1.2 3.1 0 4.2l-15.6 15.6c-1.1 1.2-3 1.2-4.2 0z"/></svg>