<svg id="Layer_1" xmlns="http://www.w3.org/2000/svg" viewBox="0 0 512 512"><style>.st0{fill:#cee6e8}.st1{fill:#333}.st2{fill:#59928e}.st3{fill:#ccc}.st4{fill:#666}.st5{fill:#999}</style><path class="st0" d="M437 437l-.5.5.5-.5zm.2-.1l-.2.1.2-.1zm.1-.2l-.1.1.1-.1zm.1-.1zm.2-.2zm.1-.1zm.2-.1zm.1-.2zm.2-.1zm.1-.2zm.1-.1zm.2-.1zm.1-.2zm.1-.1z"/><path class="st1" d="M389.7 152.1H122.3c-14.9 0-26.9 12.1-26.9 26.9v88l9.3 11.2-.1 12.8.2 72 .1 26.9h302.4V363l.1-72v-12.8l9.4-11.2v-88c-.1-14.8-12.2-26.9-27.1-26.9z"/><path d="M416.7 224.3V179c0-14.9-12.1-26.9-26.9-26.9H122.3c-14.9 0-26.9 12.1-26.9 26.9v45.3h321.3z"/><path class="st2" d="M95.3 267.1l9.3 11.1z"/><path class="st3" d="M118.6 245.7h44.5v-41.8h-44.5zM350.5 203.9v41.8H395v-41.8z"/><path class="st4" d="M163.1 224.4h-44.5v21.3h44.5zM395 224.4h-44.5v21.3H395z"/><path class="st1" d="M198.7 90.6v61.5h8.5v-44.2h98.2v44.2h8.5V90.6z"/><path d="M207.1 100.5h98.3v7.5h-98.3z"/><path class="st3" d="M262.4 347.9H155.1c-6.6 15.7-22.1 26.7-40.1 26.7-17.7 0-32.8-10.6-39.6-25.7h42.9l10.3-17.8-10.3-17.8h-43c6.8-15.1 22-25.7 39.6-25.7 18.1 0 33.5 11 40.1 26.7h107.3c6.1-11.6 18.2-19.6 32.3-19.6 14.8 0 27.5 8.8 33.2 21.5H292l-8.6 14.9L292 346h35.9c-5.7 12.7-18.4 21.5-33.2 21.5-14.1 0-26.2-8-32.3-19.6z"/><path class="st5" d="M262.4 347.9H155.1c-6.6 15.7-22.1 26.7-40.1 26.7-17.7 0-32.8-10.6-39.6-25.7h42.9l10.3-17.8h154.9L292 346h35.9c-5.7 12.7-18.4 21.5-33.2 21.5-14.1 0-26.2-8-32.3-19.6z"/><path class="st3" d="M428.8 331.1l-19.6-33.9h-39.1l-19.6 33.9 19.6 33.9h39.1l19.6-33.9zm-56 0c0-9.3 7.5-16.9 16.9-16.9 9.3 0 16.9 7.5 16.9 16.9 0 9.3-7.5 16.9-16.9 16.9-9.3-.1-16.9-7.6-16.9-16.9z"/><path class="st5" d="M428.8 331.1h-22.3c0 9.3-7.5 16.9-16.9 16.9s-16.9-7.5-16.9-16.9h-22.3L370 365h39.1l19.7-33.9z"/></svg>