<svg id="_x31_" xmlns="http://www.w3.org/2000/svg" viewBox="0 0 251.5 36.3"><style>.footer-logo-0{fill:#671700}</style><path class="footer-logo-0" d="M2.4 30.4h2V7.2c0-.2 0-.4-.1-.6 0-.1-.1-.2-.2-.2-.1-.1-.3-.1-.5-.1-.3 0-.7-.1-1.2-.1h-.5v-2h9.8c.9 0 1.6.1 2.2.3.7.2 1.2.6 1.7 1 .4.4.8.9 1 1.5.2.5.3 1.1.3 1.8 0 .5-.1.9-.2 1.3s-.3.8-.5 1.2c-.2.4-.5.7-.8 1l-.1.1 1.2.6c.7.4 1.3.8 1.8 1.4.5.5 1 1.1 1.4 1.7.4.6.7 1.3 1 2 .3.7.5 1.4.6 2.1s.2 1.4.2 2.1c0 1.7-.4 3.3-1.2 4.8-.4.8-.9 1.5-1.5 2.1s-1.3 1.2-2 1.6c-.8.5-1.6.8-2.5 1.1-.9.2-1.9.4-2.9.4H1.8l.1-.5.1-.9v-.4h.4v-.1zm4.7 0h.3c.2 0 .5.1.8.1.3 0 .6.1.8.1h.6c1.1 0 2.1-.1 3-.3s1.6-.6 2.3-1c.7-.4 1.2-.9 1.6-1.5.4-.5.8-1.1 1.1-1.8.3-.6.5-1.3.6-2s.2-1.3.2-2v-1.3c-.1-1.1-.4-2.1-.7-2.9-.4-.8-.8-1.5-1.4-2-.6-.6-1.2-1-1.8-1.4s-1.3-.6-2-.8c-.7-.2-1.5-.3-2.4-.3-.8-.1-1.7-.1-2.6-.1h-.3l-.1 17.2zm3.8-19c.6 0 1.1-.1 1.5-.2s.7-.3.9-.6c.2-.3.4-.6.5-.9s.2-.6.2-1.1v-.2-.3-.4c-.1-.3-.2-.5-.4-.7-.2-.2-.6-.4-1-.6-.4-.2-.9-.3-1.4-.4s-1-.1-1.5-.1c-.4 0-.7 0-1 .1-.3 0-.6.1-.8.2s-.4.1-.5.2l-.1 5.2h3.6v-.2zm19.2 2.9l4.8-7c.2-.3.4-.6.5-.7s.1-.2.1-.3h-.1c-.2-.1-.5-.1-1-.1h-.5v-2h7.5v2h-2.7l-6.3 8.9 7.5 13.2c.3.4.5.7.8.9.2.2.5.4.7.6.2.1.5.3.9.4s.9.2 1.5.3l.4.1v1.8h-8.6l.1-.5.1-.9v-.4H37.6l-7-12.7-.4.7v10.1c0 .4 0 .7.1.9 0 .2.1.4.2.5s.1.2.2.3.1.1.2.1.3.1.5.1h1.3l-.1.5-.1.9v.4H24.7v-.5l.1-.9v-.4h2.1V8.2c0-.4 0-.7-.1-1-.1-.2-.2-.4-.3-.5-.2-.1-.4-.2-.7-.3-.3-.1-.7-.1-1.1-.1h-.5V4.2h8.1v2h-2.1l-.1 8.1zm11.2 15.3zm12.4-1c-.3.4-.5.7-.6 1-.1.2-.2.3-.2.4 0 .3.6.4 1.8.4h.5v1.9h-8.6v-1.9h2.6l6.4-11.2L50.2 6h-2.7V4.1H55V6l-.4.1c-.4.1-.7.1-.9.2s-.4.1-.6.2c-.1 0-.1.1-.2.1.1.2.2.7.5 1.5l3.3 8.3L61.8 6h-2.2V4.1h8.1V6l-.4.1c-.7.1-1.3.3-1.7.7-.4.3-.8.8-1 1.3L53.7 28.6zm38-23.5l-.1-1.4v-.5h1.9v.5l-.1 10.2v.5h-1.9v-1.6c0-2.1-.5-3.7-1.5-4.7-.5-.5-1-1-1.6-1.3-.5-.3-1-.6-1.6-.7s-1.1-.2-1.6-.3c-.5-.1-.9-.1-1.3-.1-1.2.1-2.2.3-3.2.6s-1.9.8-2.7 1.4c-.8.6-1.5 1.2-2.1 2-.6.7-1.1 1.6-1.5 2.5s-.7 1.8-.9 2.8-.3 1.9-.3 3c0 1 .1 2.1.3 3.1s.5 2 1 3c.4 1 .9 1.8 1.5 2.6s1.3 1.5 2.1 2.1c.8.6 1.6 1 2.5 1.3.9.3 1.9.5 2.9.5h.5c1.9 0 3.5-.4 5.1-1.1.8-.4 1.4-.8 2-1.2s1.1-.9 1.5-1.4l.4-.5.4.5.6.8.2.2-.1.3c-.2.4-.5.8-.9 1.2s-.8.7-1.4 1c-.5.3-1.1.6-1.7.8-.6.2-1.2.4-1.9.6s-1.3.3-1.9.4c-.6.1-1.2.1-1.8.1h-.9c-1.4 0-2.7-.2-3.9-.6s-2.3-.9-3.3-1.6-1.9-1.5-2.7-2.3c-.8-.9-1.4-1.8-1.9-2.9s-.9-2.2-1.2-3.3-.4-2.3-.4-3.4c0-.9.1-1.7.2-2.6.1-.8.4-1.7.7-2.5s.7-1.6 1.1-2.4c.5-.8 1-1.5 1.6-2.2s1.3-1.3 2-1.9 1.6-1 2.5-1.5c.9-.4 1.9-.8 2.9-1s2.1-.4 3.2-.4c1.5 0 2.8.1 4.1.4 1.3.2 2.3.6 3.2 1zm-7.4 25.3zm27.9-24.3v23c0 .2 0 .4.1.6 0 .2.1.3.2.4 0 .1.1.1.2.2.2.1.4.1.7.1h1.3v1.9h-7.8v-1.9h2.1V14.1h-6.8v14.8c0 .4 0 .7.1 1 0 .2.1.4.1.5s.1.1.2.1.2.1.4.1h1.4v1.9h-7.8v-1.9h2.5V8.1c0-.5 0-.8-.1-1.1 0-.2-.1-.3-.2-.4-.1-.1-.2-.1-.5-.2s-.7-.1-1.2-.1h-.5V4.2h7.5v2h-1.9v5.7h6.8v-4c0-.4 0-.6-.1-.9-.1-.2-.1-.4-.2-.5-.1-.1-.2-.2-.5-.2-.3-.1-.7-.1-1.2-.1h-.5v-2h7.9v2h-.5l-1.7-.1c0 .1 0 0 0 0zm19.2-1.9h.8c1.5 0 2.8.2 4 .5s2.4.8 3.4 1.5 1.9 1.4 2.7 2.3 1.4 1.8 1.9 2.8c.5 1 .9 2.1 1.2 3.2.3 1.1.4 2.2.5 3.4v.7c0 1.1-.1 2.2-.4 3.3-.3 1.1-.6 2.2-1.1 3.2-.5 1.1-1.1 2-1.9 2.9s-1.6 1.6-2.7 2.3c-1 .7-2.1 1.2-3.4 1.5a16 16 0 0 1-3.9.5H130.8c-1.1 0-2.2-.1-3.2-.3s-2-.5-2.9-.9c-.9-.4-1.7-.8-2.5-1.4-.7-.5-1.4-1.1-2-1.8s-1.1-1.4-1.6-2.1-.8-1.5-1.1-2.3-.5-1.7-.7-2.5c-.1-.9-.2-1.7-.2-2.6 0-1.2.1-2.4.4-3.5s.7-2.3 1.2-3.3c.5-1.1 1.2-2.1 2-3s1.8-1.7 2.8-2.3c1.1-.7 2.3-1.2 3.5-1.5 1.3-.3 2.6-.5 4.1-.5l.8-.1zm.1 27.9zm-.1-25.8c-1.1 0-2.2.2-3.1.5-1 .3-1.9.7-2.8 1.2s-1.6 1.2-2.3 1.9-1.2 1.5-1.7 2.4c-.5.9-.8 1.8-1 2.7s-.3 1.9-.3 2.9v.5c0 1 .1 1.9.3 2.8.2.9.6 1.8 1 2.7.5.9 1 1.7 1.7 2.4s1.4 1.4 2.3 1.9c1.7 1.1 3.7 1.6 5.9 1.6.1 0 .2 0 .3.1 1.1 0 2.2-.1 3.1-.4 1-.3 1.8-.7 2.6-1.2s1.5-1.1 2.1-1.8 1.1-1.5 1.5-2.4.7-1.8.9-2.7.3-1.9.3-2.9c0-.8-.1-1.5-.2-2.3-.1-.7-.3-1.5-.5-2.2-.2-.7-.5-1.4-.9-2.1-.3-.7-.7-1.3-1.2-1.9-.9-1.2-2-2.1-3.3-2.8-.6-.3-1.3-.6-2.1-.8-.7-.2-1.5-.3-2.3-.3l-.3.2zm.4 23.6zm42.2 2.4h-11.2l.1-.5.1-.9v-.4h2.1V8.6c0-.3 0-.6-.1-.8 0-.2-.1-.4-.1-.6 0-.1-.1-.2-.1-.3 0-.1-.1-.1-.1-.1-.1 0-.1-.1-.2-.1s-.2-.1-.3-.1c-.2 0-.4-.1-.6-.1-.3-.1-.5-.1-.7-.1l-.4-.1.1-.5.2-1.1.1-.4h11.4V2.9h1.9v9.8h-1.9v-1.3c0-.8-.1-1.4-.2-2-.1-.5-.3-1-.5-1.4s-.5-.7-.8-.9c-.3-.2-.7-.4-1.1-.6-.5-.1-1-.2-1.6-.3-.5-.1-1.1-.1-1.7-.1v5.6h1.9v-4h1.9v11h-2.3v-.5c0-.8-.1-1.5-.2-2.1s-.2-1.1-.4-1.4c-.1-.3-.3-.6-.6-.7-.2-.1-.4-.2-.7-.2v16.7h1c.8 0 1.4-.1 2-.2.5-.1 1-.3 1.3-.6.4-.2.7-.5.9-.8.2-.3.4-.6.5-1 .1-.4.2-.8.2-1.3.1-.5.1-1 .1-1.6v-1.8h1.9v.5l-.1 9.6v.5h-1.9v-.5l.1-1zm-9.4-25.7zm35.3-1.5l-.1-1.4v-.5h1.9v.5l-.1 10.2v.5h-1.9v-1.6c0-2.1-.5-3.7-1.5-4.7-.5-.5-1-1-1.6-1.3-.5-.3-1-.6-1.6-.7s-1.1-.2-1.6-.3c-.5-.1-.9-.1-1.3-.1-1.2.1-2.2.3-3.2.6s-1.9.8-2.7 1.4c-.8.6-1.5 1.2-2.1 2-.6.7-1.1 1.6-1.5 2.5s-.7 1.8-.9 2.8-.3 1.9-.3 3c0 1 .1 2.1.3 3.1s.5 2 1 3c.4 1 .9 1.8 1.5 2.6s1.3 1.5 2.1 2.1c.8.6 1.6 1 2.5 1.3.9.3 1.9.5 2.9.5h.5c1.9 0 3.5-.4 5.1-1.1.8-.4 1.4-.8 2-1.2s1.1-.9 1.5-1.4l.4-.5.4.5.6.8.2.2-.1.3c-.2.4-.5.8-.9 1.2s-.8.7-1.4 1c-.5.3-1.1.6-1.7.8s-1.2.4-1.9.6-1.3.3-1.9.4-1.2.1-1.8.1h-.9c-1.4 0-2.7-.2-3.9-.6s-2.3-.9-3.3-1.6-1.9-1.5-2.7-2.3c-.8-.9-1.4-1.8-1.9-2.9s-.9-2.2-1.2-3.3c-.3-1.1-.4-2.3-.4-3.4 0-.9.1-1.7.2-2.6.1-.8.4-1.7.7-2.5s.7-1.6 1.1-2.4c.5-.8 1-1.5 1.6-2.2s1.3-1.3 2-1.9c.7-.5 1.6-1 2.5-1.5.9-.4 1.9-.8 2.9-1s2.1-.4 3.2-.4c1.5 0 2.8.1 4.1.4 1.3.2 2.2.6 3.2 1zm-7.4 25.3zm18.5-.1V5.9c-.4 0-.8 0-1.2.1-.5.1-.8.2-1.2.3-.3.1-.6.3-.8.5s-.4.4-.5.7c-.1.3-.3.6-.3 1-.1.3-.1.7-.2 1 0 .4-.1.9-.1 1.7 0 .7-.1 1.7-.1 2.7v.5h-1.8V2.6h1.9V4h12.1V2.6h1.9v11.9h-1.9V14c0-.6 0-1.2-.1-1.8 0-.6 0-1.1-.1-1.7 0-.5-.1-1-.2-1.4s-.2-.8-.3-1.1c-.1-.3-.3-.6-.5-.8-.2-.2-.5-.5-.9-.7-.4-.2-.8-.3-1.3-.4-.4-.1-.9-.1-1.4-.1v22.5c0 .4.1.8.2 1 .1.2.2.4.4.4.2.1.6.2 1 .2.4.1.9.1 1.5.1h.5v1.9H209v-1.9h2v.1zm24.6-25.9v1.4H234c-.7 0-1.1.1-1.4.3-.2.2-.4.5-.4.8v2.2c.9-.3 1.7-.5 2.6-.7 1.1-.2 2.1-.3 3.2-.3 1.2 0 2.3.2 3.4.5s2 .8 2.9 1.4c.9.6 1.7 1.3 2.3 2.1.7.8 1.2 1.7 1.7 2.6.4 1 .8 1.9 1 3 .2 1 .3 2.1.3 3.1s-.1 1.9-.3 2.8-.5 1.8-.9 2.7-.9 1.7-1.5 2.4-1.3 1.3-2.1 1.9c-.8.5-1.7 1-2.6 1.2-1 .3-2 .4-3.1.4H238.5h-.1c-.9 0-2-.2-3.1-.5-.9-.2-2-.6-3.1-1v1.5h-5.7v-2h.5c.4 0 .8 0 1.1-.1s.5-.2.7-.3.3-.3.4-.6.1-.6.1-1V6.1c-.4 0-.8.1-1.1.1-.5.1-.8.2-1.2.3-.3.1-.6.3-.8.5s-.4.5-.5.7c-.1.3-.3.7-.4 1-.1.4-.2.7-.2 1.1 0 .4-.1 1-.1 1.7s-.1 1.6-.1 2.5v.5H223V2.6h1.9V4h10.7v.4zm-3.4 8.4v15.1c.2.3.5.5.8.7.4.3.9.5 1.4.7.5.2 1.1.4 1.6.5.6.1 1.1.2 1.7.2.7 0 1.4-.1 2.1-.2.7-.2 1.3-.4 2-.7.6-.3 1.2-.7 1.8-1.1.5-.5 1-1 1.5-1.7.4-.6.8-1.3 1-2.1s.4-1.7.5-2.6v-.8c0-.9-.1-1.8-.3-2.6-.2-.8-.5-1.7-.9-2.5s-.9-1.5-1.5-2.2c-.5-.6-1.2-1.2-1.9-1.7s-1.4-.8-2.1-1.1c-.7-.2-1.4-.3-2.1-.3-1 0-2 .2-2.9.6-.9.4-1.8.9-2.7 1.8z"/></svg>