<svg id="Слой_2" xmlns="http://www.w3.org/2000/svg" viewBox="0 0 300 300"><style>.st0{fill:#fff}.st1{fill:#671700}.st2{fill:#c9a568}.st3{fill:#e9dfd1}</style><path class="st0" d="M0 0h300v300H0z"/><path class="st1" d="M92.7 132.3c.7.1 1.3.3 1.9.5v.6h-5.5v-.6c.5-.2 1.1-.4 1.6-.5v-11.9c-.3-.1-.5-.1-.8-.2-.3-.1-.6-.2-.8-.3v-.6h9.4v2c0 .4 0 .7-.1 1.1 0 .4-.1.7-.1 1h-.5l-1-3h-4v11.9h-.1zM99.8 126.4c0-1 .1-2 .4-2.9s.7-1.7 1.2-2.3c.5-.6 1.2-1.1 2-1.5.8-.4 1.7-.5 2.7-.5s1.9.2 2.7.5c.8.4 1.4.9 2 1.5.5.6 1 1.4 1.2 2.3.3.9.4 1.9.4 2.9s-.1 2-.4 2.9c-.3.9-.7 1.7-1.2 2.3s-1.2 1.1-2 1.5-1.7.5-2.7.5-1.9-.2-2.7-.5c-.8-.4-1.5-.9-2-1.5s-1-1.4-1.2-2.3c-.3-.9-.4-1.9-.4-2.9zm2.1 0c0 .9.1 1.7.3 2.4.2.8.4 1.4.8 2 .4.6.8 1 1.4 1.3.5.3 1.2.5 1.9.5s1.3-.2 1.8-.5.9-.8 1.3-1.3.6-1.2.7-2c.2-.8.3-1.6.3-2.4 0-.9-.1-1.7-.3-2.4-.2-.8-.4-1.4-.8-2s-.8-1-1.4-1.3c-.5-.3-1.2-.5-1.9-.5s-1.4.2-1.9.5-.9.8-1.3 1.3c-.3.6-.6 1.2-.7 2-.1.7-.2 1.5-.2 2.4zM124.5 129.7h.5c.1.4.1.8.2 1.4.1.6.1 1.1 0 1.6-.2.2-.4.3-.7.4l-.9.3c-.3.1-.6.1-1 .1h-.9c-1.1 0-2.1-.1-3-.4-.9-.3-1.6-.7-2.2-1.3-.6-.6-1.1-1.3-1.4-2.3-.3-.9-.5-2-.5-3.3 0-1.3.2-2.4.5-3.3.4-.9.8-1.7 1.5-2.2.6-.6 1.3-1 2.1-1.3.8-.3 1.7-.4 2.6-.4.9 0 1.6.1 2.2.2.6.1 1.1.3 1.6.5v.8c0 .3 0 .6-.1.9 0 .3-.1.6-.1.9s-.1.6-.1.8h-.5l-1-2.9c-.1-.1-.4-.1-.7-.2h-1c-.7 0-1.3.1-1.9.4-.6.2-1.1.6-1.6 1.1s-.8 1.2-1.1 1.9c-.3.8-.4 1.7-.4 2.8 0 .9.1 1.8.4 2.6.2.8.6 1.4 1 2 .5.5 1 1 1.7 1.2.7.3 1.4.4 2.2.4.4 0 .8 0 1.1-.1.3-.1.5-.2.6-.3l.9-2.3zM134.9 133.4h-5.6v-.6l.9-.3c.3-.1.6-.1 1-.2v-11.9h-3.1l-1.1 2.9h-.5c0-.3-.1-.6-.1-.9 0-.3 0-.7-.1-1 0-.4 0-.7-.1-1v-.9h11.6v.9c0 .3 0 .7-.1 1 0 .4 0 .7-.1 1 0 .3-.1.6-.1.9h-.5l-1.1-2.9h-3v11.9c.3.1.7.1 1 .2l.9.3.1.6zM143.9 133.4h-5.1v-.6c.5-.2 1.1-.4 1.6-.5v-11.9c-.3-.1-.5-.1-.8-.2-.3-.1-.6-.2-.8-.3v-.6h5.1v.6c-.2.1-.4.2-.7.3-.2.1-.5.2-.8.2v8.7l-.2 1.5 1-1.6 5.9-8.1v-.5c-.3-.1-.6-.1-.9-.2-.3-.1-.5-.2-.8-.3v-.6h5.1v.6c-.2.1-.5.2-.8.3-.3.1-.6.2-.9.2v11.9c.6.1 1.2.3 1.6.5v.6h-5.1v-.6c.2-.1.4-.2.7-.3.3-.1.5-.2.8-.2v-8.7l.2-1.5-.9 1.5-5.9 8.2v.4c.3.1.6.1.9.2.3.1.5.2.8.3v.7zM158.7 133.4h-5.1v-.6c.5-.2 1.1-.4 1.6-.5v-11.9c-.6-.1-1.2-.3-1.6-.5v-.6h5.1v.6c-.2.1-.5.2-.7.3-.2.1-.5.1-.8.2v5.2h6.3v-5.2c-.3-.1-.5-.1-.8-.2-.3-.1-.5-.2-.7-.3v-.6h5.1v.6c-.2.1-.5.2-.8.3-.3.1-.6.1-.9.2v11.9c.3.1.6.1.9.2.3.1.5.2.8.3v.6H162v-.6c.5-.2 1-.4 1.5-.5v-5.6h-6.3v5.6c.3.1.5.1.8.2s.5.2.7.3v.6zM173.3 133.4h-5.1v-.6c.5-.2 1.1-.4 1.6-.5v-11.9c-.3-.1-.5-.1-.8-.2-.3-.1-.6-.2-.8-.3v-.6h5.1v.6c-.2.1-.4.2-.7.3-.3.1-.5.2-.8.2v8.7l-.2 1.5 1-1.6 5.9-8.1v-.5c-.3-.1-.6-.1-.9-.2-.3-.1-.5-.2-.8-.3v-.6h5.1v.6c-.2.1-.5.2-.8.3-.3.1-.6.2-.9.2v11.9c.6.1 1.2.3 1.6.5v.6h-5.1v-.6c.2-.1.4-.2.7-.3.3-.1.5-.2.8-.2v-8.7l.2-1.5-.9 1.5-5.9 8.2v.4c.3.1.6.1.9.2.3.1.5.2.8.3v.7zM183 133.4v-.6c.4-.2.9-.3 1.6-.5v-11.9c-.5-.1-1.1-.2-1.6-.5v-.6h5.1v.6c-.4.2-.9.3-1.5.5v11.9h6v-11.9c-.2-.1-.5-.1-.7-.2-.2-.1-.5-.2-.8-.3v-.6h5.1v.6c-.5.2-1.1.4-1.6.5v11.9h2.3v.9c0 .4-.1.7-.1 1.1s-.1.7-.1 1.1c0 .4-.1.7-.2.9h-.5l-.9-3-12.1.1zM201.5 133.4h-4.4v-.6c.5-.2 1-.4 1.4-.5l5.1-13.2h.6l5.1 13.2c.3.1.5.1.8.2s.5.2.7.3v.6h-5.2v-.6c.3-.1.5-.2.8-.3s.6-.1.8-.2l-1.4-3.7H201l-1.3 3.7c.6.1 1.1.2 1.7.5l.1.6zm0-5.8h4l-1.6-4.2-.4-1.7-.5 1.8-1.5 4.1z"/><path class="st2" d="M70.4 145.4c.3.1.6.3.8.6.2.2.4.5.5.8.1.3.2.7.2 1 0 .4-.1.7-.2 1-.1.3-.3.6-.5.8-.2.2-.5.4-.8.5-.3.1-.7.2-1 .2-.4 0-.7-.1-1-.2-.3-.1-.6-.3-.8-.5-.2-.2-.4-.5-.5-.8s-.2-.6-.2-1c0-.6.1-1.2.2-1.8.2-.6.4-1.1.7-1.5.3-.5.7-.9 1.2-1.1.5-.3 1.1-.4 1.7-.4 1.5 0 2.6.4 3.3 1.3 0 0 .1.1.1.2.2.1.2.3.4.5.1.2.2.3.3.4l.2.2h.1V143h4.2v38.4h-4.2v-20l-4.2 3.4v16.6h-4.2V166l7.8-6.2v-1l-.4.2c-.2.1-.5.3-.8.5-.3.2-.8.4-1.2.5s-.8.2-1.2.2c-.6 0-1.1-.1-1.7-.4-.5-.3-1-.6-1.3-1.1-.4-.4-.7-1-.9-1.5s-.3-1.2-.3-1.7c0-.7.1-1.2.2-1.7.1-.4.3-.8.6-1.1s.6-.5 1-.7.9-.4 1.4-.6c.4-.2.8-.4 1.3-.6s1-.5 1.5-.8.9-.6 1.2-.9c.3-.3.5-.6.5-.8v-1.8c0-.3-.1-.5-.3-.8-.2-.3-.4-.6-.7-.8-.3-.2-.6-.5-1-.7-.3-.2-.7-.3-.9-.3h-.9c-.3 0-.6.1-.9.1-.3.1-.5.2-.7.3s-.3.3-.3.6c0 0 0 .1.1.1s.1.1.2.1.2.1.2.1h.1c.4 0 .8.1 1.1.2zm3.9 4.2l-1.2 1.2-1.2 1.2c-.4.4-.6.8-.8 1.4-.2.5-.3 1.1-.3 1.6 0 .4 0 .8.1 1.2.1.4.2.8.4 1.1.2.3.4.6.6.8.2.2.5.3.9.3 1.5 0 2.2-.6 2.2-1.8v-7h-.7zM93.4 149.1v-5.3h-1.9v37.5h-4.4v-37.5H85v9.9h-4.2v-10.8h17v6.2h-4.4zM103 145.4c.3.1.6.3.8.6.2.2.4.5.5.8.1.3.2.7.2 1 0 .4-.1.7-.2 1-.1.3-.3.6-.5.8-.2.2-.5.4-.8.5s-.7.2-1 .2c-.4 0-.7-.1-1-.2s-.6-.3-.8-.5c-.2-.2-.4-.5-.5-.8-.1-.3-.2-.6-.2-1 0-.6.1-1.2.2-1.8.2-.6.4-1.1.7-1.5s.7-.8 1.2-1.1c.5-.3 1-.4 1.7-.4 1.5 0 2.6.4 3.3 1.3 0 0 .1.1.1.2.1.1.2.3.3.4.1.2.2.3.3.4l.2.2h.1V143h4.2v38.4h-4.2v-20l-4.2 3.4v16.6h-4.2V166l7.8-6.2v-1l-.4.2c-.2.1-.5.3-.8.5s-.7.3-1.1.5c-.4.1-.8.2-1.2.2-.6 0-1.1-.1-1.7-.4-.5-.3-1-.6-1.3-1.1-.4-.4-.7-1-.9-1.5-.2-.5-.3-1.2-.3-1.7 0-.7.1-1.2.2-1.7.1-.4.4-.8.6-1.1.2-.3.6-.5 1-.7.4-.2.9-.4 1.4-.6.4-.2.8-.4 1.3-.6.5-.2 1-.5 1.5-.8.5-.3.9-.6 1.2-.9.3-.3.5-.6.5-.8v-1.8c0-.3-.1-.5-.3-.8s-.4-.6-.7-.8c-.3-.2-.6-.5-1-.7-.3-.2-.7-.3-.9-.3h-.9c-.3 0-.6.1-.9.1-.3.1-.5.2-.7.3s-.3.3-.3.6c0 0 0 .1.1.1s.1.1.2.1.2.1.2.1h.1c.5 0 .8.1 1.1.2zm4 4.2c-.4.4-.8.8-1.2 1.1l-1.2 1.2c-.4.4-.6.8-.8 1.4-.2.5-.3 1.1-.3 1.6 0 .4 0 .8.1 1.2.1.4.2.8.4 1.1.2.3.4.6.6.8.2.2.5.3.9.3 1.5 0 2.2-.6 2.2-1.8v-7h-.7v.1zM117.7 145.4c.3.1.6.3.8.6s.4.5.5.8.2.7.2 1c0 .4-.1.7-.2 1-.1.3-.3.6-.5.8-.2.2-.5.4-.8.5-.3.1-.7.2-1 .2-.4 0-.7-.1-1-.2-.3-.1-.6-.3-.8-.5s-.4-.5-.5-.8-.2-.6-.2-1c0-.6.1-1.2.2-1.8.2-.6.4-1.1.7-1.5.3-.5.7-.8 1.2-1.1.5-.3 1-.4 1.7-.4.6 0 1.1 0 1.5.1.4.1.8.2 1.1.4.3.2.6.5.8.8s.5.8.7 1.3V143h4.4v22.7l2.9-7.4c.1-.2.1-.3.1-.5v-.4c0-.3-.1-.6-.2-1l-1.3-1.6.8-2.9 1.8 2v-11h4.5v38.4h-4.5v-23l-2.5 6.4c-.4 1-.5 1.8-.5 2.5v.5c0 .1.1.3.1.4l1.1 1.4-.7 3.1-1.7-1.9v10.7H122v-19.8l-4 3.2v16.6h-4.2V166l7.8-6.2v-1l-.4.2c-.2.1-.5.3-.8.5-.3.2-.7.3-1.1.5-.4.1-.8.2-1.2.2-.6 0-1.1-.1-1.7-.4-.5-.3-1-.6-1.3-1.1-.4-.4-.7-1-.9-1.5-.2-.6-.3-1.2-.3-1.7 0-.7.1-1.2.2-1.7.1-.4.4-.8.6-1.1.3-.3.6-.5 1-.7.4-.2.9-.4 1.4-.6.4-.2.8-.4 1.3-.6.5-.2 1-.5 1.5-.8.5-.3.9-.6 1.2-.9s.5-.6.5-.9v-1.8c0-.3-.1-.5-.3-.8-.2-.3-.5-.6-.8-.8-.3-.3-.6-.5-1-.7-.3-.2-.7-.3-.9-.3h-.9c-.4 0-.6.1-.9.1-.3.1-.5.2-.7.3-.2.1-.3.3-.3.6 0 0 0 .1.1.1s.1.1.2.1.1.1.2.1h.1c.6.1 1 .2 1.3.3zm3.9 4.2c-.4.4-.8.8-1.2 1.1l-1.2 1.2c-.4.4-.6.8-.8 1.4-.2.5-.3 1.1-.3 1.6 0 .4 0 .8.1 1.2.1.4.2.8.4 1.1.2.3.4.6.6.8.2.2.5.3.9.3 1 0 1.6-.3 2-.9v-7.9l-.5.1zM140.9 145.4c.3.1.6.3.8.6.2.2.4.5.5.8.1.3.2.7.2 1 0 .4-.1.7-.2 1-.1.3-.3.6-.5.8-.2.2-.5.4-.8.5-.3.1-.7.2-1 .2-.4 0-.7-.1-1-.2-.3-.1-.6-.3-.8-.5-.2-.2-.4-.5-.5-.8-.1-.3-.2-.6-.2-1 0-.6.1-1.2.2-1.8.2-.6.4-1.1.7-1.5.3-.4.7-.8 1.2-1.1.5-.3 1-.4 1.7-.4 1.5 0 2.6.4 3.3 1.3 0 0 .1.1.1.2.1.1.2.3.3.4.1.2.2.3.3.4l.2.2h.1V143h4.2v38.4h-4.2v-20l-4.2 3.4v16.6h-4.2V166l7.8-6.2v-1l-.4.2c-.2.1-.5.3-.8.5s-.7.3-1.1.5c-.4.1-.8.2-1.2.2-.6 0-1.1-.1-1.7-.4-.5-.3-1-.6-1.3-1.1-.4-.4-.7-1-.9-1.5s-.3-1.2-.3-1.7c0-.7.1-1.2.2-1.7.1-.4.4-.8.6-1.1.2-.3.6-.5 1-.7.4-.2.9-.4 1.4-.6.4-.2.8-.4 1.3-.6.5-.2 1-.5 1.5-.8.5-.3.9-.6 1.2-.9s.5-.6.5-.8v-1.8c0-.3-.1-.5-.3-.8s-.4-.6-.7-.8-.6-.5-1-.7c-.3-.2-.7-.3-.9-.3h-.9c-.3 0-.6.1-.9.1-.3.1-.5.2-.7.3-.2.1-.3.3-.3.6 0 0 0 .1.1.1s.1.1.2.1.2.1.2.1h.1c.4 0 .8.1 1.1.2zm3.9 4.2c-.4.4-.8.8-1.2 1.1l-1.2 1.2c-.4.4-.6.8-.8 1.4-.2.5-.3 1.1-.3 1.6 0 .4 0 .8.1 1.2.1.4.2.8.4 1.1.2.3.4.6.6.8.2.2.5.3.9.3 1.5 0 2.2-.6 2.2-1.8v-7h-.7v.1zM160.5 165.7V143h4.4v38.4h-4.4v-10.7l-1.7 1.9-.7-3.1 1.1-1.4c.1-.1.1-.2.1-.4v-.5c0-.7-.2-1.5-.5-2.5l-2.5-6.4v23h-4.5V143h4.5v11l1.8-2 .8 2.9-1.3 1.6c-.2.2-.2.5-.2 1v.4c0 .1.1.3.1.5l3 7.3zM176 146.7c0-.3-.1-.6-.2-.9-.1-.3-.3-.5-.5-.7-.2-.2-.5-.4-.7-.5-.3-.1-.6-.2-.9-.2-.3 0-.5.1-.8.2-.2.1-.5.3-.6.6-.2.2-.3.5-.4.8-.1.3-.2.6-.2.9v29.2c0 2.5.3 3.7.9 3.7.4 0 .8-.2 1.2-.5.3-.4.6-.8.9-1.4.3-.6.5-1.3.6-2.1s.3-1.6.4-2.4c.1-.8.2-1.7.2-2.5s.1-1.6.1-2.3h4.2c0 3.9-.9 7.1-2.7 9.4-1.7 2.2-3.9 3.4-6.6 3.4-.5 0-1 0-1.4-.1-.5-.1-.9-.2-1.3-.4s-.7-.4-1-.7c-.3-.3-.4-.6-.4-1 0-.9.1-1.5.3-1.9.3-.5.8-.8 1.7-.8.1 0 .3.1.5.4.2.3.3.5.5.8.2.3.3.5.5.8.1.2.3.4.3.4-.2-.9-.4-2-.7-3.1-.3-1.1-.5-2.3-.7-3.5-.2-1.2-.4-2.4-.6-3.7-.2-1.2-.4-2.4-.5-3.6s-.3-2.2-.4-3.2c-.1-1-.1-1.9-.1-2.6 0-4.3.5-7.9 1.4-10.8 1.1-3.5 2.7-5.3 4.8-5.3 1.5 0 2.6.2 3.5.7.9.5 1.5 1.2 2 2.1s.7 1.9.9 3.1c.1 1.2.2 2.5.2 3.9v3h-4.2v-9.2h-.2zM181.9 181.4V143h4.3v15.4h.3c.8-1.3 2-2.4 3.9-3.4v-12h4.5v12c-.3 0-.8.1-1.3.2s-1 .4-1.6.6c-.5.3-1.1.6-1.6.9s-1 .7-1.4 1.1c-.4.4-.8.8-1 1.2-.3.4-.4.8-.4 1.2 0 .5.1.9.4 1.3.3.4.6.8 1 1.1.4.3.9.7 1.4.9.5.2 1.1.5 1.6.7.5.2 1.1.3 1.6.4s.9.2 1.3.2v16.5h-4.5v-16.4c-1.6-.5-2.9-1.5-3.9-3h-.3v19.5h-4.3zM200.5 145.4c.3.1.6.3.8.6.2.2.4.5.5.8s.2.7.2 1c0 .4-.1.7-.2 1-.1.3-.3.6-.5.8-.2.2-.5.4-.8.5s-.7.2-1 .2c-.4 0-.7-.1-1-.2s-.6-.3-.8-.5-.4-.5-.5-.8-.2-.6-.2-1c0-.6.1-1.2.2-1.8.2-.6.4-1.1.7-1.5s.7-.8 1.2-1.1c.5-.3 1-.4 1.7-.4 1.5 0 2.6.4 3.3 1.3 0 0 .1.1.1.2.1.1.2.3.3.4.1.2.2.3.3.4l.2.2h.1V143h4.2v38.4h-4.2v-20l-4.2 3.4v16.6h-4.2V166l7.8-6.2v-1l-.4.2c-.2.1-.5.3-.8.5s-.7.3-1.1.5c-.4.1-.8.2-1.2.2-.6 0-1.1-.1-1.7-.4-.5-.3-1-.6-1.3-1.1-.4-.4-.7-1-.9-1.5s-.3-1.2-.3-1.7c0-.7.1-1.2.2-1.7.1-.4.4-.8.6-1.1.2-.3.6-.5 1-.7.4-.2.9-.4 1.4-.6.4-.2.8-.4 1.3-.6.5-.2 1-.5 1.5-.8.5-.3.9-.6 1.2-.9s.5-.6.5-.8v-1.8c0-.3-.1-.5-.3-.8s-.4-.6-.7-.8-.6-.5-1-.7c-.3-.2-.7-.3-.9-.3h-.9c-.3 0-.6.1-.9.1-.3.1-.5.2-.7.3s-.3.3-.3.6c0 0 0 .1.1.1s.1.1.2.1.2.1.2.1h.1c.4 0 .8.1 1.1.2zm3.9 4.2c-.4.4-.8.8-1.2 1.1l-1.2 1.2c-.4.4-.6.8-.8 1.4-.2.5-.3 1.1-.3 1.6 0 .4 0 .8.1 1.2.1.4.2.8.4 1.1.2.3.4.6.6.8.2.2.5.3.9.3 1.5 0 2.2-.6 2.2-1.8v-7h-.7v.1zM218 181.4v-16.5h-1.9c-.3.6-.6 1.6-.9 2.9-.4 1.3-.8 2.9-1.2 4.8-.4 1.7-.7 3.3-1 4.7-.3 1.4-.6 2.8-.8 4h-1.4c1.2-7.7 2.8-14.7 5.1-21.1 2.2-6.4 5-12.2 8.2-17.3.2 1.7.5 3.3.9 4.9.4 1.6.8 3.3 1.3 4.9l2.9 9.7c1.2 4.1 2.1 7.7 2.7 10.8s.9 5.8.9 8h-4.5c-.1-1.4-.3-2.9-.6-4.7-.3-1.7-.7-3.7-1.3-5.9-.2-.8-.4-1.6-.6-2.3-.2-.7-.4-1.3-.5-1.9l-.5-1.7h-2.5v16.5H218v.2zm6.4-17.4c-.1-.6-.4-1.5-.7-2.7s-.7-2.7-1.2-4.5c-.3-1.1-.6-2.1-.9-3s-.5-1.6-.7-2.2c-.1 0-.2.2-.3.5s-.3.7-.6 1.2-.4 1.1-.7 1.8c-.2.7-.5 1.4-.8 2.1-.3.7-.5 1.4-.7 2.2-.2.7-.5 1.4-.7 2-.2.6-.4 1.1-.5 1.6s-.3.8-.3 1h8.1z"/><path class="st3" d="M147.3 86.7l1.1-.9c-9.7-11.8-19.4-11.4-31-9.4-8.5 1.5-11.8-5.1-9.4-7.9 1.1-1.3 2.8-1.4 3.7-.4-1.7.1-2.4 3-.8 4 2.1 1.3 4.2-1.1 4.1-3.4-.1-1.6-2-5.2-6.8-3.7-6.9 2.2-5.2 13.7 6.7 14 9.6 0 18.3-6.9 32.4 7.7zM84.4 92.1c.8-1.4 1.1-3.3 6.6-6.3 1.9-1 3.5-2 4.2-3.4 1.4-2.2 1.4-5.8.2-7.2.9-.2 7.7 4.2 1.8 9.2-4.5 3.9-8.7 2.1-12.8 7.7zM79 102.5c-1.7-.3-2.4-4.2.4-5.3 3.3-1.3 6.7 2.6 7.4 4.8-1-.6-4.3-2.7-6.5-2-.9.2-1.4 1-1.3 2.5zM87.8 100.7c-5-4.3-3.2-9.1.3-10.1 3.7-1.1 6.8 3.4 4 5.9 0-2.2-2-2.3-3.4-1.9-1.6.5-2.1 2.8-.9 6.1z"/><path class="st3" d="M88.1 100.8c2.2 1.1 5.7 2.4 10.6-5.3 2.5-3.8 6.2-8.2 10.2-11.1 4.1-3 7.7-3.9 10.8-4.3-17.2 9.4-13.8 16.3-20.6 21.1-4.1 2.9-8.6 2.6-11-.4z"/><path class="st3" d="M140.2 83.3c-1.1-.3-4.7-3.2-11.5-.9-3.5 1.1-5.4 3.8-5.7 6.4-.2 2.5.5 4.8 2.1 5.9 3 1.9 7.3 1.4 8.1-2.2.8-3.6-3.2-4.8-4-5.1 1.1-1.6 5-1.4 6.5-.3s1.4 3.1 1.5 5c.2.7 2.7.7 3.1.6.1 1.6-.6 3.4-3.2 3.3 0 0-.2 1.5-.1 2.6-.5.7-2.4.9-3 .9-.1.3 0 1.4.5 2.6-1.1.7-5.4.8-6.9-.1-.3.1-.4 1.1-.6 2-5.7.4-6.7-2-6.6-4.1-.3.1-6.3 2.8-6-8 .6-16.9 23.8-13.8 25.8-8.6zM151.2 86.7c14.1-14.5 22.8-7.6 32.4-7.8 11.9-.2 13.6-11.8 6.7-14-4.8-1.5-6.7 2.1-6.8 3.7-.1 2.3 2.1 4.7 4.1 3.4 1.6-1 .9-3.8-.8-4 .8-1 2.6-.9 3.7.4 2.4 2.9-1 9.4-9.4 8-11.5-2-21.3-2.4-30.9 9.4l1 .9zM214.1 92.1c-4.1-5.6-8.2-3.7-12.9-7.7-5.9-5 .9-9.5 1.8-9.2-1.2 1.4-1.2 5 .2 7.2.8 1.3 2.4 2.3 4.2 3.4 5.5 3 5.9 4.8 6.7 6.3zM219.5 102.5c.1-1.5-.4-2.2-1.3-2.5-2.2-.7-5.5 1.4-6.5 2 .8-2.2 4.1-6.1 7.4-4.8 2.8 1 2.1 4.9.4 5.3zM210.7 100.7c1.2-3.3.6-5.6-.9-6.1-1.4-.4-3.4-.3-3.4 1.9-2.8-2.5.3-7 4-5.9 3.5 1 5.3 5.8.3 10.1z"/><path class="st3" d="M210.4 100.8c-2.4 3-7 3.2-11.1.4-6.8-4.7-3.4-11.7-20.5-21.1 3.1.4 6.7 1.3 10.8 4.3 4.1 2.9 7.8 7.2 10.2 11.1 5 7.7 8.5 6.4 10.6 5.3z"/><path class="st3" d="M158.3 83.3c2-5.1 25.3-8.3 25.8 8.5.4 10.8-5.7 8-6 8 0 2.1-1 4.5-6.6 4.1-.2-.9-.3-2-.6-2-1.5.9-5.8.8-6.9.1.5-1.2.6-2.2.5-2.6-.6-.1-2.5-.1-3-.9.2-1-.1-2.6-.1-2.6-2.6.1-3.3-1.7-3.2-3.3.4.2 2.8.1 3.1-.6.1-1.9-.1-3.8 1.5-5 1.5-1.1 5.4-1.3 6.5.3-.8.2-4.7 1.5-4 5.1.7 3.6 5.1 4.1 8.1 2.2 1.6-1 2.4-3.4 2.1-5.9-.2-2.6-2.2-5.2-5.7-6.4-6.8-2.2-10.4.6-11.5 1zM149.4 81.6v.4s-4.2-11-11.8-7c2.5-4 6.8-4.5 9.4-4.3.1-.6-.4-1.4-1-2-.7.4-1.7.3-2.4-.4-.8-.8-.8-2.1 0-2.9.8-.8 2.1-.8 2.9 0 .6.6.7 1.5.4 2.2 1 1 2.1 2.6 2.5 3.4.2-.5 1.5-2.5 2.7-3.6-.3-.7-.2-1.6.5-2.2.8-.8 2.1-.7 2.8.1.7.8.8 2.1 0 2.9-.6.6-1.6.7-2.4.3-.6.6-1.2 1.4-1.1 2 2.6-.2 6.9.4 9.3 4.4-7-3.9-11.3 5.7-11.8 6.7zM147.3 213.3c-14.1 14.5-22.8 7.6-32.4 7.8-11.9.2-13.6 11.8-6.7 14 4.8 1.5 6.7-2.1 6.8-3.7.1-2.3-2.1-4.7-4.1-3.4-1.6 1-.9 3.8.8 4-.8 1-2.6.9-3.7-.4-2.4-2.9 1-9.4 9.4-7.9 11.5 2 21.3 2.4 30.9-9.4l-1-1zM84.4 207.9c4.1 5.6 8.3 3.7 12.9 7.7 5.9 5-.9 9.5-1.8 9.2 1.2-1.4 1.2-5-.2-7.2-.8-1.4-2.4-2.4-4.2-3.4-5.5-3-5.9-4.8-6.7-6.3zM79 197.5c-.1 1.5.4 2.2 1.3 2.5 2.2.7 5.5-1.4 6.5-2-.8 2.2-4.2 6.1-7.4 4.8-2.8-1-2.1-4.9-.4-5.3zM87.8 199.3c-1.2 3.3-.7 5.6.9 6.1 1.4.4 3.4.3 3.4-1.9 2.8 2.5-.3 7-4 5.9-3.5-1-5.3-5.8-.3-10.1z"/><path class="st3" d="M88.1 199.2c2.4-3 7-3.2 11-.4 6.8 4.7 3.4 11.7 20.5 21.1-3.1-.4-6.7-1.3-10.8-4.3-4-2.9-7.7-7.3-10.2-11.1-4.9-7.7-8.3-6.4-10.5-5.3z"/><path class="st3" d="M140.2 216.7c-2 5.1-25.2 8.3-25.7-8.5-.4-10.8 5.7-8 6-8 0-2.1 1-4.5 6.6-4.1.2.9.3 2 .6 2 1.5-.9 5.8-.8 6.9-.1-.5 1.2-.6 2.2-.5 2.6.6 0 2.5.1 3 .9-.1 1 .1 2.6.1 2.6 2.6-.1 3.3 1.7 3.2 3.3-.4-.2-2.9-.1-3.1.6-.1 1.9.1 3.8-1.5 5-1.6 1.1-5.4 1.3-6.5-.3.8-.2 4.7-1.5 4-5.1s-5.1-4.1-8.1-2.2c-1.7 1-2.4 3.4-2.1 5.9.2 2.6 2.2 5.2 5.7 6.4 6.7 2.2 10.3-.6 11.4-1zM151.2 213.3l-1.1.8c9.7 11.8 19.4 11.4 30.9 9.4 8.5-1.5 11.8 5.1 9.4 8-1.1 1.3-2.8 1.4-3.7.4 1.7-.1 2.4-3 .8-4-2.1-1.3-4.2 1.1-4.1 3.4.1 1.6 2 5.2 6.8 3.7 6.9-2.2 5.2-13.7-6.7-14-9.5 0-18.1 6.9-32.3-7.7zM214.1 207.9c-.8 1.4-1.1 3.3-6.6 6.3-1.9 1.1-3.4 2.1-4.2 3.4-1.4 2.2-1.4 5.8-.2 7.2-.9.2-7.7-4.2-1.8-9.2 4.5-4 8.7-2.1 12.8-7.7zM219.5 197.5c1.7.4 2.5 4.2-.3 5.3-3.3 1.3-6.7-2.6-7.4-4.8 1 .6 4.3 2.7 6.5 2 .8-.3 1.3-1 1.2-2.5zM210.7 199.3c5 4.3 3.1 9.1-.3 10.2-3.7 1.1-6.8-3.4-4-5.9 0 2.2 2.1 2.3 3.4 1.9 1.6-.6 2.1-2.9.9-6.2z"/><path class="st3" d="M210.4 199.2c-2.2-1.1-5.7-2.4-10.6 5.3-2.4 3.9-6.1 8.2-10.2 11.1-4.1 3-7.7 3.9-10.8 4.3 17.1-9.4 13.7-16.3 20.5-21.1 4.2-2.9 8.8-2.6 11.1.4z"/><path class="st3" d="M158.3 216.7c1 .3 4.7 3.2 11.5.9 3.5-1.1 5.4-3.8 5.7-6.4.2-2.5-.5-4.8-2.1-5.9-3-1.9-7.3-1.4-8.1 2.2-.7 3.6 3.2 4.8 4 5.1-1.1 1.6-5 1.5-6.5.3-1.5-1.1-1.4-3.1-1.5-5-.2-.7-2.7-.7-3.1-.6-.1-1.6.6-3.4 3.2-3.3 0 0 .2-1.5.1-2.6.5-.7 2.4-.8 3-.9.1-.3 0-1.4-.5-2.6 1.1-.7 5.4-.8 6.9.1.3-.1.4-1.1.6-2 5.7-.4 6.7 2 6.6 4.1.3-.1 6.3-2.8 6 8-.5 16.9-23.8 13.8-25.8 8.6zM149.4 218.4c.4 1 4.7 10.6 11.8 6.7-2.4 4-6.7 4.6-9.3 4.4-.1.6.5 1.4 1.1 2 .8-.4 1.7-.3 2.4.3.8.8.8 2.1 0 2.9-.8.8-2.1.9-2.8.1-.6-.6-.8-1.5-.5-2.2-1.2-1.1-2.5-3.1-2.7-3.6-.4.8-1.5 2.4-2.5 3.4.3.7.2 1.6-.4 2.2-.8.8-2.1.8-2.9 0-.8-.8-.8-2.1 0-2.9.6-.6 1.6-.7 2.4-.4.6-.6 1.2-1.4 1-2-2.6.2-6.9-.3-9.4-4.3 7.6 4 11.8-7 11.8-7v.4z"/></svg>