<svg id="hotel" xmlns="http://www.w3.org/2000/svg" viewBox="0 0 300 300"><style>.hotel0{fill:#fff}.hotel1{fill:#671700}.hotel2{fill:#c9a468}.hotel3{fill:#e9dfd1}</style><path class="hotel0" d="M0 0h300v300H0z"/><path class="hotel1" d="M92.7 136.4c.7.1 1.3.3 1.9.5v.6h-5.5v-.6c.5-.2 1.1-.4 1.6-.5v-11.9c-.3-.1-.5-.1-.8-.2s-.6-.2-.8-.3v-.6h9.4v2c0 .4 0 .7-.1 1.1 0 .4-.1.7-.1 1h-.5l-1-3h-4l-.1 11.9zM99.8 130.5c0-1 .1-2 .4-2.9s.7-1.7 1.2-2.3c.5-.6 1.2-1.1 2-1.5s1.7-.5 2.7-.5 1.9.2 2.7.5c.8.4 1.4.9 2 1.5.5.6 1 1.4 1.2 2.3.3.9.4 1.9.4 2.9s-.1 2-.4 2.9c-.3.9-.7 1.7-1.2 2.3s-1.2 1.1-2 1.5-1.7.5-2.7.5-1.9-.2-2.7-.5c-.8-.4-1.5-.9-2-1.5s-1-1.4-1.2-2.3c-.3-.9-.4-1.9-.4-2.9zm2.1 0c0 .9.1 1.7.3 2.4.2.8.4 1.4.8 2s.8 1 1.4 1.3c.5.3 1.2.5 1.9.5s1.3-.2 1.8-.5.9-.8 1.3-1.3.6-1.2.7-2c.2-.8.3-1.6.3-2.4 0-.9-.1-1.7-.3-2.4-.2-.8-.4-1.4-.8-2s-.8-1-1.4-1.3c-.5-.3-1.2-.5-1.9-.5s-1.4.2-1.9.5-.9.8-1.3 1.3c-.3.6-.6 1.2-.7 2-.1.7-.2 1.5-.2 2.4zM124.5 133.8h.5c.1.4.1.8.2 1.4.1.6.1 1.1 0 1.6-.2.2-.4.3-.7.4l-.9.3c-.3.1-.6.1-1 .1h-.9c-1.1 0-2.1-.1-3-.4-.9-.3-1.6-.7-2.2-1.3s-1.1-1.3-1.4-2.3c-.3-.9-.5-2-.5-3.3s.2-2.4.5-3.3c.4-.9.8-1.7 1.5-2.2.6-.6 1.3-1 2.1-1.3.8-.3 1.7-.4 2.6-.4s1.6.1 2.2.2 1.1.3 1.6.5v.8c0 .3 0 .6-.1.9 0 .3-.1.6-.1.9s-.1.6-.1.8h-.5l-1-2.9c-.1-.1-.4-.1-.7-.2h-1c-.7 0-1.3.1-1.9.4-.6.2-1.1.6-1.6 1.1s-.8 1.2-1.1 1.9c-.3.8-.4 1.7-.4 2.8 0 .9.1 1.8.4 2.6.2.8.6 1.4 1 2 .5.5 1 1 1.7 1.2.7.3 1.4.4 2.2.4.4 0 .8 0 1.1-.1.3-.1.5-.2.6-.3l.9-2.3zM134.9 137.5h-5.6v-.6l.9-.3c.3-.1.6-.1 1-.2v-11.9h-3.1l-1.1 2.9h-.5c0-.3-.1-.6-.1-.9s0-.7-.1-1c0-.4 0-.7-.1-1v-.9h11.6v.9c0 .3 0 .7-.1 1 0 .4 0 .7-.1 1 0 .3-.1.6-.1.9h-.5l-1.1-2.9h-3v11.9c.3.1.7.1 1 .2l.9.3.1.6zM143.9 137.5h-5.1v-.6c.5-.2 1.1-.4 1.6-.5v-11.9c-.3-.1-.5-.1-.8-.2s-.6-.2-.8-.3v-.6h5.1v.6c-.2.1-.4.2-.7.3-.2.1-.5.2-.8.2v8.7l-.2 1.5 1-1.6 5.9-8.1v-.5c-.3-.1-.6-.1-.9-.2-.3-.1-.5-.2-.8-.3v-.6h5.1v.6c-.2.1-.5.2-.8.3-.3.1-.6.2-.9.2v11.9c.6.1 1.2.3 1.6.5v.6h-5.1v-.6c.2-.1.4-.2.7-.3s.5-.2.8-.2v-8.7l.2-1.5-.9 1.5-5.9 8.2v.4c.3.1.6.1.9.2.3.1.5.2.8.3v.7zM158.7 137.5h-5.1v-.6c.5-.2 1.1-.4 1.6-.5v-11.9c-.6-.1-1.2-.3-1.6-.5v-.6h5.1v.6c-.2.1-.5.2-.7.3-.2.1-.5.1-.8.2v5.2h6.3v-5.2c-.3-.1-.5-.1-.8-.2s-.5-.2-.7-.3v-.6h5.1v.6c-.2.1-.5.2-.8.3-.3.1-.6.1-.9.2v11.9c.3.1.6.1.9.2.3.1.5.2.8.3v.6H162v-.6c.5-.2 1-.4 1.5-.5v-5.6h-6.3v5.6c.3.1.5.1.8.2s.5.2.7.3v.6zM173.3 137.5h-5.1v-.6c.5-.2 1.1-.4 1.6-.5v-11.9c-.3-.1-.5-.1-.8-.2s-.6-.2-.8-.3v-.6h5.1v.6c-.2.1-.4.2-.7.3-.3.1-.5.2-.8.2v8.7l-.2 1.5 1-1.6 5.9-8.1v-.5c-.3-.1-.6-.1-.9-.2-.3-.1-.5-.2-.8-.3v-.6h5.1v.6c-.2.1-.5.2-.8.3-.3.1-.6.2-.9.2v11.9c.6.1 1.2.3 1.6.5v.6h-5.1v-.6c.2-.1.4-.2.7-.3s.5-.2.8-.2v-8.7l.2-1.5-.9 1.5-5.9 8.2v.4c.3.1.6.1.9.2.3.1.5.2.8.3v.7zM183 137.5v-.6c.4-.2.9-.3 1.6-.5v-11.9c-.5-.1-1.1-.2-1.6-.5v-.6h5.1v.6c-.4.2-.9.3-1.5.5v11.9h6v-11.9c-.2-.1-.5-.1-.7-.2s-.5-.2-.8-.3v-.6h5.1v.6c-.5.2-1.1.4-1.6.5v11.9h2.3v.9c0 .4-.1.7-.1 1.1s-.1.7-.1 1.1c0 .4-.1.7-.2.9h-.5l-.9-3-12.1.1zM201.5 137.5h-4.4v-.6c.5-.2 1-.4 1.4-.5l5.1-13.2h.6l5.1 13.2c.3.1.5.1.8.2s.5.2.7.3v.6h-5.2v-.6c.3-.1.5-.2.8-.3s.6-.1.8-.2l-1.4-3.7H201l-1.3 3.7c.6.1 1.1.2 1.7.5l.1.6zm0-5.8h4l-1.6-4.2-.4-1.7-.5 1.8-1.5 4.1z"/><path class="hotel2" d="M64.7 175.9v-.6h1.2l6.2-23.2 6.4 20.9c.2.7.4 1.2.4 1.3.3.7.9 1 1.6 1v.6h-5v-.6h2l-4.2-14.1h-3.1l-2.7 11.1c-.1.2-.1.4-.2.7 0 .3-.1.5-.1.7 0 .6.2 1 .7 1.2.5.2 1.3.3 2.4.3v.6h-5.6zm5.8-15.3h2.7l-1.5-4.9-1.2 4.9zM87.3 154.1h-1.6c-.7 0-1.3.1-1.8.2s-.8.3-1 .7c-.2.3-.4.8-.5 1.4-.1.6-.2 1.2-.2 1.8l.1 2.7h-.5V152h.5v1.6H94V152h.5v8.9H94v-3.3c0-1.5-.3-2.4-.9-2.8-.6-.4-1.9-.6-4.1-.6V173c0 1.1.2 1.8.5 2.1.4.3 1.2.4 2.6.4v.6h-7.7v-.6h2.8v-21.4zM95.3 175.9v-.6h1.2l6.2-23.2 6.4 20.9c.2.7.4 1.2.4 1.3.3.7.9 1 1.6 1v.6h-5v-.6h2l-4.2-14.1h-3.1l-2.7 11.1c-.1.2-.1.4-.2.7 0 .3-.1.5-.1.7 0 .6.2 1 .7 1.2.5.2 1.3.3 2.4.3v.6h-5.6zm5.8-15.3h2.7l-1.5-4.9-1.2 4.9zM115 172v.6c0 1.1.1 1.8.4 2.1s1 .5 2.1.5v.6h-5.2v-.6h1.9v-19c0-.9-.1-1.5-.2-1.7-.2-.3-.8-.5-1.7-.5v-.5h3.1l5.3 12.6 4.8-12.6h3.4v.5H127v19.2c0 .7.1 1.2.3 1.5.2.3.7.5 1.4.5h.2v.6h-5.5v-.6h1.9v-19.4l-5 13.2-5.4-12.6V172zM129.5 175.9v-.6h1.2l6.2-23.2 6.4 20.9c.2.7.4 1.2.4 1.3.3.7.9 1 1.6 1v.6h-5v-.6h2l-4.2-14.1H135l-2.7 11.1c-.1.2-.1.4-.2.7 0 .3-.1.5-.1.7 0 .6.2 1 .7 1.2.5.2 1.3.3 2.4.3v.6h-5.6zm5.8-15.3h2.7l-1.5-4.9-1.2 4.9zM159 172.1v1.2c0 .7.1 1.2.4 1.6s.8.5 1.6.5v.6h-5.5v-.6h2v-14.3h-7.3v11.5c0 1.2.1 1.9.4 2.3.3.4 1 .5 2.1.5v.6h-6.1v-.6h1.9v-19.3c0-.7-.1-1.2-.4-1.4-.2-.2-.8-.4-1.6-.4v-.6h5.6v.6h-2v6.2h7.3v-4c0-.9-.1-1.5-.2-1.7-.2-.3-.8-.5-1.7-.5v-.6h5.5v.6h-2v17.8zM181.2 173.5c-1 1-2.1 1.7-3.3 2.1-1.2.5-2.5.7-3.8.7-2.6 0-4.9-.8-7-2.4-2.2-1.7-3.5-3.9-4.1-6.6-.1-.4-.2-.9-.2-1.3-.1-.5-.1-.9-.1-1.3 0-3.3 1.1-6 3.4-8.2 2.3-2.1 5.1-3.2 8.3-3.2 1.6 0 3.2.3 4.9.9V152h.5v8.6h-.5v-2c0-.6 0-1.2-.1-1.6-.1-.5-.3-.9-.5-1.3-.4-.5-1-.9-1.7-1.2-.8-.3-1.5-.4-2.3-.4h-.4c-2.5 0-4.8.9-6.8 2.8s-3 4-3 6.5v1c0 3.2 1.1 5.9 3.2 8.2 2.1 2.1 4.4 3.2 7.1 3.2 1.1 0 2.2-.2 3.3-.6 1-.4 2-1 2.8-1.9l.3.2zM185.9 164.5v8c0 1.2.1 1.9.4 2.3.3.4 1 .5 2.1.5v.6h-6.1v-.6h1.9v-19.4c0-.7-.1-1.2-.4-1.4-.2-.2-.8-.4-1.6-.4v-.5h5.6v.5h-2v9.3l6.8-9.3h-2.1v-.5h5.6v.5h-2.3l-5.5 7.3 6.3 11.6c.5 1 .8 1.5.8 1.5.4.5 1.1.8 2.3.8v.6h-3.4l-7-13-1.4 1.6zM198.1 175.9v-.6h1.2l6.2-23.2 6.4 20.9c.2.7.4 1.2.4 1.3.3.7.9 1 1.6 1v.6h-5v-.6h2l-4.2-14.1h-3.1l-2.7 11.1c-.1.2-.1.4-.2.7 0 .3-.1.5-.1.7 0 .6.2 1 .7 1.2.5.2 1.3.3 2.4.3v.6h-5.6zm5.8-15.3h2.7l-1.5-4.9-1.2 4.9zM232.4 154.9v-1.3h3.6v.6c-.7 0-1.3.1-1.5.4-.3.3-.4.7-.4 1.4v19.3h2v.5h-6.5v-.6l.8.1c.4 0 .7-.1 1.1-.2.4-.1.6-.3.7-.6.1-.3.2-.6.2-1V170c-1.8 1.2-3.8 2.4-5.9 3.4-2.5 1.3-4.6 2.1-6.3 2.4-.1 0-.4.1-.9.1s-.8.1-1.2.1c-.9 0-1.9-.2-3-.6l.1-.5c.9.3 1.6.4 2.2.4.9 0 1.9-.2 3-.7.3-.1 1.3-.6 3-1.5l4.1-2c-.3.1-.7.1-1.1.1-.4 0-.7.1-.9.1-2.5 0-4.7-.9-6.6-2.6-1.8-1.7-2.8-3.9-2.8-6.6v-.1c0-2.2.7-4.1 2-5.8 1.3-1.7 3.1-2.7 5.3-3 .9-.1 1.7-.2 2.4-.2 1.1 0 2.2.1 3.2.4s2.3.9 3.4 1.5zm0 1.4c-.8-.7-1.7-1.3-2.7-1.7-1-.4-2.1-.6-3.2-.6-2.3 0-4.3.7-6 2.2-1.8 1.6-2.8 3.6-2.8 6.1 0 2.6.8 4.7 2.4 6.4 1.5 1.6 3.4 2.4 5.6 2.4 2.1 0 4.1-.7 5.9-2.2l.8.8v-13.4z"/><path class="hotel3" d="M147.3 90.8l1.1-.9c-9.7-11.8-19.4-11.4-31-9.4-8.5 1.5-11.8-5.1-9.4-7.9 1.1-1.3 2.8-1.4 3.7-.4-1.7.1-2.4 3-.8 4 2.1 1.3 4.2-1.1 4.1-3.4-.1-1.6-2-5.2-6.8-3.7-6.9 2.2-5.2 13.7 6.7 14 9.6 0 18.3-6.9 32.4 7.7zM84.4 96.2c.8-1.4 1.1-3.3 6.6-6.3 1.9-1 3.5-2 4.2-3.4 1.4-2.2 1.4-5.8.2-7.2.9-.2 7.7 4.2 1.8 9.2-4.5 3.9-8.7 2.1-12.8 7.7zM79 106.6c-1.7-.3-2.4-4.2.4-5.3 3.3-1.3 6.7 2.6 7.4 4.8-1-.6-4.3-2.7-6.5-2-.9.2-1.4 1-1.3 2.5zM87.8 104.8c-5-4.3-3.2-9.1.3-10.1 3.7-1.1 6.8 3.4 4 5.9 0-2.2-2-2.3-3.4-1.9-1.6.5-2.1 2.8-.9 6.1z"/><path class="hotel3" d="M88.1 104.9c2.2 1.1 5.7 2.4 10.6-5.3 2.5-3.8 6.2-8.2 10.2-11.1 4.1-3 7.7-3.9 10.8-4.3-17.2 9.4-13.8 16.3-20.6 21.1-4.1 2.9-8.6 2.6-11-.4z"/><path class="hotel3" d="M140.2 87.4c-1.1-.3-4.7-3.2-11.5-.9-3.5 1.1-5.4 3.8-5.7 6.4-.2 2.5.5 4.8 2.1 5.9 3 1.9 7.3 1.4 8.1-2.2s-3.2-4.8-4-5.1c1.1-1.6 5-1.4 6.5-.3s1.4 3.1 1.5 5c.2.7 2.7.7 3.1.6.1 1.6-.6 3.4-3.2 3.3 0 0-.2 1.5-.1 2.6-.5.7-2.4.9-3 .9-.1.3 0 1.4.5 2.6-1.1.7-5.4.8-6.9-.1-.3.1-.4 1.1-.6 2-5.7.4-6.7-2-6.6-4.1-.3.1-6.3 2.8-6-8 .6-16.9 23.8-13.8 25.8-8.6zM151.2 90.8c14.1-14.5 22.8-7.6 32.4-7.8 11.9-.2 13.6-11.8 6.7-14-4.8-1.5-6.7 2.1-6.8 3.7-.1 2.3 2.1 4.7 4.1 3.4 1.6-1 .9-3.8-.8-4 .8-1 2.6-.9 3.7.4 2.4 2.9-1 9.4-9.4 8-11.5-2-21.3-2.4-30.9 9.4l1 .9zM214.1 96.2c-4.1-5.6-8.2-3.7-12.9-7.7-5.9-5 .9-9.5 1.8-9.2-1.2 1.4-1.2 5 .2 7.2.8 1.3 2.4 2.3 4.2 3.4 5.5 3 5.9 4.8 6.7 6.3zM219.5 106.6c.1-1.5-.4-2.2-1.3-2.5-2.2-.7-5.5 1.4-6.5 2 .8-2.2 4.1-6.1 7.4-4.8 2.8 1 2.1 4.9.4 5.3zM210.7 104.8c1.2-3.3.6-5.6-.9-6.1-1.4-.4-3.4-.3-3.4 1.9-2.8-2.5.3-7 4-5.9 3.5 1 5.3 5.8.3 10.1z"/><path class="hotel3" d="M210.4 104.9c-2.4 3-7 3.2-11.1.4-6.8-4.7-3.4-11.7-20.5-21.1 3.1.4 6.7 1.3 10.8 4.3 4.1 2.9 7.8 7.2 10.2 11.1 5 7.7 8.5 6.4 10.6 5.3z"/><path class="hotel3" d="M158.3 87.4c2-5.1 25.3-8.3 25.8 8.5.4 10.8-5.7 8-6 8 0 2.1-1 4.5-6.6 4.1-.2-.9-.3-2-.6-2-1.5.9-5.8.8-6.9.1.5-1.2.6-2.2.5-2.6-.6-.1-2.5-.1-3-.9.2-1-.1-2.6-.1-2.6-2.6.1-3.3-1.7-3.2-3.3.4.2 2.8.1 3.1-.6.1-1.9-.1-3.8 1.5-5 1.5-1.1 5.4-1.3 6.5.3-.8.2-4.7 1.5-4 5.1s5.1 4.1 8.1 2.2c1.6-1 2.4-3.4 2.1-5.9-.2-2.6-2.2-5.2-5.7-6.4-6.8-2.2-10.4.6-11.5 1zM149.4 85.7v.4s-4.2-11-11.8-7c2.5-4 6.8-4.5 9.4-4.3.1-.6-.4-1.4-1-2-.7.4-1.7.3-2.4-.4-.8-.8-.8-2.1 0-2.9s2.1-.8 2.9 0c.6.6.7 1.5.4 2.2 1 1 2.1 2.6 2.5 3.4.2-.5 1.5-2.5 2.7-3.6-.3-.7-.2-1.6.5-2.2.8-.8 2.1-.7 2.8.1.7.8.8 2.1 0 2.9-.6.6-1.6.7-2.4.3-.6.6-1.2 1.4-1.1 2 2.6-.2 6.9.4 9.3 4.4-7-3.9-11.3 5.7-11.8 6.7zM147.4 208.2c-14.1 14.5-22.8 7.6-32.4 7.8-11.9.2-13.6 11.8-6.7 14 4.8 1.5 6.7-2.1 6.8-3.7.1-2.3-2.1-4.7-4.1-3.4-1.6 1-.9 3.8.8 4-.8 1-2.6.9-3.7-.4-2.4-2.9 1-9.4 9.4-7.9 11.5 2 21.3 2.4 30.9-9.4l-1-1zM84.5 202.8c4.1 5.6 8.3 3.7 12.9 7.7 5.9 5-.9 9.5-1.8 9.2 1.2-1.4 1.2-5-.2-7.2-.8-1.4-2.4-2.4-4.2-3.4-5.5-3-5.9-4.8-6.7-6.3zM79.1 192.4c-.1 1.5.4 2.2 1.3 2.5 2.2.7 5.5-1.4 6.5-2-.8 2.2-4.2 6.1-7.4 4.8-2.8-1-2.1-4.9-.4-5.3zM87.9 194.2c-1.2 3.3-.7 5.6.9 6.1 1.4.4 3.4.3 3.4-1.9 2.8 2.5-.3 7-4 5.9-3.5-1-5.3-5.8-.3-10.1z"/><path class="hotel3" d="M88.2 194.1c2.4-3 7-3.2 11-.4 6.8 4.7 3.4 11.7 20.5 21.1-3.1-.4-6.7-1.3-10.8-4.3-4-2.9-7.7-7.3-10.2-11.1-4.9-7.7-8.3-6.4-10.5-5.3z"/><path class="hotel3" d="M140.3 211.6c-2 5.1-25.2 8.3-25.7-8.5-.4-10.8 5.7-8 6-8 0-2.1 1-4.5 6.6-4.1.2.9.3 2 .6 2 1.5-.9 5.8-.8 6.9-.1-.5 1.2-.6 2.2-.5 2.6.6 0 2.5.1 3 .9-.1 1 .1 2.6.1 2.6 2.6-.1 3.3 1.7 3.2 3.3-.4-.2-2.9-.1-3.1.6-.1 1.9.1 3.8-1.5 5-1.6 1.1-5.4 1.3-6.5-.3.8-.2 4.7-1.5 4-5.1s-5.1-4.1-8.1-2.2c-1.7 1-2.4 3.4-2.1 5.9.2 2.6 2.2 5.2 5.7 6.4 6.7 2.2 10.3-.6 11.4-1zM151.3 208.2l-1.1.8c9.7 11.8 19.4 11.4 30.9 9.4 8.5-1.5 11.8 5.1 9.4 8-1.1 1.3-2.8 1.4-3.7.4 1.7-.1 2.4-3 .8-4-2.1-1.3-4.2 1.1-4.1 3.4.1 1.6 2 5.2 6.8 3.7 6.9-2.2 5.2-13.7-6.7-14-9.5 0-18.1 6.9-32.3-7.7zM214.2 202.8c-.8 1.4-1.1 3.3-6.6 6.3-1.9 1.1-3.4 2.1-4.2 3.4-1.4 2.2-1.4 5.8-.2 7.2-.9.2-7.7-4.2-1.8-9.2 4.5-4 8.7-2.1 12.8-7.7zM219.6 192.4c1.7.4 2.5 4.2-.3 5.3-3.3 1.3-6.7-2.6-7.4-4.8 1 .6 4.3 2.7 6.5 2 .8-.3 1.3-1 1.2-2.5zM210.8 194.2c5 4.3 3.1 9.1-.3 10.2-3.7 1.1-6.8-3.4-4-5.9 0 2.2 2.1 2.3 3.4 1.9 1.6-.6 2.1-2.9.9-6.2z"/><path class="hotel3" d="M210.5 194.1c-2.2-1.1-5.7-2.4-10.6 5.3-2.4 3.9-6.1 8.2-10.2 11.1-4.1 3-7.7 3.9-10.8 4.3 17.1-9.4 13.7-16.3 20.5-21.1 4.2-2.9 8.8-2.6 11.1.4z"/><path class="hotel3" d="M158.4 211.6c1 .3 4.7 3.2 11.5.9 3.5-1.1 5.4-3.8 5.7-6.4.2-2.5-.5-4.8-2.1-5.9-3-1.9-7.3-1.4-8.1 2.2-.7 3.6 3.2 4.8 4 5.1-1.1 1.6-5 1.5-6.5.3-1.5-1.1-1.4-3.1-1.5-5-.2-.7-2.7-.7-3.1-.6-.1-1.6.6-3.4 3.2-3.3 0 0 .2-1.5.1-2.6.5-.7 2.4-.8 3-.9.1-.3 0-1.4-.5-2.6 1.1-.7 5.4-.8 6.9.1.3-.1.4-1.1.6-2 5.7-.4 6.7 2 6.6 4.1.3-.1 6.3-2.8 6 8-.5 16.9-23.8 13.8-25.8 8.6zM149.5 213.3c.4 1 4.7 10.6 11.8 6.7-2.4 4-6.7 4.6-9.3 4.4-.1.6.5 1.4 1.1 2 .8-.4 1.7-.3 2.4.3.8.8.8 2.1 0 2.9-.8.8-2.1.9-2.8.1-.6-.6-.8-1.5-.5-2.2-1.2-1.1-2.5-3.1-2.7-3.6-.4.8-1.5 2.4-2.5 3.4.3.7.2 1.6-.4 2.2-.8.8-2.1.8-2.9 0-.8-.8-.8-2.1 0-2.9.6-.6 1.6-.7 2.4-.4.6-.6 1.2-1.4 1-2-2.6.2-6.9-.3-9.4-4.3 7.6 4 11.8-7 11.8-7v.4z"/></svg>