<svg id="Capa_1" xmlns="http://www.w3.org/2000/svg" viewBox="0 0 512 512"><style>.inst{fill:#671700}</style><path class="inst" d="M256 307.2c28.2 0 51.3-23 51.3-51.2 0-11.2-3.7-21.5-9.7-29.9-9.3-12.9-24.4-21.4-41.5-21.4s-32.2 8.5-41.6 21.4c-6.1 8.4-9.7 18.7-9.7 29.9-.1 28.3 22.9 51.2 51.2 51.2zM367.9 193.3V144h-6.4l-43 .1.2 49.4z"/><path class="inst" d="M256 0C114.8 0 0 114.8 0 256c0 141.1 114.8 256 256 256 141.1 0 256-114.9 256-256C512 114.8 397.2 0 256 0zm145.6 226.1v119.2c0 31-25.2 56.3-56.3 56.3H166.7c-31 0-56.3-25.2-56.3-56.3V166.7c0-31 25.2-56.3 56.3-56.3h178.6c31 0 56.3 25.2 56.3 56.3v59.4z"/><path class="inst" d="M335.6 256c0 43.9-35.7 79.6-79.6 79.6s-79.6-35.7-79.6-79.6c0-10.6 2.1-20.7 5.9-29.9h-43.5v119.2c0 15.4 12.5 27.9 27.9 27.9h178.6c15.4 0 27.9-12.5 27.9-27.9V226.1h-43.5c3.8 9.2 5.9 19.3 5.9 29.9z"/></svg>