<svg id="logo" xmlns="http://www.w3.org/2000/svg" viewBox="0 0 270.5 178.3"><style>.st0{fill:#fff}.st1{fill:none;stroke:#e9dfd1;stroke-width:3;stroke-miterlimit:10}.st2{fill:#fffdfd}.st3{fill:#671700}</style><path class="st0" d="M11.4 0h247.7v87.9H11.4z"/><path class="st0" d="M270.5 87.8c-21.9 53.1-74.2 90.5-135.2 90.5-61 0-113.3-37.4-135.2-90.5"/><path class="st1" d="M263.1 75.4c-18 53.3-68.5 91.8-127.9 91.8-59.4 0-109.9-38.4-127.9-91.7"/><path class="st2" d="M8.7 75l.8 2.2.9 2.4 1 2.7 2.2-5.4.4-1.9zM261.7 74.9l-.8 2.2-.9 2.4-1 2.7-2.2-5.4-.4-1.9z"/><path class="st3" d="M205.7 111.1h-49.9v-1.3h48.7c.3-7.9 6.6-14.2 14.5-14.6v-16c-7.2-.6-12.9-6.2-13.8-13.5H65.7c-.8 7.4-6.9 13.2-14.4 13.5v16.1c7.8.3 14.1 6.7 14.5 14.6h48.7v1.3H64.6v-.6c0-7.7-6.2-13.9-13.8-13.9h-.6V78.2h.6c7.2 0 13.3-5.7 13.8-12.9l.1-.6h141.8l.1.6c.5 7.1 6.2 12.6 13.2 12.9h.6v18.5h-.6c-7.6 0-13.8 6.3-13.8 13.9v.5h-.3z"/><path class="st3" d="M203.3 108.6h-47.6v-.4H203c1-7.5 6.8-13.4 14.3-14.4V80.7c-6.8-1.2-12.1-6.5-13.5-13.3H67.1c-1.4 7-7 12.4-14.1 13.4v13c7.4 1 13.3 6.9 14.3 14.4h47.2v.4H67v-.2c-1-7.4-6.8-13.2-14.2-14.2h-.2V80.5h.2c7-.9 12.7-6.2 14-13.2l.1-.2h137.4l.1.2c1.2 6.8 6.7 12 13.4 13.1l.2.1v13.8h-.2c-7.4.9-13.2 6.8-14.1 14.2l-.4.1z"/><path class="st3" d="M202.3 69.8c0-.1-.1-.2-.1-.3h-.3v-.4h.5l.1.2c.1.1.1.3.1.4l-.3.1zM200.7 69.6h-.8v-.4h.8v.4zm-2.1 0h-.8v-.4h.8v.4zm-2 0h-.8v-.4h.8v.4zm-2.1 0h-.8v-.4h.8v.4zm-2.1 0h-.8v-.4h.8v.4zm-2 0h-.8v-.4h.8v.4zm-2.1 0h-.8v-.4h.8v.4zm-2 0h-.8v-.4h.8v.4zm-2.1 0h-.8v-.4h.8v.4zm-2 0h-.8v-.4h.8v.4zm-2.1 0h-.8v-.4h.8v.4zm-2.1 0h-.8v-.4h.8v.4zm-2 0h-.8v-.4h.8v.4zm-2.1 0h-.8v-.4h.8v.4zm-2 0h-.8v-.4h.8v.4zm-2.1 0h-.8v-.4h.8v.4zm-2 0h-.8v-.4h.8v.4zm-2.1 0h-.8v-.4h.8v.4zm-2.1 0h-.8v-.4h.8v.4zm-2 0h-.8v-.4h.8v.4zm-2.1 0h-.8v-.4h.8v.4zm-2 0h-.8v-.4h.8v.4zm-2.1 0h-.8v-.4h.8v.4zm-2.1 0h-.8v-.4h.8v.4zm-2 0h-.8v-.4h.8v.4zm-2.1 0h-.8v-.4h.8v.4zm-2 0h-.8v-.4h.8v.4zm-2.1 0h-.8v-.4h.8v.4zm-2 0h-.8v-.4h.8v.4zm-2.1 0h-.8v-.4h.8v.4zm-2.1 0h-.8v-.4h.8v.4zm-2 0h-.8v-.4h.8v.4zm-2.1 0h-.8v-.4h.8v.4zm-2 0h-.8v-.4h.8v.4zm-2.1 0h-.8v-.4h.8v.4zm-2.1 0h-.8v-.4h.8v.4zm-2 0h-.8v-.4h.8v.4zm-2.1 0h-.8v-.4h.8v.4zm-2 0h-.8v-.4h.8v.4zm-2.1 0h-.8v-.4h.8v.4zm-2 0h-.8v-.4h.8v.4zm-2.1 0h-.8v-.4h.8v.4zm-2.1 0h-.8v-.4h.8v.4zm-2 0h-.8v-.4h.8v.4zm-2.1 0h-.8v-.4h.8v.4zm-2 0h-.8v-.4h.8v.4zm-2.1 0h-.8v-.4h.8v.4zm-2.1 0h-.8v-.4h.8v.4zm-2 0h-.8v-.4h.8v.4zm-2.1 0H99v-.4h.8v.4zm-2 0H97v-.4h.8v.4zm-2.1 0h-.8v-.4h.8v.4zm-2 0h-.8v-.4h.8v.4zm-2.1 0h-.8v-.4h.8v.4zm-2.1 0h-.8v-.4h.8v.4zm-2 0h-.8v-.4h.8v.4zm-2.1 0h-.8v-.4h.8v.4zm-2 0h-.8v-.4h.8v.4zm-2.1 0h-.8v-.4h.8v.4zm-2.1 0h-.8v-.4h.8v.4zm-2 0h-.8v-.4h.8v.4zm-2.1 0h-.8v-.4h.8v.4zm-2 0h-.8v-.4h.8v.4zm-2.1 0h-.8v-.4h.8v.4zM68.6 69.8l-.4-.1c.1-.1.1-.3.1-.4l.1-.2h.6v.4h-.3c0 .1-.1.3-.1.3zM56.4 82.2l-.1-.4c.3-.1.5-.2.8-.3l.2.4c-.4.1-.6.2-.9.3zm1.9-.7l-.2-.4c.2-.1.5-.2.7-.3l.2.4c-.2.1-.4.2-.7.3zm1.8-.9l-.2-.4c.2-.1.4-.3.6-.4l.2.3c-.1.2-.4.3-.6.5zm1.7-1.1l-.2-.3c.2-.2.4-.3.6-.5l.3.3c-.3.1-.5.3-.7.5zm1.5-1.3l-.3-.3.5-.5.3.3-.5.5zm1.4-1.4l-.3-.3c.2-.2.3-.4.5-.6l.3.3c-.1.2-.3.4-.5.6zm1.3-1.6l-.3-.2c.2-.2.3-.4.4-.7l.3.2c-.1.3-.3.5-.4.7zm1-1.7l-.4-.2c.1-.2.3-.4.4-.7l.4.2c-.1.2-.2.5-.4.7zm.9-1.8l-.4-.2c.1-.2.2-.5.3-.7l.4.2c-.1.2-.2.5-.3.7zM55 82.8h-.4v-.6l.2-.1c.1-.1.3-.1.4-.1l.1.4c-.1 0-.2.1-.3.1v.3zM55 90.7h-.4v-.8h.4v.8zm0-2h-.4V88h.4v.7zm0-1.9h-.4V86h.4v.8zm0-2h-.4V84h.4v.8zM55.2 92.6c-.1-.1-.3-.1-.4-.1l-.2-.1v-.6h.4v.3c.1 0 .2.1.3.1l-.1.4zM68.1 104.8c-.1-.3-.2-.5-.3-.8l.4-.2c.1.3.2.5.3.8l-.4.2zm-.7-1.9c-.1-.3-.2-.5-.4-.8l.4-.2c.1.3.3.5.4.8l-.4.2zm-.9-1.8c-.2-.2-.3-.5-.4-.7l.3-.2c.2.2.3.5.4.7l-.3.2zm-1.2-1.8c-.2-.2-.3-.4-.5-.7l.3-.3c.2.2.4.4.5.7l-.3.3zM64 97.7l-.6-.6.3-.3.6.6-.3.3zm-1.5-1.4c-.2-.2-.4-.3-.6-.5l.3-.3c.2.2.4.3.6.5l-.3.3zm-1.7-1.2c-.2-.2-.5-.3-.7-.4l.2-.4c.2.2.5.3.7.4l-.2.4zM59 94c-.3-.1-.5-.3-.8-.4l.2-.4c.3.1.5.2.8.4l-.2.4zm-1.8-.8c-.3-.1-.5-.2-.8-.3l.1-.4c.3.1.5.2.8.3l-.1.4zM69.2 106.6h-.6l-.1-.2c-.1-.1-.1-.3-.1-.4l.4-.1c0 .1.1.2.1.3h.3v.4zM199.8 106.6h-.8v-.4h.8v.4zm-2.1 0h-.8v-.4h.8v.4zm-2.1 0h-.8v-.4h.8v.4zm-2 0h-.8v-.4h.8v.4zm-2.1 0h-.8v-.4h.8v.4zm-2.1 0h-.8v-.4h.8v.4zm-2 0h-.8v-.4h.8v.4zm-2.1 0h-.8v-.4h.8v.4zm-2.1 0h-.8v-.4h.8v.4zm-2.1 0h-.8v-.4h.8v.4zm-2 0h-.9v-.4h.8l.1.4zm-2.1 0h-.8v-.4h.8v.4zm-2.1 0h-.8v-.4h.8v.4zm-2.1 0h-.8v-.4h.8v.4zm-2 0h-.8v-.4h.8v.4zm-2.1 0h-.8v-.4h.8v.4zm-2.1 0h-.8v-.4h.8v.4zm-2 0h-.8v-.4h.8v.4zm-2.1 0h-.8v-.4h.8v.4zm-2.1 0h-.8v-.4h.8v.4zm-2.1 0h-.8v-.4h.8v.4zm-2 0h-.5v-.4h.5v.4zm-41.8 0h-.5v-.4h.5v.4zm-1.8 0h-.8v-.4h.8v.4zm-2 0h-.8v-.4h.8v.4zm-2.1 0h-.8v-.4h.8v.4zm-2.1 0h-.8v-.4h.8v.4zm-2.1 0h-.8v-.4h.8v.4zm-2 0h-.8v-.4h.8v.4zm-2.1 0h-.8v-.4h.8v.4zm-2 0h-.8v-.4h.8v.4zm-2.2 0h-.8v-.4h.8v.4zm-2 0h-.8v-.4h.8v.4zm-2.1 0h-.8v-.4h.8v.4zm-2 0h-.8v-.4h.8v.4zm-2.1 0H87v-.4h.8v.4h.1zm-2.1 0H85v-.4h.8v.4zm-2.1 0h-.9v-.4h.8l.1.4zm-2.1 0h-.8v-.4h.8v.4zm-2 0h-.8v-.4h.8v.4zm-2.1 0h-.8v-.4h.8v.4zm-2 0h-.8v-.4h.8v.4zm-2.2 0h-.8v-.4h.8v.4zm-2 0h-.8v-.4h.8v.4zM201.6 106.6h-.6v-.4h.3c0-.1.1-.2.1-.3l.4.1c-.1.1-.1.3-.1.4v.2zM202.1 104.8l-.4-.1c.1-.3.2-.5.3-.8l.4.2c-.1.2-.3.4-.3.7zm.7-1.9l-.4-.2c.1-.3.2-.5.4-.8l.4.2c-.1.3-.2.5-.4.8zm1-1.8l-.4-.2c.2-.2.3-.5.4-.7l.3.2c0 .2-.2.4-.3.7zm1.2-1.8l-.3-.3c.2-.2.3-.4.5-.7l.3.3c-.2.3-.4.5-.5.7zm1.3-1.6l-.3-.3.6-.6.3.3c-.3.3-.4.5-.6.6zm1.5-1.4l-.3-.3c.2-.2.4-.4.6-.5l.3.3c-.2.2-.4.4-.6.5zm1.7-1.2l-.2-.3c.2-.2.5-.3.7-.4l.2.4c-.3 0-.5.2-.7.3zm1.7-1.1l-.2-.4c.3-.1.5-.3.8-.4l.2.4c-.3.2-.5.3-.8.4zm1.9-.8l-.2-.4c.3-.1.5-.2.8-.3l.1.4c-.2.1-.4.2-.7.3zM215.1 92.6l-.1-.4c.1 0 .2-.1.3-.1v-.3h.4v.6l-.2.1c-.1.1-.3.1-.4.1zM215.6 90.7h-.4v-.8h.4v.8zm0-2h-.4v-.8h.4v.8zm0-2h-.4v-.8h.4v.8zm0-2h-.4v-.8h.4v.8zM215.6 82.7h-.4v-.3c-.1 0-.2-.1-.3-.1l.1-.3c.1.1.3.1.4.1l.2.1v.5zM213.7 82c-.3-.1-.5-.2-.8-.3l.2-.4c.3.1.5.2.8.3l-.2.4zm-1.9-.9c-.3-.1-.5-.3-.8-.4l.2-.4c.3.2.5.3.8.4l-.2.4zm-1.9-1.1c-.2-.2-.5-.3-.7-.5l.2-.3c.2.2.4.3.7.5l-.2.3zm-1.7-1.3c-.2-.2-.4-.4-.6-.5l.3-.3c.2.2.4.4.6.5l-.3.3zm-1.6-1.5c-.2-.2-.4-.4-.6-.7l.3-.3c.2.2.4.4.5.6l-.2.4zm-1.4-1.6c-.2-.2-.3-.5-.5-.7l.3-.2c.2.2.3.4.5.7l-.3.2zm-1.2-1.8c-.2-.3-.3-.5-.4-.8l.4-.2c.1.3.3.5.4.8l-.4.2zm-1-1.9c-.1-.3-.2-.5-.3-.8l.4-.2c.1.3.2.5.3.8l-.4.2z"/><g><path class="st3" d="M71 87.3h1.1V74.7c0-.1 0-.2-.1-.3 0-.1-.1-.1-.1-.1-.1-.1-.2-.1-.3-.1-.2 0-.4-.1-.6-.1h-.3V73H76c.5 0 .9.1 1.2.2.4.1.6.3.9.5.2.2.4.5.5.8.1.3.2.6.2 1 0 .3-.1.5-.1.7s-.2.4-.3.7c-.1.2-.3.4-.4.5v.1l.6.3c.4.2.7.4 1 .8.3.3.5.6.8.9s.4.7.5 1.1c.2.4.3.8.3 1.1.1.4.1.8.1 1.1 0 .9-.2 1.8-.6 2.6-.2.4-.5.8-.8 1.1-.3.3-.7.7-1.1.9-.4.3-.9.4-1.4.6-.5.1-1 .2-1.6.2h-5.1l.1-.3.1-.5v-.2l.1.1zm2.6 0h.2c.1 0 .3.1.4.1.2 0 .3.1.4.1h.3c.6 0 1.1-.1 1.6-.2s.9-.3 1.2-.5c.4-.2.6-.5.9-.8.2-.3.4-.6.6-1 .2-.3.3-.7.3-1.1.1-.4.1-.7.1-1.1V82c-.1-.6-.2-1.1-.4-1.6-.2-.4-.4-.8-.8-1.1-.3-.3-.6-.5-1-.8-.3-.2-.7-.3-1.1-.4-.2-.1-.6-.1-1.1-.1-.4-.1-.9-.1-1.4-.1h-.2v9.4zm2-10.3c.3 0 .6-.1.8-.1.2-.1.4-.2.5-.3.1-.2.2-.3.3-.5.1-.2.1-.4.1-.6v-.1-.2-.2c-.1-.2-.1-.3-.2-.4-.1-.1-.3-.2-.5-.3-.2-.1-.5-.2-.8-.2s-.6-.1-.8-.1c-.2 0-.4 0-.5.1-.2 0-.3.1-.4.1-.1.1-.2.1-.3.1l-.1 2.8h1.9V77zM86 78.5l2.6-3.8c.1-.2.2-.3.3-.4.1-.1.1-.1.1-.2h-.1c-.1-.1-.3-.1-.5-.1h-.3v-1h4.1v1.1h-1.5L87.3 79l4.1 7.2c.2.2.3.4.4.5.1.1.3.2.4.3.1.1.3.2.5.2.2.1.5.1.8.2l.2.1v1H89l.1-.3.1-.5v-.2h1l-3.8-6.9-.2.4v5.5c0 .2 0 .4.1.5 0 .1.1.2.1.3.1.1.1.1.1.2l.1.1c.1 0 .2.1.3.1h.7l-.1.3-.1.5v.2h-4.2v-.3l.1-.5v-.2h1.1V75.2c0-.2 0-.4-.1-.5-.1-.1-.1-.2-.2-.3-.1-.1-.2-.1-.4-.2s-.4-.1-.6-.1h-.3V73H87.2v1.1H86v4.4zm6.1 8.4zm6.7-.6c-.2.2-.3.4-.3.5-.1.1-.1.2-.1.2 0 .2.3.2 1 .2h.3v1.1H95v-1.1H96.4l3.5-6.1L97 74h-1.5v-1h4.1v1l-.2.1c-.2.1-.4.1-.5.1-.1.1-.2.1-.3.1-.1 0-.1.1-.1.1.1.1.1.4.3.8l1.8 4.5 2.8-5.7H102v-1H106.4v1l-.2.1c-.4.1-.7.2-.9.4-.2.2-.4.4-.5.7l-6 11.1zm20.6-12.8l-.1-.8v-.3h1.1v.3l-.1 5.6v.3h-1.1V77.7c0-1.1-.3-2-.8-2.6-.3-.3-.5-.5-.9-.7-.3-.2-.5-.3-.9-.4-.3-.1-.6-.1-.9-.2-.3-.1-.5-.1-.7-.1-.6.1-1.2.2-1.7.3-.5.2-1 .4-1.5.8-.4.3-.8.7-1.1 1.1-.3.4-.6.9-.8 1.4-.2.5-.4 1-.5 1.5-.1.5-.2 1-.2 1.6 0 .5.1 1.1.2 1.7s.3 1.1.5 1.6.5 1 .8 1.4c.3.4.7.8 1.1 1.1.4.3.9.5 1.4.7.5.2 1 .3 1.6.3H115.1c1 0 1.9-.2 2.8-.6.4-.2.8-.4 1.1-.7.3-.2.6-.5.8-.8l.2-.3.2.3.3.4.1.1-.1.2c-.1.2-.3.4-.5.7-.2.2-.4.4-.8.5-.3.2-.6.3-.9.4-.3.1-.6.2-1 .3-.4.1-.7.2-1 .2-.3.1-.6.1-1 .1h-.5.2c-.8 0-1.5-.1-2.1-.3-.6-.2-1.2-.5-1.8-.9-.5-.4-1-.8-1.5-1.3-.4-.5-.8-1-1-1.6-.3-.6-.5-1.2-.6-1.8-.2-.6-.2-1.3-.2-1.9 0-.5.1-.9.1-1.4.1-.4.2-.9.4-1.4.2-.4.4-.9.6-1.3.3-.4.5-.8.9-1.2.3-.4.7-.7 1.1-1s.9-.5 1.4-.8c.5-.2 1-.4 1.6-.5.5-.1 1.1-.2 1.7-.2.8 0 1.5.1 2.2.2.6.5 1.1.7 1.6.9zm-4 13.9zm15.1-13.3v12.5c0 .1 0 .2.1.3 0 .1.1.2.1.2 0 .1.1.1.1.1.1.1.2.1.4.1h.8v1.1h-4.3v-1.1h1.2v-8.9h-3.7v8.1c0 .2 0 .4.1.5 0 .1.1.2.1.3s.1.1.1.1c.1 0 .1.1.2.1H126.6v1.1H122v-1.1H123.4V75.2c0-.3 0-.4-.1-.6 0-.1-.1-.2-.1-.2-.1-.1-.1-.1-.3-.1-.2-.1-.4-.1-.6-.1h-.3V73h4.1v1.1H125v3.1h3.7V75c0-.2 0-.3-.1-.5-.1-.1-.1-.2-.1-.3-.1-.1-.1-.1-.3-.1-.2-.1-.4-.1-.6-.1h-.3v-1h4.3v1.1h-1.1zm10.4-1.1h.4c.8 0 1.5.1 2.2.3.6.2 1.3.4 1.8.8s1 .8 1.5 1.3c.4.5.8 1 1 1.5.3.5.5 1.1.6 1.7.2.6.2 1.2.3 1.9v.4c0 .6-.1 1.2-.2 1.8-.2.6-.3 1.2-.6 1.7-.3.6-.6 1.1-1 1.6s-.9.9-1.5 1.3c-.5.4-1.1.7-1.8.8-.6.2-1.4.3-2.1.3h-1c-.6 0-1.2-.1-1.7-.2s-1.1-.3-1.6-.5-.9-.4-1.4-.8c-.4-.3-.8-.6-1.1-1-.3-.4-.6-.8-.9-1.1s-.4-.8-.6-1.3c-.2-.4-.3-.9-.4-1.4-.1-.5-.1-.9-.1-1.4 0-.7.1-1.3.2-1.9.2-.6.4-1.3.6-1.8.3-.6.6-1.1 1.1-1.6.4-.5 1-.9 1.5-1.3.6-.4 1.2-.7 1.9-.8.7-.2 1.4-.3 2.2-.3h.7zm0 15.2zm0-14c-.6 0-1.2.1-1.7.3-.5.2-1 .4-1.5.7s-.9.7-1.2 1c-.4.4-.6.8-.9 1.3-.3.5-.4 1-.5 1.5-.1.5-.2 1-.2 1.6v.3c0 .5.1 1 .2 1.5s.3 1 .5 1.5c.3.5.5.9.9 1.3s.8.8 1.2 1c.9.6 2 .9 3.2.9.1 0 .1 0 .2.1.6 0 1.2-.1 1.7-.2.5-.2 1-.4 1.4-.7.4-.3.8-.6 1.1-1 .3-.4.6-.8.8-1.3s.4-1 .5-1.5c.1-.5.2-1 .2-1.6 0-.4-.1-.8-.1-1.3l-.3-1.2c-.1-.4-.3-.8-.5-1.1-.2-.4-.4-.7-.6-1-.5-.7-1.1-1.1-1.8-1.5-.3-.2-.7-.3-1.1-.4-.4-.1-.8-.2-1.2-.2h-.3zm.2 12.9zm22.9 1.3h-6.1l.1-.3.1-.5v-.2h1.1v-12c0-.2 0-.3-.1-.4 0-.1-.1-.2-.1-.3 0-.1-.1-.1-.1-.2s-.1-.1-.1-.1c-.1 0-.1-.1-.1-.1s-.1-.1-.2-.1-.2-.1-.3-.1c-.2-.1-.3-.1-.4-.1l-.2-.1.1-.3.1-.6.1-.2h6.2v-.7h1.1V77.5h-1.1V77c0-.4-.1-.8-.1-1.1-.1-.3-.2-.5-.3-.8-.1-.2-.3-.4-.4-.5l-.6-.3c-.3-.1-.5-.1-.9-.2-.3-.1-.6-.1-.9-.1v3.1h1v-2.3h1.1v6.1h-1.3v-.3c0-.4-.1-.8-.1-1.1-.1-.3-.1-.6-.2-.8-.1-.2-.2-.3-.3-.4-.1-.1-.2-.1-.4-.1v9.1H161.3c.4 0 .8-.1 1.1-.1.3-.1.5-.2.7-.3.2-.1.4-.3.5-.4.1-.2.2-.3.3-.5.1-.2.1-.4.1-.7.1-.3.1-.5.1-.9v-1h1.1v.3l-.1 5.2v.3H164v-.8zm-5.1-14.1zm19.1-.8l-.1-.8v-.3h1.1v.3l-.1 5.6v.3h-1.1V77.7c0-1.1-.3-2-.8-2.6-.3-.3-.5-.5-.9-.7-.3-.2-.5-.3-.9-.4-.3-.1-.6-.1-.9-.2-.3-.1-.5-.1-.7-.1-.6.1-1.2.2-1.7.3-.5.2-1 .4-1.5.8-.4.3-.8.7-1.1 1.1-.3.4-.6.9-.8 1.4-.2.5-.4 1-.5 1.5-.1.5-.2 1-.2 1.6 0 .5.1 1.1.2 1.7.1.5.3 1.1.5 1.6s.5 1 .8 1.4c.3.4.7.8 1.1 1.1.4.3.9.5 1.4.7.5.2 1 .3 1.6.3H173.7c1 0 1.9-.2 2.8-.6.4-.2.8-.4 1.1-.7.3-.2.6-.5.8-.8l.2-.3.2.3.3.4.1.1-.1.2c-.1.2-.3.4-.5.7-.2.2-.4.4-.8.5-.3.2-.6.3-.9.4-.3.1-.6.2-1 .3-.4.1-.7.2-1 .2-.3.1-.6.1-1 .1h-.6c-.8 0-1.5-.1-2.1-.3-.6-.2-1.2-.5-1.8-.9-.5-.4-1-.8-1.5-1.3-.4-.5-.8-1-1-1.6-.3-.6-.5-1.2-.6-1.8-.2-.6-.2-1.3-.2-1.9 0-.5.1-.9.1-1.4.1-.4.2-.9.4-1.4.2-.4.4-.9.6-1.3.3-.4.5-.8.9-1.2s.7-.7 1.1-1c.4-.3.9-.5 1.4-.8.5-.2 1-.4 1.6-.5.5-.1 1.1-.2 1.7-.2.8 0 1.5.1 2.2.2.9.5 1.3.7 1.9.9zm-4 13.9zm10-.1V74c-.2 0-.4 0-.6.1-.3.1-.4.1-.6.2-.2.1-.3.2-.4.3-.1.1-.2.2-.3.4-.1.2-.2.3-.2.5-.1.2-.1.4-.1.5 0 .2-.1.5-.1.9s-.1.9-.1 1.5v.3h-1v-6.5h1.1v.8h6.6v-.8h1.1v6.5h-1.2v-.3c0-.3 0-.7-.1-1 0-.3 0-.6-.1-.9 0-.3-.1-.5-.1-.8-.1-.2-.1-.4-.2-.6-.1-.2-.2-.3-.3-.4-.1-.1-.3-.3-.5-.4-.2-.1-.4-.2-.7-.2-.2-.1-.5-.1-.8-.1v12.3c0 .2.1.4.1.5.1.1.1.2.2.2.1.1.3.1.5.1.2.1.5.1.8.1h.3v1.1H182.6v-1.1H184v.1zm13.3-14.1v.8H196.4c-.4 0-.6.1-.8.2-.1.1-.2.3-.2.4v1.2c.5-.2.9-.3 1.4-.4.6-.1 1.1-.2 1.7-.2.6 0 1.2.1 1.8.3.6.2 1.1.4 1.6.8.5.3.9.7 1.2 1.1.4.4.6.9.9 1.4.2.5.4 1 .5 1.6.1.5.2 1.1.2 1.7 0 .5-.1 1-.2 1.5s-.3 1-.5 1.5-.5.9-.8 1.3c-.3.4-.7.7-1.1 1-.4.3-.9.5-1.4.7-.5.2-1.1.2-1.7.2H198.7h-.1c-.5 0-1.1-.1-1.7-.3-.5-.1-1.1-.3-1.7-.5v.8H192.1v-1.1h.3c.2 0 .4 0 .6-.1.2-.1.3-.1.4-.2.1-.1.2-.2.2-.3.1-.2.1-.3.1-.5v-12c-.2 0-.4.1-.6.1-.3.1-.4.1-.6.2-.2.1-.3.2-.4.3s-.1.2-.1.3c-.1.2-.2.4-.2.5-.1.2-.1.4-.1.6 0 .2-.1.5-.1.9s-.1.9-.1 1.4v.3h-1.1v-6.5h1.1v.8h5.8v.2zm-1.8 4.5V86c.1.2.3.3.4.4.2.2.5.3.8.4l.9.3c.3.1.6.1.9.1.4 0 .8-.1 1.1-.1.4-.1.7-.2 1.1-.4.3-.2.6-.4 1-.6.3-.3.5-.5.8-.9.2-.3.4-.7.5-1.1.1-.4.2-.9.3-1.4v-.4c0-.5-.1-1-.2-1.4-.1-.4-.3-.9-.5-1.4-.2-.4-.5-.8-.8-1.2-.3-.3-.6-.7-1-.9s-.8-.4-1.1-.6c-.4-.1-.8-.2-1.1-.2-.5 0-1.1.1-1.6.3-.5.1-1 .4-1.5.8z"/></g><path class="st3" d="M86.2 95v.4c.7-.3 1.4-.4 1.9-.4.4 0 .8.1 1.1.2.3.2.6.4.8.7.2.3.4.6.5.9.1.3.2.7.2 1.1s-.1.8-.2 1.2c-.1.4-.3.7-.6 1s-.6.5-1 .8c-.4.2-.8.3-1.3.3h-.2c-.3 0-.8-.1-1.5-.3v.8c0 .3.2.4.6.4H86.8v.2H85v-.3h.6v-6c0-.3-.1-.4-.2-.5-.1-.1-.3-.2-.5-.2V95h1.3zm0 5c.5.5 1 .7 1.6.7.4 0 .8-.1 1.2-.4s.6-.6.9-1c.2-.4.3-.9.3-1.4v-.2c-.1-.8-.3-1.4-.8-1.8-.5-.4-1-.6-1.6-.6-.3 0-.6.1-.9.2-.3.1-.5.3-.6.4l-.1 4.1zm8.4 2.1h-3v-.2h.6V96c0-.2 0-.3-.1-.4 0-.1-.1-.2-.1-.2-.1-.1-.1-.1-.2-.1s-.2-.1-.3-.1l.1-.3h3v-.3h.2v2.3h-.2v-.2c0-.4-.1-.7-.2-1-.1-.2-.3-.4-.6-.4-.3-.1-.6-.1-1-.1v1.7h.8V96h.2v2.6h-.2c0-.4-.1-.8-.2-1-.1-.2-.3-.3-.6-.3v4.7h.4c.4 0 .7-.1.9-.2.2-.2.3-.3.4-.5.1-.2.1-.5.1-.8v-.3h.2v2.6h-.2v-.7zm6.6-6.8v-.6h.2v2.7h-.2v-.3c0-.6-.2-1-.4-1.3s-.6-.5-.9-.5c-.3-.1-.5-.1-.8-.1-.6.1-1.2.2-1.6.5s-.8.7-1 1.2c-.2.5-.3 1-.3 1.6 0 .5.1 1.1.3 1.6.2.5.5 1 1 1.3s.9.5 1.5.5h.2c.5 0 1-.1 1.4-.3.4-.2.8-.4 1-.7l.2.2c-.1.2-.3.4-.5.5-.3.2-.6.3-.9.4-.3.1-.6.1-1 .1h-.2c-.7 0-1.3-.2-1.8-.5s-.9-.8-1.2-1.4-.4-1.1-.4-1.7c0-.4.1-.9.2-1.3.2-.4.4-.8.7-1.1.3-.3.7-.7 1.1-.9.4-.2 1-.3 1.6-.4.5 0 1.2.2 1.8.5zm2.7 6.6v-6.7c-.3 0-.6.1-.8.1-.2.1-.3.2-.4.4-.1.2-.1.4-.2.5 0 .2-.1.6-.1 1.1h-.2v-2.9h.2v.4h3.4v-.4h.2v2.9c0-.3 0-.6-.1-.9 0-.3-.1-.5-.1-.7-.1-.2-.2-.3-.4-.4-.2-.1-.5-.2-.9-.2v6.1c0 .3.1.4.2.5s.4.1.7.1v.2h-2v-.2h.6v.1zm6.7-6.9h.2c.8 0 1.4.2 1.9.5s.9.8 1.1 1.3c.3.5.4 1.1.4 1.7v.2c0 .6-.1 1.1-.4 1.7-.3.5-.6 1-1.1 1.3-.5.3-1.1.5-1.8.5h-.1H110.5c-.6 0-1.1-.1-1.5-.3-.4-.2-.8-.5-1.1-.8-.3-.3-.5-.7-.7-1.1-.2-.4-.2-.9-.2-1.3 0-.6.2-1.2.4-1.7.3-.5.7-1 1.2-1.4.6-.4 1.3-.6 2-.6zm-.1.3c-.6 0-1.1.2-1.6.5s-.8.7-1.1 1.1c-.3.5-.4 1-.4 1.5v.2c0 .5.1 1 .4 1.5s.6.9 1.1 1.2 1 .4 1.6.4h.2c.6 0 1.1-.2 1.6-.4.4-.3.8-.7 1-1.1s.3-1 .3-1.5c0-.4-.1-.8-.2-1.3-.1-.4-.3-.8-.5-1.1-.3-.3-.5-.6-.9-.8-.4-.2-.8-.3-1.2-.3h-.3v.1zm5.6-.3v.4c.7-.3 1.4-.4 1.9-.4.4 0 .8.1 1.1.2.3.2.6.4.8.7.2.3.4.6.5.9.1.3.2.7.2 1.1s-.1.8-.2 1.2c-.1.4-.3.7-.6 1-.3.3-.6.5-1 .8-.4.2-.8.3-1.3.3h-.2c-.3 0-.8-.1-1.5-.3v.8c0 .3.2.4.6.4H116.7v.2h-2.1v-.3h.6v-6c0-.3-.1-.4-.2-.5-.1-.1-.3-.2-.5-.2V95h1.6zm0 5c.5.5 1 .7 1.6.7.4 0 .8-.1 1.2-.4s.6-.6.9-1c.2-.4.3-.9.3-1.4v-.2c-.1-.8-.3-1.4-.8-1.8-.5-.4-1-.6-1.6-.6-.3 0-.6.1-.9.2-.3.1-.5.3-.6.4l-.1 4.1zm9.1 1.9l-1.2-4.1h-.9l-.7 3.3v.4c0 .4.2.5.6.5h.2v.2h-1.7v-.2h.3l1.6-6.9h.2l1.9 6.4c.1.4.3.6.5.6h.2v.2h-1.6v-.3h.5v-.1zm-1.3-4.4l-.3-1.1-.3 1.1h.6zm6.9-2.3v6.2c0 .2 0 .3.1.3.1.1.2.1.4.1h.2v.2h-1.8v-.2h.5v-4.6h-2.1v4c0 .2 0 .4.1.4.1.1.1.1.3.1h.2v.2h-1.8v-.2h.6v-6.1c0-.3-.1-.4-.1-.5-.1-.1-.3-.1-.5-.1h1.7v.3h-.5V97h2.1v-1.2c0-.2-.1-.3-.1-.4-.1-.1-.3-.2-.5-.2v-.3h1.8v.3h-.6zm5.2 0v6.2c0 .2 0 .3.1.3.1.1.2.1.4.1h.2v.2h-1.8v-.2h.5v-4.6h-2.1v4c0 .2 0 .4.1.4.1.1.1.1.3.1h.2v.2h-1.7v-.2h.6v-6.1c0-.3-.1-.4-.1-.5s-.3-.1-.5-.1h1.7v.3h-.5V97h2.1v-1.2c0-.2-.1-.3-.1-.4-.1-.1-.3-.2-.5-.2v-.3h1.8v.3h-.7zm5 6.7l-1.2-4.1h-.9l-.7 3.3v.4c0 .4.2.5.6.5h.2v.2h-1.7v-.2h.3l1.6-6.9h.2l1.9 6.4c.1.4.3.6.5.6h.2v.2h-1.6v-.3h.5v-.1zm-1.3-4.4l-.3-1.1-.3 1.1h.6zm9.6-2.5v.3c-.3 0-.4.1-.5.2-.1.2-.2.4-.2.7v5.9h.5v.2h-1.9v-.2H147.5c.4 0 .6-.2.6-.5v-.9c-.1.1-.4.2-.9.5s-.9.5-1.2.7c-.3.2-.7.3-1.1.4-.4.1-.8.2-1.1.2-.4 0-.6-.1-.9-.2l.2-.2c.2.1.3.1.4.1.3 0 .6-.1.9-.2.3-.1.6-.3 1-.4l.8-.4c-.6-.1-1.1-.2-1.6-.5-.4-.3-.7-.7-.9-1.1-.2-.4-.3-.9-.3-1.4 0-.5.1-1 .3-1.5.2-.5.5-.9 1-1.2s.9-.4 1.4-.4c.3 0 .7.1 1 .2.4.1.8.3 1.1.6V95h1.1zm-1.2 1c-.2-.2-.5-.4-.9-.5-.3-.1-.7-.2-1-.2-.4 0-.8.1-1.2.3-.4.2-.7.5-.9.9-.2.4-.4.9-.4 1.5v.2c0 .2.1.5.2.8.1.3.3.5.5.8s.4.5.8.7c.3.2.6.2.9.2.6 0 1.4-.3 2.1-.9l-.1-3.8zm6.5 5.9v-6.1c0-.2-.1-.4-.2-.5-.1-.1-.3-.1-.6-.1V95h3.2v-.3h.2V97h-.2v-.2c0-.4-.1-.8-.2-1s-.4-.4-.6-.4c-.3-.1-.6-.1-1.1-.1v6.1c0 .2.1.4.2.4.1.1.2.1.4.1h.4v.2h-2.2v-.2h.7zm4.6-6.9v.4c.7-.3 1.4-.4 1.9-.4.4 0 .8.1 1.1.2.3.2.6.4.8.7s.4.6.5.9c.1.3.2.7.2 1.1s-.1.8-.2 1.2c-.1.4-.3.7-.6 1s-.6.5-1 .8c-.4.2-.8.3-1.3.3h-.2c-.3 0-.8-.1-1.5-.3v.8c0 .3.2.4.6.4H159.8v.2h-2.1v-.3h.6v-6c0-.3-.1-.4-.2-.5-.1-.1-.3-.2-.5-.2V95h1.6zm0 5c.5.5 1 .7 1.6.7.4 0 .8-.1 1.2-.4s.6-.6.9-1c.2-.4.3-.9.3-1.4v-.2c-.1-.8-.3-1.4-.8-1.8-.5-.4-1-.6-1.6-.6-.3 0-.6.1-.9.2-.3.1-.5.3-.6.4l-.1 4.1zm7 1.2c-.2.2-.2.4-.2.4 0 .2.2.2.6.2v.2h-2v-.2h.6l1.7-3.1-1.5-3.6h-.6V95h1.7v.3c-.2.1-.3.1-.4.1-.1.1-.1.1-.1.2l.2.4 1 2.5 1.6-3.2h-.6V95h1.9v.3c-.4.1-.6.3-.8.6l-3.1 5.3zm8.2-6v6.2c0 .2 0 .3.1.3.1.1.2.1.4.1h.2v.2h-1.8v-.2h.5v-6.7h-2.1v6.2c0 .2 0 .4.1.4.1.1.1.1.3.1h.2v.2h-1.8v-.2h.6v-6.1c0-.3-.1-.4-.1-.5-.1-.1-.3-.1-.5-.1V95h4.4v.3l-.5-.1zm5.2 0v6.2c0 .2 0 .3.1.3.1.1.2.1.4.1h.2v.2h-1.8v-.2h.5v-6.7h-2v6.2c0 .2 0 .4.1.4.1.1.1.1.3.1h.2v.2h-1.8v-.2h.6v-6.1c0-.3-.1-.4-.1-.5-.1-.1-.3-.1-.5-.1V95h4.4v.3l-.6-.1zm5 6.7l-1.2-4.1h-.9l-.7 3.3v.4c0 .4.2.5.6.5h.2v.2H181v-.2h.3l1.6-6.9h.2l1.9 6.4c.1.4.3.6.5.6h.2v.2h-1.6v-.3h.5v-.1zm-1.3-4.4l-.3-1.1-.3 1.1h.6zM142.2 8.7c0-.3-.1-.7-.1-1-.1-.3-.1-.6-.2-.9 0-.1-.1-.3-.2-.4-.1-.1-.2-.3-.2-.3-.1.2-.2.5-.2.7-.1.3-.1.7-.2 1-.1.3-.1.6-.1.8 0 .3-.1 1.1-.1 1.9-.1.9-.1 2-.1 2.3V31.5c0 .4-.2.7-.4.9-.2.2-.5.4-.9.4s-.6-.2-.9-.4c-.2-.2-.4-.5-.4-.9-.1-.7-.1-1.5-.1-2.2 0-.4 0-.9-.1-1.4l-.4-16.1v-.2c0-.5-.1-1-.1-1.5l-.1-.7-.1-.8c0-.3-.1-.7-.1-1-.1-.3-.1-.7-.2-1-.1-.2-.1-.4-.2-.5-.1.2-.2.5-.2.7-.1.3-.1.8-.2 1.3s-.1 1.1-.1 1.4l-.2 2.7-.2 17.5c0 .1.1.9 0 1.9 0 .3-.2.7-.4.9-.2.2-.5.4-.9.4s-.7-.2-.9-.4c-.2-.2-.4-.5-.4-.9v-.1-3-4.3l-.1-4.3v-5.8-5.6c0-.3-.1-.7-.1-1-.1-.3-.1-.7-.2-1-.1-.2-.1-.4-.2-.5-.1.2-.2.5-.2.7.5-.1.5.2.5.5-.1.3-.1.5-.1.8 0 .3 0 .8-.1 1.3-.1.7-.1 1.4-.1 1.7l-.3 17.5V31.2c0 .3-.2.7-.4.9-.2.2-.5.3-.9.3s-.7-.2-.9-.4c-.2-.2-.4-.5-.4-.9V30v-.8l-.3-17.3-.2-4.4v-.1c-.1-.6-.1-1.1-.2-1.5-.1-.3-.1-.4-.1-.4s-.1.2-.2.5c-.1.4-.2 1.1-.2 1.8V8l-.3 5.9-1.1 24.3v.1c0 .1-.3 2 1.7 3.8l.1.1 2.7 2.9c.2.2 1.9 1.7 2 4.7 0 .5 0 1.6-.1 3.3-.1 1.6-.1 3.6-.2 5.8.3.4.6.7.9 1 .4.2.8.4 1.2.4.4 0 .8-.1 1.2-.3.3-.2.6-.5.9-.9l-.4-8.9v-.1s.2-3.2 2.1-5.1l3-3.1s1.2-1.3 1-3.3v-.1c0-.4-.1-9.7-.3-17.4l-.4-8.9v-.4l-.4-3.1zM132.8 111.3l-.2 5.7c.8 1.1 1.4 2.7 1.4 4.4 0 1.9-.6 3.5-1.6 4.7 0 .3-.1 4.9-.2 4.9 3.8 5 2.6 5 6.4 0-.1-.1-.1-4.4-.1-4.9-1-1.2-1.7-2.9-1.7-4.8 0-1.8.6-3.4 1.5-4.6l-.1-5.2c-.3-2-1.5-3.4-2.8-3.4-1.2 0-2.3 1.4-2.6 3.2zM103.9 26s-5-1.4-7.6 2.1c-3.2 4.4.9 5.6-.2 8.2-1 2.6-5.2.3-5.2.3 1.2 3.3 5.3 3.7 9.1 2 5.1-2.2 11.9-1.7 11.9-1.7s-12.2-2-12-6.1c.3-4.1 4-4.8 4-4.8zM76.7 47.8c8.4-9.9 2.1-17 .3-19s.3-2.4 2.9-5c2.7-2.6 1-4.9 1-4.9-1.6 1.6-3.1 3-11.4 1.8s-10.6 5.7-10.6 5.7 6-3.8 13.9 1.7c11.1 8 3.9 19.7 3.9 19.7z"/><path class="st3" d="M119.5 40.7c-10.8-6.2-24.8.1-34.1 8.8-5 4.1-10.7 7.4-16.7 8.1-6.1.8-11.8-2.1-15.3-6.5-7.6-9.3.1-22.2 8.3-23.4 8-1.6 13.2 4.7 13.4 9.4-.1 1.5-.5 4.4-2.6 4.9 0 0-1.1 3.1-4.1 1.3 0 0 .7 2.2 2.6 2.5 1.8.2 1.6 1.3 1.6 1.3s3.7-5.7 2.8-10c-.2-4.8-5.4-11.3-13.8-9.8-8.1 1-15.9 12.9-10.2 22.7 1.5 3.1 4.3 6.3 9.4 8.5 13.9 5.9 22.7-4.5 32.9-12.8 5.3-4.4 10.5-5.8 14.4-6.3 3.8-.3 7.5.3 10.9 2.2 4.8 2.6 8.3 7.9 6.9 12.8-1 5-6.3 7.8-10.2 5.8-4-1.7-4.1-7.5-1.2-9.2 2.9-2.1 6.5.5 6.2 2.9-.1 1.5-1 2.6-1.9 3-1.3.3-2.1-.5-2.1-1 .1-.3.4-.4 1.1-.4.6.1.7-1 .7-1-1.4.5-1.4-.5-1.4-.5-1.3.3-1.5 1.7-.6 2.6.6.5 1.2.5 1.6.5 1.2-.1 2.7-1.3 2.8-3.2.3-2.5-3.5-5.4-6.6-3.2-3.2 1.8-3.2 8 1.1 10 4.2 2.2 10-.8 11.2-6.1 1.7-5.5-2.1-11.1-7.1-13.9z"/><path class="st3" d="M56.4 25.8s-2 .1-3.3 1.4c-1.7 1.7-4-.1-3.5-2.6.2-1.2-.4-2.2-1.2-2.9-.9-.8-1.8-1.3-1.8-1.3.7 1 .7 2.1.3 3.8-.5 2-1.5 4.9-2.4 9.7-1.8 8.9 6.1 17.1 6.1 17.1-7.7-14.9 5.8-25.2 5.8-25.2zM122.1 57.1c6.2-1.9 2.6-18.1-13.6-15.9-10.5 1.5-19.6 8.3-21.9 15.1-1.9 5.3 3.4 6.2 3.4 6.2s.5-7.6 3.7-11.3c8.8-10.4 15.7-8.6 15.7-8.6-5.8.2-9.9 7.9-7.2 11.7s6.5 1.2 6.5 1.2c-1.8.3-4.4-2.5-1.7-6.3s6.1-2.8 6.1-2.8c-1.6-.1-3.1.9-2.9 2.2.2 1.3 1.9 1.5 3.8.5s4.6-2.1 7.9 1c3.7 3.5.2 7 .2 7zM166.3 26s5-1.4 7.6 2.1c3.2 4.4-.9 5.6.2 8.2 1 2.6 5.2.3 5.2.3-1.2 3.3-5.3 3.7-9.1 2-5.1-2.2-11.9-1.7-11.9-1.7s12.2-2 12-6.1c-.2-4.1-4-4.8-4-4.8zM193.6 47.8c-8.4-9.9-2.1-17-.3-19s-.3-2.4-3-5-1-4.9-1-4.9c1.6 1.6 3.1 3 11.4 1.8s10.6 5.7 10.6 5.7-6-3.8-13.9 1.7c-11 8-3.8 19.7-3.8 19.7z"/><path class="st3" d="M150.7 40.7c10.8-6.2 24.8.1 34.1 8.8 5 4.1 10.7 7.4 16.7 8.1 6.1.8 11.8-2.1 15.3-6.5 7.6-9.3-.1-22.2-8.3-23.4-8-1.6-13.3 4.7-13.4 9.4.1 1.5.5 4.4 2.6 4.9 0 0 1.1 3.1 4.1 1.3 0 0-.7 2.2-2.6 2.5-1.8.2-1.6 1.3-1.6 1.3s-3.7-5.7-2.8-10c.2-4.8 5.4-11.3 13.8-9.8 8.1 1 15.9 12.9 10.2 22.7-1.5 3.1-4.3 6.3-9.4 8.5-13.9 5.9-22.7-4.5-32.9-12.8-5.3-4.4-10.5-5.8-14.4-6.3-3.8-.3-7.5.3-10.9 2.2-4.8 2.6-8.3 7.9-6.9 12.8 1 5 6.3 7.8 10.2 5.8 4-1.7 4.1-7.5 1.2-9.2-2.9-2.1-6.4.5-6.2 2.9.1 1.5 1 2.6 1.9 3 1.3.3 2.1-.5 2.1-1-.1-.3-.4-.4-1.1-.4-.6.1-.7-1-.7-1 1.4.5 1.4-.5 1.4-.5 1.3.3 1.5 1.7.6 2.6-.6.5-1.2.5-1.6.5-1.2-.1-2.7-1.3-2.8-3.2-.3-2.5 3.5-5.4 6.6-3.2 3.2 1.8 3.2 8-1.1 10-4.2 2.2-10-.8-11.2-6.1-1.6-5.5 2.2-11.1 7.1-13.9z"/><path class="st3" d="M213.8 25.8s2 .1 3.3 1.4c1.7 1.7 4-.1 3.5-2.6-.2-1.2.4-2.2 1.2-2.9.9-.8 1.8-1.3 1.8-1.3-.7 1-.7 2.1-.3 3.8.5 2 1.5 4.9 2.4 9.7 1.8 8.9-6.1 17.1-6.1 17.1 7.8-14.9-5.8-25.2-5.8-25.2zM148.1 57.1c-6.2-1.9-2.6-18.1 13.6-15.9 10.5 1.4 19.5 8.2 21.9 15.1 1.9 5.3-3.4 6.2-3.4 6.2s-.5-7.6-3.7-11.3c-8.8-10.4-15.7-8.6-15.7-8.6 5.8.2 9.9 7.9 7.2 11.7-2.7 3.8-6.5 1.2-6.5 1.2 1.8.3 4.4-2.5 1.7-6.3s-6.1-2.8-6.1-2.8c1.6-.1 3.1.9 2.9 2.2-.2 1.3-1.9 1.5-3.8.5s-4.6-2.1-7.9 1c-3.7 3.5-.2 7-.2 7z"/><g><path class="st3" d="M125.4 125.5c-.3 1.3-2.6 1.2-4.1-1-.4-.5-.7-1.3-.9-2.1-.7-2.7-1.5-.5-.9 1.9.4 1.4 1.1 2.8 2.7 3.5 0 0-1.2 1.3-2.8-.4-.4-.4-.7-1.6-.8-3.2-.2-4.5 1.3-12.3 5.4-15.7 0 0-5 6.3-2.9 11.1 1.8 4.3 4 4.3 4.3 5.3.1.2.1.4 0 .6zM103.9 124s-6.7.4-6.9 6.1c-.3 5.6 5.4 9.5 12.4 6.7 0 0-3.5 2.5-7.9 1.4-5.3-1.4-5.3.4-5.3.4s-.6-1.8.7-2.3c1-.4 1-1.1.5-1.6-1.7-1.4-4.8-5.8-1.8-9.8 0 0-.4 1.1.3 1.5s.7 1.1.8 1.7c-.1-.2 1.4-4.7 7.2-4.1z"/><path class="st3" d="M106.2 132.3c-.3 2.2 1.9 2.7 2.8 1.7.9-1-.2-1.5-.4-2.4-.2-.7.4-1 .4-1 .2.7 1.2 1 1.2 1 2 .4 3.2-1.3 3.2-1.3-2.8 6.4-9.2 6.2-10.5 5.4-1.6-1-.5-2.2-.5-2.2 1 1.9 2.5 1.3 2.5 1.3-.9-2.1 1.3-2.5 1.3-2.5z"/><path class="st3" d="M128.6 105.2c-.3.1-4.5 1-7.6 6.3-1.9 2.9-2.5 7.3-3.7 11.9-.1.2-.1.4-.2.7-.3 1.1-.5 2.2-.8 3.2-1 3.5-3.9 9.1-10 9.7-2.7.4-5.4-.3-7-2.3-1.5-1.6-2-3.8-1.6-5.7.4-1.7 1.7-2.8 3.1-3.4 3.5-1.9 6.7.9 6.7.9s-.8-.5-1.2-.3c-.5.3-.1.9-.1.9.6 1.3.6 3.4-1.2 4.3-1.8.9-3.2-.5-3.2-.5 1.5.3 2.1-.3 2.3-1.1.2-.8-1.2-.7-1.2-.7.8-.1 1.8-1.1 1-2.7-.5-.9-1.4-1.1-2-1-.2.1-.3.1-.5.2-1.5.4-2.9 1.6-3.4 3.4-.4 1.7.1 3.9 1.5 5.3 2.7 3.2 8.5 2.7 11.9-.5 2.7-3 4.2-6.5 5.1-9.9 1.5-4.8 2.1-9.5 4.2-12.6 3.4-5.2 7.6-6 7.9-6.1z"/><path class="st3" d="M116.8 119.7c-.4 2.1-1.1 3.3-1.8 4.1-1.2 1.1-2.5 1-3.2.7-.4-.2-.8-.6-1-1.1-.5-1.1-.6-2.6 1.1-3.7 0 0-.9 1.7.5 2.4 1.1.5 2.3-.2 2.3-1.5s-1.4-1.1-1.4-1.1 1.6-1.4 3.1-3.3c1.6-2.1 3.1-4.6 4.2-5.8.1 0-2.8 4-3.8 9.3z"/><g><path class="st3" d="M144.8 125.5c.3 1.3 2.6 1.2 4.1-1 .4-.5.7-1.3.9-2.1.7-2.7 1.5-.5.9 1.9-.4 1.4-1.1 2.8-2.7 3.5 0 0 1.2 1.3 2.8-.4.4-.4.7-1.6.8-3.2.2-4.5-1.3-12.3-5.4-15.7 0 0 5 6.3 2.9 11.1-1.8 4.3-4 4.3-4.3 5.3v.6zM166.3 124s6.7.4 6.9 6.1c.3 5.6-5.4 9.5-12.4 6.7 0 0 3.5 2.5 7.9 1.4 5.3-1.4 5.3.4 5.3.4s.6-1.8-.7-2.3c-1-.4-1-1.1-.5-1.6 1.7-1.4 4.8-5.8 1.8-9.8 0 0 .4 1.1-.3 1.5-.7.3-.7 1.1-.8 1.7.1-.2-1.3-4.7-7.2-4.1z"/><path class="st3" d="M164.1 132.3c.3 2.2-1.9 2.7-2.8 1.7-.9-1 .2-1.5.4-2.4.2-.7-.4-1-.4-1-.2.7-1.2 1-1.2 1-2 .4-3.2-1.3-3.2-1.3 2.8 6.4 9.2 6.2 10.5 5.4 1.6-1 .5-2.2.5-2.2-1 1.9-2.5 1.3-2.5 1.3.9-2.1-1.3-2.5-1.3-2.5z"/><path class="st3" d="M141.6 105.2c.3.1 4.5 1 7.6 6.3 1.9 2.9 2.5 7.3 3.7 11.9.1.2.1.4.2.7.3 1.1.5 2.2.8 3.2 1 3.5 3.9 9.1 10 9.7 2.7.4 5.4-.3 7-2.3 1.5-1.6 2-3.8 1.6-5.7-.4-1.7-1.7-2.8-3.1-3.4-3.5-1.9-6.7.9-6.7.9s.8-.5 1.2-.3c.5.3.1.9.1.9-.6 1.3-.6 3.4 1.2 4.3 1.8.9 3.2-.5 3.2-.5-1.5.3-2.1-.3-2.3-1.1-.2-.8 1.2-.7 1.2-.7-.8-.1-1.8-1.1-1-2.7.5-.9 1.4-1.1 2-1 .2.1.3.1.5.2 1.5.4 2.9 1.6 3.4 3.4.4 1.7-.1 3.9-1.5 5.3-2.7 3.2-8.5 2.7-11.9-.5-2.7-3-4.2-6.5-5.1-9.9-1.5-4.8-2.1-9.5-4.2-12.6-3.4-5.2-7.6-6-7.9-6.1z"/><path class="st3" d="M153.5 119.7c.4 2.1 1.1 3.3 1.8 4.1 1.2 1.1 2.5 1 3.2.7.4-.2.8-.6 1-1.1.5-1.1.6-2.6-1.1-3.7 0 0 .9 1.7-.5 2.4-1.1.5-2.3-.2-2.3-1.5s1.4-1.1 1.4-1.1-1.6-1.4-3.1-3.3c-1.6-2.1-3.1-4.6-4.2-5.8-.1 0 2.8 4 3.8 9.3z"/></g></g><g><path class="st3" d="M27.7 84.3c6.1.7 10.2-2.5 13.9-6.9 1.2-1.5 2.9-4 4.8-6.6 3.6-4.8 7.7-6.2 9.6-6.7 3.7-.6 6.2.6 6.8.7-.8-.2-5-2.5-11 .4-3.2 1.6-6.2 4.8-9.1 8.5-2.9 3.6-5.8 8.4-11.3 9.7-2.5.7-5.3.6-7.5-.5-2.3-1.1-3.5-3.5-3.4-5.8-.1-2.3 1.1-4.5 3-5.3 1.8-.8 4.1-.3 5.1 1.1.2.3.4.7.5 1 .2.8.2 1.9-.6 2.8-1.5 1.6-1.5-.6-2.5-1.3-1-.7-1.9-.8-1.7-2.1 0 0-2.8 2.8.3 5 0 0 .8.3.7.9-.1.6-1 .3-1 .3s2.5 2.1 5-.8c2.3-2.7.2-7.5-3.5-7.6-.8-.1-1.6.1-2.3.3-2.1.8-3.4 3.2-3.3 5.6-.2 2.4 1.1 5.1 3.6 6.3 1 .6 2.4.9 3.9 1z"/><path class="st3" d="M55.3 59.3s2.1 1.3.3 2.3c-1.8 1.1-8.7-1-12 3.4s-4.7 5.3-6.7 5.1c0 0 3.8 2 6.3-1 2.5-3.1 9.6-8.7 19.1-5.2.1-.1-2.8-4.5-7-4.6z"/><path class="st3" d="M33.6 80.4c3.3 0 4.8-2.8 6.3-5.5 1.9-3.5 4.9-5.3 4.9-5.3s-3.6 1.3-6.1 4.7c-2.5 3.4-6.3 4-7.9 2.5.1 0-.5 3.6 2.8 3.6zM33.5 86.2c.1.7.5 1.2 2.2.6 1.1-.4 2.2-1.3 3.1-2.2 1.4-1.3 2.5-2.6 2.5-2.6s1.5-1.3 1.8 1c0 0 .9-1 .8-2.7-.1-1.7 1-5.3 2.5-4.8s.4 1.9 2.5 2.3c0 0-.4-7 3.2-10.1 3.5-3 6.9-2.7 6.9-2.7s-5.9-1.6-11.8 6.1-5.5 9.8-9.3 12.1c0 0-2.4 1.5-3.6 1.9-.4.1-.9.6-.8 1.1z"/><g><path class="st3" d="M242.6 84.3c-6.1.7-10.2-2.5-13.9-6.9-1.2-1.5-2.9-4-4.8-6.6-3.6-4.8-7.7-6.2-9.6-6.7-3.7-.6-6.2.6-6.8.7.8-.2 5-2.5 11 .4 3.2 1.6 6.2 4.8 9.1 8.5 2.9 3.6 5.8 8.4 11.3 9.7 2.5.7 5.3.6 7.5-.5 2.3-1.1 3.5-3.5 3.4-5.8.1-2.3-1.1-4.5-3-5.3-1.8-.8-4.1-.3-5.1 1.1-.2.3-.4.7-.5 1-.2.8-.2 1.9.6 2.8 1.5 1.6 1.5-.6 2.5-1.3 1-.7 1.9-.8 1.7-2.1 0 0 2.8 2.8-.3 5 0 0-.8.3-.7.9.1.6 1 .3 1 .3s-2.5 2.1-5-.8c-2.3-2.7-.2-7.5 3.5-7.6.8-.1 1.6.1 2.3.3 2.1.8 3.4 3.2 3.3 5.6.2 2.4-1.1 5.1-3.6 6.3-1.1.6-2.5.9-3.9 1z"/><path class="st3" d="M214.9 59.3s-2.1 1.3-.3 2.3c1.8 1.1 8.7-1 12 3.4 3.2 4.4 4.7 5.3 6.7 5.1 0 0-3.8 2-6.3-1-2.5-3.1-9.6-8.7-19.1-5.2 0-.1 2.9-4.5 7-4.6z"/><path class="st3" d="M236.6 80.4c-3.3 0-4.8-2.8-6.3-5.5-1.9-3.5-4.9-5.3-4.9-5.3s3.6 1.3 6.1 4.7c2.5 3.4 6.3 4 7.9 2.5 0 0 .5 3.6-2.8 3.6zM236.8 86.2c-.1.7-.5 1.2-2.2.6-1.1-.4-2.2-1.3-3.1-2.2-1.4-1.3-2.5-2.6-2.5-2.6s-1.5-1.3-1.8 1c0 0-.9-1-.8-2.7.1-1.7-1-5.3-2.5-4.8s-.4 1.9-2.5 2.3c0 0 .4-7-3.2-10.1-3.5-2.9-6.8-2.7-6.8-2.7s5.9-1.6 11.8 6.1c5.9 7.7 5.5 9.8 9.3 12.1 0 0 2.4 1.5 3.6 1.9.2.1.8.6.7 1.1z"/></g></g><g><path class="st3" d="M158.9 115.8c.2.8.8 1.5 1.7 1.5.9 0 1.5-.6 1.5-1.5v-.1c0-.1-.1-.7-.6-1-.2-.1-.3-.2-.5-.2h-.2c-.4 0-.7.3-.7.7 0 .4.3.7.7.7.3 0 .5-.2.6-.4.1.1.1.2.1.2 0 .5-.4.9-.9.9-.8 0-1.2-.7-1.2-1.3 0-1.6 1.5-2 2.7-2h.4c.2.1.3.1.4.1.4.2.5.5.7.9l.1.2.2-.2c.2-.2.6-.5 1.1-.7.5-.2 1.1-.2 1.7-.3h.2c-.3.3-.5.6-.7 1-.3.9-.1 2.2.5 2.9.7.8 1.6 1.2 2.8 1.2.6 0 1.4-.2 2.1-.4.1 0 .1 0 .1-.1h.1c.3-.1.6-.2.9-.4 1-.5 1.8-1.1 2.7-1.7.9-.7 1.8-1.3 2.8-1.8 1-.5 1.9-.8 2.6-.8s1.2.2 1.7.7c.3.3.4.7.4 1.1s-.2.8-.4 1c-.4.4-1.1.5-1.6.3-.2-.1-.3-.3-.4-.5v-.1c.1.2.3.4.6.4.4 0 .6-.3.6-.7 0-.2-.1-.3-.2-.4l-.2-.2c-.3-.2-.8-.2-1.1.1-.3.2-.4.6-.3.9.1.4.3.8.6 1 .2.1.5.2.8.2.5 0 1.1-.2 1.4-.5.4-.4.6-.9.6-1.4 0-.5-.2-1.1-.6-1.5-.2-.2-.4-.4-.7-.5h20.5c1.2 0 2.7.3 2.7 2 0 .6-.4 1.3-1.2 1.3-.5 0-.9-.3-.9-.9 0 0 0-.1.1-.2.1.2.4.4.6.4.4 0 .7-.3.7-.7 0-.4-.3-.7-.7-.7h-.1c-.2 0-.4.1-.6.2-.5.3-.6.9-.6 1v.1c0 .9.6 1.5 1.5 1.5 1.1 0 1.7-.9 1.7-1.9 0-.9-.4-2.5-3.2-2.5h-40.3c-2.4 0-3.1 1.2-3.2 2.1l-.1 1zm19.9-2.3c-.3.1-.7.3-1.1.4-1 .5-1.9 1.2-2.9 1.9-.3.2-.6.5-1 .7.1-.2.2-.3.3-.4.4-1 .4-1.9-.1-2.5l-.1-.1h4.9zm-11.1.3c.1 0 .2-.1.3-.1.2 0 .3.1.4.1-.3.1-.6.3-.6.7 0 .2.1.3.2.4.1.2.4.3.6.3.4-.1.8-.4.8-.9 0-.3-.1-.5-.4-.8h2.7l-.1.1c-.2.3-.3.7-.2 1.1.1.3.4.6.7.7.1.1.3.1.4.1.4 0 .6-.2.8-.4.2-.3 0-.7-.2-.8-.1-.1-.3-.2-.4-.1-.3 0-.6.3-.6.7-.1-.1-.1-.1-.1-.2-.1-.2-.1-.4.1-.6.2-.3.5-.4.8-.4h.1c.3 0 .6.1.8.4.5.6.2 1.5 0 2-.3.7-1 1.3-2.2 2-.7.3-1.4.4-2 .4-1 0-1.8-.3-2.4-1-.5-.6-.7-1.6-.4-2.3-.1-.7.1-1.3.9-1.4zM111.4 115.8c-.2.8-.8 1.5-1.7 1.5-.9 0-1.5-.6-1.5-1.5v-.1c0-.1.1-.7.6-1 .2-.1.3-.2.5-.2h.2c.4 0 .7.3.7.7 0 .4-.3.7-.7.7-.3 0-.5-.2-.6-.4-.1.1-.1.2-.1.2 0 .5.4.9.9.9.8 0 1.2-.7 1.2-1.3 0-1.6-1.5-2-2.7-2h-.4c-.2.1-.3.1-.4.1-.4.2-.5.5-.7.9l-.1.2-.2-.2c-.2-.2-.6-.5-1.1-.7-.5-.2-1.1-.2-1.7-.3h-.2c.3.3.5.6.7 1 .3.9.1 2.2-.5 2.9-.7.8-1.6 1.2-2.8 1.2-.6 0-1.4-.2-2.1-.4-.1 0-.1 0-.1-.1h-.1c-.3-.1-.6-.2-.9-.4-1-.5-1.8-1.1-2.7-1.7-.9-.7-1.8-1.3-2.8-1.8-1-.5-1.9-.8-2.6-.8-.7 0-1.2.2-1.7.7-.3.3-.4.7-.4 1.1s.2.8.4 1c.4.4 1.1.5 1.6.3.2-.1.3-.3.4-.5v-.1c-.1.2-.3.4-.6.4-.4 0-.6-.3-.6-.7 0-.2.1-.3.2-.4l.2-.2c.3-.2.8-.2 1.1.1.3.2.4.6.3.9-.1.4-.3.8-.6 1-.2.1-.5.2-.8.2-.5 0-1.1-.2-1.4-.5-.4-.4-.6-.9-.6-1.4 0-.5.2-1.1.6-1.5.2-.2.4-.4.7-.5H67.7c-1.2 0-2.7.3-2.7 2 0 .6.4 1.3 1.2 1.3.5 0 .9-.3.9-.9 0 0 0-.1-.1-.2-.1.2-.4.4-.6.4-.4 0-.7-.3-.7-.7 0-.4.3-.7.7-.7h.1c.2 0 .4.1.6.2.5.3.6.9.6 1v.1c0 .9-.6 1.5-1.5 1.5-1.1 0-1.7-.9-1.7-1.9 0-.9.4-2.5 3.2-2.5H108c2.4 0 3.1 1.2 3.2 2.1v.8h.2zm-19.9-2.3c.3.1.7.3 1.1.4 1 .5 1.9 1.2 2.9 1.9.3.2.6.5 1 .7-.1-.2-.2-.3-.3-.4-.4-1-.4-1.9.1-2.5l.1-.1h-4.9zm11 .3c-.1 0-.2-.1-.3-.1-.2 0-.3.1-.4.1.3.1.6.3.6.7 0 .2-.1.3-.2.4-.1.2-.4.3-.6.3-.4-.1-.8-.4-.8-.9 0-.3.1-.5.4-.8h-2.7l.1.1c.2.3.3.7.2 1.1-.1.3-.4.6-.7.7-.1.1-.3.1-.4.1-.4 0-.6-.2-.8-.4-.2-.3 0-.7.2-.8.1-.1.3-.2.4-.1.3 0 .6.3.6.7.1-.1.1-.1.1-.2.1-.2.1-.4-.1-.6-.2-.3-.5-.4-.8-.4h-.1c-.3 0-.6.1-.8.4-.5.6-.2 1.5 0 2 .3.7 1 1.3 2.2 2 .7.3 1.4.4 2 .4 1 0 1.8-.3 2.4-1 .5-.6.7-1.6.4-2.3.2-.7-.1-1.3-.9-1.4z"/></g></svg>