<svg id="logo" xmlns="http://www.w3.org/2000/svg" viewBox="0 0 253.4 137"><style>.st0{fill:#fff}.st1{fill:#e9dfd1}.st2{fill:#671700}.st3{fill:none;stroke:#e9dfd1;stroke-width:3;stroke-miterlimit:10}.st4{fill:#d3c2b2}</style><path class="st0" d="M253.3 52.6c-20.6 49.6-69.5 84.4-126.5 84.4S20.9 102.1.3 52.6M14.5 0H239v52.6H14.5z"/><path class="st1" d="M165.2 42.5c5.9 5.7 12.5 11.7 16.5 13.7 2.5 1.3 4.6 1.4 5.9.5 1.2-.8 2.5-2.2 3.9-3 2.9-1.7 4.2-1.1 5.2-.8-1 .5-2.4.5-3.7 2.4-2.4 3.4-5.7 7-10.3 4.8-4-1.9-10.2-7.9-19.9-17.6M199.7 79.8c-.3.2-.7.3-1 .3 0 .2-.1.4-.2.6-.5.8-1.4 1.2-2 .9-.6-.4-.7-1.3-.3-2.2.3-.6.9-1 1.4-1 .2-.3.5-.7.8-.9.8-.5 1.8-.4 2.2.2.4.8 0 1.7-.9 2.1z"/><path class="st1" d="M185.2 62.9c9.3 4.1 13.8-1.8 16.2-5.7 1.7-2.8 4.9-1.8 5.6-.4.5 1 .1 2.3-1 2.7-.2-.2-.1-1-.8-1.1-1.8-.1-1.4 1.5-.7 2 .8.5 1.9.5 2.7-.3 4.3-3.9-2.9-10.7-9.4-6.1-2.5 1.7-3.1 4.9-5.7 6.8-1.4 1.1-3.5 1.7-6.9 2.1zM168.1 42.3c2.2 4.1 7.2 7.6 11.9 7.6 1.8 0 3.5-.1 4.3.7.5.5.6 2.2-.8 2.4 1.1 2.1 6.3.2 4.2-4.5-.4-.8-1.2-1.3-1.9-1.6-1.9-1-4.6-.2-9.1-1.2-2.3-.4-5.3-1.3-8.6-3.4zM186.8 68.2l-.2-.2s3.7 8.4-2.6 10.3c3.6.8 6.2-1.2 7.5-2.8.4.2.5 1 .5 1.7-.6.2-1.1.8-1.1 1.5 0 .9.7 1.6 1.6 1.6.9 0 1.6-.7 1.6-1.6 0-.7-.4-1.2-1-1.5 0-1.1-.3-2.6-.5-3.2.4.2 2.2.6 3.5.5.2.6.8 1 1.5 1 .9 0 1.6-.7 1.5-1.6 0-.9-.7-1.6-1.6-1.6-.7 0-1.3.5-1.5 1.1-.7 0-1.4-.1-1.7-.5 1.5-1.3 3.6-4 2.7-7.5-1.7 6.1-9.4 3.1-10.2 2.8zM158.7 42.5c11.1 10.6 17.7 17.3 20 21.5 2.3 4.5-1.3 7.9-4.6 10.3-1.9 1.4-1.9 2.8-2.4 3.7-.3-1-.9-2.3.7-5.2.8-1.4 2.2-2.7 3-4s.7-3.4-.6-5.9c-2.7-4.9-11.5-13.8-18.4-20.4"/><path class="st1" d="M181.3 66.5c4.3 9.3-1.6 13.8-5.5 16.3-2.7 1.8-1.8 5-.3 5.6 1 .4 2.3.1 2.7-1-.2-.2-1-.1-1.1-.8-.1-1.8 1.5-1.4 2-.7.5.8.5 1.9-.2 2.7-3.8 4.3-10.7-2.7-6.3-9.3 1.7-2.5 4.9-3.1 6.7-5.8 1.1-1.5 1.6-3.6 2-7zM160.5 49.7c2.2 3.2 3.1 6.3 3.6 8.6 1 4.5.3 7.3 1.3 9.1.3.6.8 1.5 1.6 1.8 4.7 2 6.6-3.3 4.4-4.3-.2 1.5-1.8 1.4-2.4.9-.9-.8-.8-2.5-.8-4.3 0-4.7-3.6-9.6-7.7-11.8z"/><path class="st1" d="M152.8 42.5c6.5 8 5.9 16.2 4.3 25.6-1.5 8.4 5 11.7 7.9 9.3 1.3-1 1.4-2.8.4-3.6-.1 1.7-2.9 2.3-3.9.8-1.3-2 1.1-4.2 3.4-4.1 1.6.1 5.1 2 3.7 6.7-2.2 6.9-13.6 5.2-13.8-6.6-.3-8.6 5.2-16.4-4.2-28.1M141.5 100.7c1.4-.8 3.3-1.1 6.3-6.5 1-1.9 2-3.4 3.3-4.2 2.2-1.3 5.7-1.4 7.1-.2.2-.9-4.2-7.6-9.1-1.8-3.9 4.6-2.1 8.7-7.6 12.7zM131.2 106.1c.3 1.7 4.2 2.4 5.2-.3 1.3-3.2-2.6-6.6-4.8-7.3.6 1 2.6 4.3 2 6.4-.2.8-.9 1.3-2.4 1.2zM133 97.4c3.3 1.2 5.6.6 6-.9.4-1.3.3-3.3-1.9-3.4 2.5-2.8 6.9.3 5.9 4-1 3.4-5.7 5.2-10 .3zM132.8 97.1c-1-2.2-2.4-5.6 5.3-10.5 3.8-2.4 8.1-6.1 11-10.1s3.8-7.6 4.2-10.7c-9.3 16.9-16.2 13.6-20.8 20.3-2.9 4.1-2.6 8.7.3 11z"/><path class="st1" d="M150.2 45.6c.3 1 3.1 4.7.9 11.4-1.1 3.4-3.8 5.4-6.3 5.6-2.4.2-4.8-.5-5.8-2.1-1.9-3-1.4-7.3 2.1-8s4.8 3.1 5 4c1.6-1 1.4-4.9.3-6.4-1.1-1.5-3.1-1.4-4.9-1.4-.7-.2-.7-2.7-.6-3-1.6-.1-3.4.6-3.3 3.2 0 0-1.5.2-2.5.1-.7.5-.8 2.3-.9 3-.3.1-1.3 0-2.5-.5-.6 1.1-.8 5.4.1 6.9-.1.3-1.1.4-2 .6-.4 5.6 2 6.6 4.1 6.6-.1.3-2.7 6.3 7.9 5.9 16.6-.9 13.5-23.9 8.4-25.9zM97 42.5c-6.8 6.8-15.8 16.1-18.4 21.2-1.3 2.5-1.4 4.6-.5 5.9.8 1.2 2.2 2.5 3 3.9 1.7 2.9 1.1 4.2.8 5.2-.5-1-.5-2.4-2.4-3.7-3.4-2.4-7-5.7-4.8-10.3 2.1-4.3 8.8-11.2 20-22.2M54.9 81.7c-.2-.3-.3-.7-.3-1-.2 0-.4-.1-.6-.2-.8-.5-1.3-1.4-.9-2s1.3-.7 2.2-.3c.6.3 1 .9 1 1.4.3.2.7.5.9.8.5.8.4 1.8-.2 2.2-.7.4-1.6 0-2.1-.9z"/><path class="st1" d="M71.9 67.2c-4.1 9.3 1.8 13.8 5.7 16.3 2.8 1.7 1.8 4.9.4 5.6-.9.5-2.3.1-2.7-1 .2-.2 1-.1 1.1-.8.1-1.8-1.5-1.4-2-.7-.5.8-.5 1.9.3 2.7 3.8 4.3 10.7-2.9 6.1-9.4-1.8-2.5-4.9-3.1-6.8-5.7-1.1-1.5-1.7-3.6-2.1-7zM92.5 50.1c-4.1 2.2-7.6 7.2-7.6 11.9 0 1.8.1 3.5-.7 4.3-.6.5-2.2.6-2.4-.8-2.1 1.1-.2 6.3 4.5 4.2.8-.4 1.3-1.2 1.6-1.9 1-1.9.2-4.6 1.2-9.1.4-2.3 1.3-5.3 3.4-8.6z"/><path class="st1" d="M102.7 42.5c-9.7 12-3.9 19.8-4 28.4-.1 11.8-11.5 13.7-13.7 6.8-1.6-4.7 2-6.7 3.6-6.8 2.3-.1 4.7 2 3.4 4-1 1.6-3.8 1-3.9-.7-.9.8-.8 2.6.5 3.6 2.9 2.3 9.3-1.1 7.7-9.4-1.8-9.5-2.5-17.8 4.1-25.9M112.2 100.8c-5.6-4-3.8-8.1-7.7-12.6-5-5.8-9.4 1.1-9.1 1.9 1.3-1.2 4.9-1.2 7.1.1 1.3.8 2.3 2.3 3.4 4.2 3 5.3 4.9 5.7 6.3 6.4zM122.6 106.1c-.3 1.7-4.1 2.5-5.3-.3-1.3-3.2 2.5-6.6 4.7-7.4-.6 1-2.6 4.3-1.9 6.5.3.8 1 1.3 2.5 1.2z"/><path class="st1" d="M120.7 97.4c-4.2 5-9 3.3-10-.1-1.1-3.7 3.3-6.8 5.8-4-2.2.1-2.3 2.1-1.8 3.4.4 1.4 2.7 1.9 6 .7zM120.8 97.1c2.9-2.4 3.1-7 .2-11-4.8-6.6-11.6-3.2-21.1-20 .4 3 1.4 6.6 4.4 10.6s7.3 7.6 11.1 9.9c7.7 4.9 6.4 8.3 5.4 10.5z"/><path class="st1" d="M102.7 45.8c-5 2-7.8 25.1 8.8 25.4 10.6.2 7.9-5.7 7.8-6 2.1 0 4.4-1 4-6.6-.9-.2-1.9-.3-2-.5.9-1.5.7-5.7 0-6.9-1.2.5-2.2.6-2.5.5-.1-.6-.2-2.5-.9-2.9-1 .2-2.5 0-2.5 0 .1-2.6-1.8-3.2-3.3-3.1.2.4.2 2.8-.5 3.1-1.8.1-3.8 0-4.9 1.5s-1.2 5.4.4 6.4c.2-.8 1.4-4.7 5-4 3.5.7 4.1 5 2.3 7.9-1 1.6-3.4 2.4-5.8 2.2-2.6-.2-5.2-2.1-6.4-5.5-2.6-6.8.2-10.4.5-11.5zM66.6 68.8l.2-.2s-8.4 3.7-10.3-2.6c-.8 3.6 1.2 6.2 2.8 7.5-.2.4-1 .5-1.7.5-.2-.6-.8-1.1-1.5-1.1-.9 0-1.6.7-1.6 1.6 0 .9.7 1.6 1.6 1.6.7 0 1.2-.4 1.5-1 1.1 0 2.6-.3 3.2-.5-.2.4-.6 2.2-.5 3.5-.6.2-1 .8-1 1.5 0 .9.7 1.6 1.6 1.5.9 0 1.6-.7 1.6-1.6 0-.7-.5-1.3-1.1-1.5 0-.7.1-1.4.5-1.7 1.3 1.5 4 3.6 7.6 2.7-6.2-1.7-3.2-9.4-2.9-10.2zM90.5 42.5c-9.6 9.9-15.7 16-19.7 18.1-4.5 2.3-7.9-1.3-10.3-4.6-1.4-1.9-2.8-1.9-3.7-2.4 1-.3 2.3-.9 5.2.7 1.4.8 2.7 2.2 4 3s3.4.7 5.9-.6c3.9-2.2 10.5-8.3 16.3-14.2"/><path class="st1" d="M68.3 63.3C59 67.6 54.5 61.7 52 57.8c-1.8-2.7-5-1.8-5.6-.3-.4 1-.1 2.3 1 2.7.2-.2.1-1 .8-1.1 1.8-.1 1.5 1.5.7 2s-1.9.5-2.7-.2c-4.3-3.8 2.8-10.7 9.3-6.3 2.5 1.7 3.1 4.9 5.8 6.7 1.5 1.1 3.6 1.6 7 2zM85.1 42.5c-3.2 2.2-6.3 3.1-8.6 3.6-4.5 1-7.3.3-9.1 1.3-.6.3-1.5.8-1.8 1.7-2 4.7 3.3 6.6 4.3 4.4-1.5-.2-1.4-1.8-.9-2.4.8-.9 2.5-.8 4.3-.8 4.7-.1 9.6-3.7 11.8-7.8z"/><path class="st2" d="M37.2 3.1c.3.1.6.3.8.6.2.2.4.5.5.8.1.3.2.7.2 1 0 .4-.1.7-.2 1-.1.3-.3.6-.5.8-.2.2-.5.4-.8.5-.3.1-.7.2-1 .2-.4 0-.7-.1-1-.2-.3-.1-.6-.3-.8-.5-.2-.2-.4-.5-.5-.8-.1-.3-.2-.6-.2-1 0-.6.1-1.2.2-1.8.2-.6.4-1.1.7-1.5.3-.4.7-.8 1.2-1.1.5-.3 1-.4 1.7-.4 1.5 0 2.6.4 3.3 1.3 0 0 .1.1.1.2.1.1.2.3.3.4.1.2.2.3.3.4l.2.2h.1V.7H46v38.4h-4.2v-20l-4.2 3.4v16.6h-4.2V23.8l7.8-6.2v-1l-.4.2c-.2.1-.5.3-.8.5s-.7.3-1.1.5c-.4.1-.8.2-1.2.2-.6 0-1.1-.1-1.7-.4-.5-.3-1-.6-1.3-1.1-.4-.4-.7-1-.9-1.5s-.3-1.2-.3-1.7c0-.7.1-1.2.2-1.7.1-.4.4-.8.6-1.1s.6-.5 1-.7c.4-.2.9-.4 1.4-.6.4-.2.8-.4 1.3-.6.5-.2 1-.5 1.5-.8.5-.3.9-.6 1.2-.9s.5-.6.5-.8v-2c0-.3-.1-.5-.3-.8-.2-.3-.4-.6-.7-.8s-.6-.5-1-.7c-.3-.2-.7-.3-.9-.3h-.9c-.3 0-.6.1-.9.1-.2.2-.5.3-.7.4-.2.1-.3.3-.3.6 0 0 0 .1.1.1s.1.1.2.1.2.1.2.1h.1c.5 0 .8.1 1.1.2zm4 4.3c-.4.4-.8.8-1.2 1.1l-1.2 1.2c-.4.3-.7.8-.8 1.3-.2.5-.3 1.1-.3 1.6 0 .4 0 .8.1 1.2.1.4.2.8.4 1.1.2.3.4.6.6.8.2.2.5.3.9.3 1.5 0 2.2-.6 2.2-1.8v-7h-.7zM60.3 6.8V1.5h-1.9V39H54V1.5h-2.1v9.9h-4.2V.7h17v6.2h-4.4zM69.8 3.1c.3.1.6.3.8.6.2.2.4.5.5.8.1.3.2.7.2 1 0 .4-.1.7-.2 1-.1.3-.3.6-.5.8-.2.2-.5.4-.8.5-.3.1-.7.2-1 .2-.4 0-.7-.1-1-.2-.3-.1-.6-.3-.8-.5-.2-.2-.4-.5-.5-.8-.1-.3-.2-.6-.2-1 0-.6.1-1.2.2-1.8.2-.6.4-1.1.7-1.5.3-.4.7-.8 1.2-1.1.5-.3 1-.4 1.7-.4 1.5 0 2.6.4 3.3 1.3 0 0 .1.1.1.2.1.1.2.3.3.4.2.3.3.4.4.5l.2.2h.1V.7h4.2v38.4h-4.2v-20l-4.2 3.4v16.6h-4.2V23.8l7.8-6.2v-1l-.4.2c-.2.1-.5.3-.8.5s-.7.3-1.1.5c-.4.1-.8.2-1.2.2-.6 0-1.1-.1-1.7-.4-.5-.3-1-.6-1.3-1.1-.4-.4-.7-1-.9-1.5s-.3-1.2-.3-1.7c0-.7.1-1.2.2-1.7.1-.4.4-.8.6-1.1s.6-.5 1-.7c.4-.2.9-.4 1.4-.6.4-.2.8-.4 1.3-.6.5-.2 1-.5 1.5-.8.5-.3.9-.6 1.2-.9s.5-.6.5-.8v-2c0-.3-.1-.5-.3-.8-.2-.3-.4-.6-.7-.8s-.6-.5-1-.7c-.3-.2-.7-.3-.9-.3h-.9c-.3 0-.6.1-.9.1-.3.1-.5.2-.7.3-.2.1-.3.3-.3.6 0 0 0 .1.1.1s.1.1.2.1.2.1.2.1h.1c.4.1.7.2 1 .3zm4 4.3c-.4.4-.8.8-1.2 1.1l-1.2 1.2c-.4.3-.7.8-.8 1.3-.2.5-.3 1.1-.3 1.6 0 .4 0 .8.1 1.2.1.4.2.8.4 1.1.2.3.4.6.6.8.2.2.5.3.9.3 1.5 0 2.2-.6 2.2-1.8v-7h-.7zM84.5 3.1c.3.1.6.3.8.6s.4.5.5.8c.1.3.2.7.2 1 0 .4-.1.7-.2 1-.1.3-.3.6-.5.8-.2.2-.5.4-.8.5-.3.1-.7.2-1 .2-.4 0-.7-.1-1-.2-.3-.1-.6-.3-.8-.5-.2-.2-.4-.5-.5-.8-.1-.3-.2-.6-.2-1 0-.6.1-1.2.2-1.8.2-.6.4-1.1.7-1.5.3-.5.7-.8 1.2-1.1.5-.3 1-.4 1.7-.4.6 0 1.1 0 1.5.1.4.1.8.2 1.1.4s.6.5.8.8c.2.3.5.8.7 1.3V.7h4.4v22.7l2.9-7.4c.1-.2.1-.3.1-.5v-.4c0-.3-.1-.6-.2-1L95 12.6l.8-2.9 1.8 2V.7h4.5v38.4h-4.5V16l-2.5 6.4c-.4 1-.5 1.8-.5 2.5v.5c0 .1.1.3.1.4l1.1 1.4-.7 3.1-1.7-1.9v10.7H89V19.3l-4 3.2v16.6h-4.2V23.8l7.8-6.2v-1l-.4.2c-.2.1-.5.3-.8.5-.3.2-.7.3-1.1.5-.5.1-.9.2-1.3.2-.6 0-1.1-.1-1.7-.4-.5-.3-1-.6-1.3-1.1-.4-.4-.7-1-.9-1.5-.2-.6-.3-1.2-.3-1.7 0-.7.1-1.2.2-1.7.1-.4.4-.8.6-1.1.3-.3.6-.5 1-.7.4-.2.9-.4 1.4-.6.4-.2.8-.4 1.3-.6.5-.2 1-.5 1.5-.8.5-.3.9-.6 1.2-.9.3-.3.5-.6.5-.9V4.1c0-.3-.1-.5-.3-.8-.2-.3-.5-.6-.8-.8-.3-.3-.6-.5-1-.7-.3-.2-.7-.3-.9-.3h-.9c-.4 0-.6.1-.9.1s-.3.2-.5.4c-.2.1-.3.3-.3.6 0 0 0 .1.1.1s.1.1.2.1.1.1.2.1h.1c.4 0 .7.1 1 .2zm4 4.3c-.4.4-.8.8-1.2 1.1l-1.2 1.2c-.4.4-.6.8-.8 1.4-.2.5-.3 1.1-.3 1.6 0 .4 0 .8.1 1.2.1.4.2.8.4 1.1.2.3.4.6.6.8.2.2.5.3.9.3 1 0 1.6-.3 2-.9V7.4h-.5zM107.7 3.1c.3.1.6.3.8.6.2.2.4.5.5.8.1.3.2.7.2 1 0 .4-.1.7-.2 1-.1.3-.3.6-.5.8-.2.2-.5.4-.8.5-.3.1-.7.2-1 .2-.4 0-.7-.1-1-.2-.3-.1-.6-.3-.8-.5-.2-.2-.4-.5-.5-.8-.1-.3-.2-.6-.2-1 0-.6.1-1.2.2-1.8.2-.6.4-1.1.7-1.5.3-.4.7-.8 1.2-1.1.5-.3 1-.4 1.7-.4 1.5 0 2.6.4 3.3 1.3 0 0 .1.1.1.2.1.1.2.3.3.4.1.2.2.3.3.4l.2.2h.1V.7h4.2v38.4h-4.2v-20l-4.2 3.4v16.6H104V23.8l7.8-6.2v-1l-.4.2c-.2.1-.5.3-.8.5s-.7.3-1.1.5c-.4.1-.8.2-1.2.2-.6 0-1.1-.1-1.7-.4-.5-.3-1-.6-1.3-1.1-.4-.4-.7-1-.9-1.5s-.3-1.2-.3-1.7c0-.7.1-1.2.2-1.7.1-.4.4-.8.6-1.1s.6-.5 1-.7c.4-.2.9-.4 1.4-.6.4-.2.8-.4 1.3-.6.5-.2 1-.5 1.5-.8.5-.3.9-.6 1.2-.9s.5-.6.5-.8v-2c0-.3-.1-.5-.3-.8-.2-.3-.4-.6-.7-.8s-.6-.5-1-.7c-.3-.2-.7-.3-.9-.3h-.9c-.3 0-.6.1-.9.1-.3.1-.5.2-.7.3-.2.1-.3.3-.3.6 0 0 0 .1.1.1s.1.1.2.1.2.1.2.1h.1c.4.1.7.2 1 .3zm4 4.3c-.4.4-.8.8-1.2 1.1l-1.2 1.2c-.4.4-.6.8-.8 1.4-.2.5-.3 1.1-.3 1.6 0 .4 0 .8.1 1.2.1.4.2.8.4 1.1.2.3.4.6.6.8.2.2.5.3.9.3 1.5 0 2.2-.6 2.2-1.8v-7h-.7zM127.3 23.4V.7h4.4v38.4h-4.4V28.4l-1.7 1.9-.7-3.1 1.1-1.4c.1-.1.1-.2.1-.4v-.5c0-.7-.2-1.5-.5-2.5l-2.5-6.4v23h-4.5V.7h4.5v11l1.8-2 .8 2.9-1.3 1.6c-.2.2-.2.5-.2 1v.4c0 .1.1.3.1.5l3 7.3zM133.9 39.1V.7h4.3V16h.3c.8-1.3 2-2.4 3.9-3.4V.6h4.5v12c-.3 0-.8.1-1.3.2s-1 .4-1.6.6-1.1.6-1.6.9-1 .7-1.4 1.1-.8.8-1 1.2-.4.8-.4 1.2c0 .5.1.9.4 1.3s.6.8 1 1.1.9.7 1.4.9 1.1.5 1.6.7 1.1.3 1.6.4.9.2 1.3.2v16.5h-4.5V22.6c-1.6-.5-2.9-1.5-3.9-3h-.3v19.5h-4.3zM161.7 5c-.3 0-.6.3-1 .8s-.6 1.3-.9 2.2c-.3.9-.6 1.9-.8 3s-.5 2.2-.7 3.4-.4 2.2-.6 3.2-.3 1.9-.4 2.6c-.3 1.8-.5 3.6-.6 5.3 1.8 0 3.1.9 4 2.6.7 1.4 1.1 3 1.1 5 0 .9-.2 1.8-.5 2.5s-.8 1.4-1.5 1.9-1.3.9-2.2 1.2-1.7.4-2.6.4-1.8-.2-2.6-.5-1.5-.7-2.1-1.3-1-1.2-1.4-1.9-.5-1.6-.5-2.5c0-2.3.7-4.1 2.2-5.6.7-.7 1.4-1.2 2.1-1.5s1.6-.5 2.4-.5l1.4-7.9h-3.4L148.6.5h4.1l3.6 13.7h.5c.1-.6.1-1.1.2-1.6s.1-1 .2-1.6.2-1.1.2-1.7.2-1.1.2-1.6c.1-.5.1-.9.2-1.1.1-.7.3-1.4.5-2.1s.5-1.4.8-2 .7-1.1 1.1-1.5.9-.6 1.4-.6V5zm-10.5 27.4c.2.6.6 1.1 1.1 1.5.8.6 1.8 1 3.2 1 .7 0 1.4-.1 1.9-.3s1.1-.5 1.5-.9.7-.9.9-1.4c.2-.6.3-1.2.3-1.9 0-.5-.1-.9-.3-1.4s-.5-.9-.8-1.3-.7-.7-1.1-.9-.9-.4-1.3-.4c0 .3-.1.6-.2 1s-.2.8-.3 1.3-.2.9-.4 1.4-.3.9-.4 1.3-.3.8-.4 1.1-.3.5-.5.7l-1.3-2.8 1.6-1 .6-2.9c-.5 0-1.1.1-1.6.3s-1 .4-1.4.8-.8.7-1 1.2-.4 1-.4 1.6c-.1.8 0 1.4.3 2zM173.3 19.1c.3.1.6.3.8.6s.4.5.6.8.2.7.2 1c0 .4-.1.7-.2 1s-.3.6-.5.8-.5.4-.8.5-.7.2-1 .2c-.5 0-.8-.1-1.2-.2s-.7-.3-1-.5-.7-.5-1.1-.9-.8-.8-1.4-1.3v18h-4V.7h13v13.5c-1.1.5-2.1.9-3.1 1.2s-1.8.7-2.5 1-1.3.7-1.7 1c-.4.4-.6.8-.6 1.3 0 .7.1 1.3.3 1.9s.5 1 .9 1.3c0-.4.1-.8.2-1.1s.3-.7.5-1 .5-.5.8-.7.7-.2 1-.2c.2-.1.5 0 .8.2zm-1-17.6h-4.6v14.9l4.6-2.1V1.5zM186.9 4.4c0-.3-.1-.6-.2-.9s-.3-.5-.5-.7-.5-.3-.7-.5-.6-.2-.9-.2c-.3 0-.5.1-.8.2s-.5.3-.6.6-.3.5-.4.8-.2.6-.2.9v10.1h4.4c1.8 0 3 .9 3.6 2.7.4 1.1.6 2.7.6 4.9H187V18c0-.2-.1-.4-.2-.6s-.3-.4-.6-.6-.5-.3-.7-.5-.5-.2-.7-.2c-.2 0-.5.1-.8.2s-.5.2-.7.4-.4.4-.5.6-.2.5-.2.7v15.8c0 2.5.3 3.7.9 3.7.4 0 .8-.2 1.2-.5s.6-.8.9-1.4.5-1.3.6-2.1.3-1.6.4-2.4.2-1.7.2-2.5.1-1.6.1-2.3h4.2c0 3.9-.9 7.1-2.7 9.4-1.7 2.2-3.9 3.4-6.6 3.4-.5 0-1 0-1.4-.1s-.9-.2-1.3-.4-.7-.4-1-.7-.4-.6-.4-1c0-.9.1-1.5.3-1.9.3-.5.8-.8 1.7-.8.1 0 .3.1.4.4s.3.5.4.8.3.5.4.8.3.4.5.4c-.2-.9-.4-2-.7-3.1s-.5-2.3-.7-3.5-.4-2.4-.6-3.7-.4-2.4-.5-3.6-.3-2.2-.4-3.2-.1-1.9-.1-2.6c0-4.3.5-7.9 1.4-10.8 1.1-3.5 2.7-5.3 4.8-5.3 1.4 0 2.5.2 3.4.7s1.5 1.1 2 1.8.8 1.7.9 2.8.2 2.3.2 3.6v3.9h-4.2V4.4zM201.6 23.4V.7h4.4v38.4h-4.4V28.4l-1.7 1.9-.7-3.1 1.1-1.4c.1-.1.1-.2.1-.4v-.5c0-.7-.2-1.5-.5-2.5l-2.5-6.4v23H193V.7h4.5v11l1.8-2 .8 2.9-1.3 1.6c-.2.2-.2.5-.2 1v.4c0 .1.1.3.1.5l2.9 7.3zM215.9 20.6c-.3-.2-.6-.4-.8-.7s-.4-.5-.5-.8-.2-.5-.2-.8l-.6.9c-.2.3-.3.5-.4.9s-.2.6-.2.9c0 .5.2 1 .7 1.3s1 .7 1.8 1.1 1.6.7 2.5 1 2 .7 3 1.1V39h-13V.7h4v18c.5-.5 1-.9 1.4-1.3s.7-.7 1.1-.9.7-.4 1-.5c.3-.1.7-.2 1.2-.2.4 0 .7.1 1 .2.3.1.6.3.8.5s.4.5.5.8.2.7.2 1-.1.7-.2 1-.3.6-.5.8-.5.4-.8.6-.6.2-1 .2-.7-.1-1-.3zm.8 17.6V25.4l-4.6-2.1v14.9h4.6z"/><path class="st3" d="M240.9 52c-19.8 43.3-63.4 73.4-114.2 73.4C76 125.4 32.3 95.3 12.6 52"/><path class="st0" d="M13.5 49.5l.3 1.6.7 1.5v-3.1zM240 49.5l-.4 1.6-.6 1.5v-3.1z"/></svg>