<svg id="Organization" xmlns="http://www.w3.org/2000/svg" viewBox="0 0 335.8 62"><style>.organization0{fill:#671700}.organization1{fill:#c9a468}</style><path class="organization0" d="M67.3 39.7l1.1-.8c-9.3-11.4-18.7-11-29.9-9.1-8.2 1.4-11.4-4.9-9.1-7.7 1-1.2 2.7-1.3 3.5-.4-1.7.1-2.3 2.9-.8 3.8 2 1.3 4.1-1.1 4-3.3-.1-1.6-1.9-5-6.5-3.6-6.7 2.1-5 13.3 6.5 13.5 9.2.2 17.6-6.4 31.2 7.6zM6.7 44.9c.8-1.4 1.1-3.2 6.4-6.1 1.8-1 3.3-2 4.1-3.3 1.3-2.1 1.3-5.6.2-6.9.9-.2 7.5 4.1 1.8 8.9-4.5 3.8-8.5 2-12.5 7.4zM1.5 54.9c-1.7-.3-2.3-4.1.3-5.1C5 48.6 8.2 52.3 9 54.4c-1-.6-4.2-2.6-6.3-1.9-.8.3-1.3 1-1.2 2.4zM10 53.2c-4.8-4.2-3.1-8.8.3-9.8 3.6-1 6.6 3.3 3.8 5.7 0-2.1-2-2.2-3.3-1.8-1.5.5-1.9 2.7-.8 5.9z"/><path class="organization0" d="M10.2 53.3c2.1 1 5.5 2.3 10.2-5.2 2.4-3.7 5.9-7.9 9.8-10.7 3.9-2.9 7.5-3.7 10.4-4.1-16.4 9.1-13.2 15.8-19.7 20.4-3.9 2.8-8.4 2.5-10.7-.4z"/><path class="organization0" d="M60.5 36.4c-1-.3-4.5-3.1-11.1-.9-3.4 1.1-5.2 3.7-5.5 6.1-.2 2.4.5 4.7 2.1 5.7 2.9 1.9 7.1 1.3 7.8-2.1.7-3.4-3.1-4.7-3.8-4.9 1-1.6 4.8-1.4 6.3-.3 1.5 1.1 1.3 3 1.4 4.8.2.7 2.6.7 3 .5.1 1.5-.6 3.3-3.1 3.2 0 0-.2 1.5-.1 2.5-.5.7-2.3.8-2.9.9-.1.3 0 1.3.4 2.5-1.1.7-5.3.8-6.7-.1-.3.1-.3 1.1-.5 2-5.4.3-6.4-2-6.3-4-.3.1-6.1 2.7-5.8-7.7.5-16.2 22.9-13.1 24.8-8.2zM268.5 39.7c13.6-14 22-7.4 31.2-7.5 11.5-.2 13.2-11.4 6.5-13.5-4.6-1.4-6.5 2-6.5 3.6-.1 2.2 2 4.6 4 3.3 1.5-.9.9-3.7-.8-3.8.8-.9 2.5-.8 3.5.4 2.3 2.8-.9 9.1-9.1 7.7-11.1-2-20.5-2.3-29.9 9.1l1.1.7zM329.1 44.9c-4-5.4-8-3.6-12.4-7.4-5.7-4.8.9-9.1 1.8-8.9-1.2 1.3-1.1 4.8.2 6.9.8 1.3 2.3 2.3 4.1 3.3 5.2 2.9 5.5 4.7 6.3 6.1zM334.3 54.9c.1-1.4-.4-2.2-1.3-2.4-2.1-.7-5.3 1.3-6.3 1.9.8-2.1 4-5.9 7.2-4.6 2.7 1 2.1 4.8.4 5.1zM325.8 53.2c1.1-3.2.7-5.4-.8-5.8-1.3-.4-3.3-.3-3.3 1.8-2.7-2.4.3-6.8 3.8-5.7 3.4.9 5.1 5.6.3 9.7z"/><path class="organization0" d="M325.6 53.3c-2.3 2.9-6.7 3.1-10.7.3-6.5-4.6-3.3-11.3-19.8-20.3 3 .4 6.5 1.3 10.4 4.1s7.5 7 9.8 10.7c4.8 7.6 8.1 6.3 10.3 5.2z"/><path class="organization0" d="M275.3 36.4c1.9-4.9 24.3-8 24.8 8.2.3 10.4-5.5 7.8-5.8 7.7 0 2.1-.9 4.3-6.4 4-.2-.9-.3-1.9-.5-2-1.4.9-5.6.8-6.7.1.5-1.2.5-2.2.4-2.5-.6 0-2.4-.1-2.9-.9.1-1-.1-2.5-.1-2.5-2.5.1-3.2-1.7-3.1-3.2.4.2 2.8.1 3-.5.1-1.8-.1-3.7 1.4-4.8s5.3-1.3 6.3.3c-.8.2-4.6 1.4-3.8 4.9.8 3.5 4.9 4 7.8 2.1 1.6-1 2.3-3.3 2.1-5.7-.2-2.5-2.1-5.1-5.5-6.1-6.5-2.1-10 .6-11 .9z"/><path class="organization1" d="M90.9 50.9V52c0 .7.1 1.2.4 1.6s.8.5 1.6.5v.6h-5.5v-.6h2V35.2c0-.9-.1-1.5-.2-1.7-.2-.3-.8-.5-1.7-.5H82V51.3c0 1.2.1 1.9.4 2.3.3.4 1 .5 2.1.5v.6h-6.1v-.6h1.9V34.7c0-.7-.1-1.2-.4-1.4-.2-.2-.8-.4-1.6-.4v-.6h14.4v.7h-1.9v17.9zM94.3 54.7v-.5h1.9V34.8c0-.7-.1-1.1-.4-1.4-.2-.3-.8-.4-1.6-.4v-.6h3.6v1.3c1.1-.5 2.2-1 3.2-1.3 1.1-.3 2.1-.5 3.1-.5h.7c.3 0 .5 0 .7.1 2.2.3 4.1 1.2 5.6 2.8 1.6 1.5 2.4 3.3 2.4 5.4v.8c0 2.1-.6 4-1.8 5.7-1.2 1.6-2.8 2.8-4.9 3.4-.5.1-1 .3-1.7.4-.7.1-1.3.2-1.7.2-.9 0-1.9-.1-2.8-.4-.9-.3-1.8-.7-2.7-1.2V51c0 1.1.1 2 .4 2.5.1.2.4.4.7.5.3.1.7.2 1.1.2h.9v.5h-6.7zm17.6-13.6c0-2.4-.8-4.4-2.4-6-1.6-1.6-3.5-2.4-5.8-2.4-1 0-2.1.2-3 .6-1 .4-1.9 1-2.8 1.8v12.1c.7.9 1.6 1.5 2.6 2 1.1.5 2.1.7 3.2.7 2.2 0 4-.7 5.6-2.2 1.8-1.6 2.6-3.8 2.6-6.6zM114.3 54.7v-.6h1.2l6.2-23.2 6.4 20.9c.2.7.4 1.2.4 1.3.3.7.9 1 1.6 1v.6h-5v-.6h2L122.9 40h-3.1l-2.7 11.1c-.1.2-.1.4-.2.7 0 .3-.1.5-.1.7 0 .6.2 1 .7 1.2.5.2 1.3.3 2.4.3v.6h-5.6zm5.8-15.3h2.7l-1.5-4.9-1.2 4.9zM140.4 55.1h-1c-1.5 0-2.9-.3-4.1-.8-1.3-.6-2.3-1.4-3-2.6-.6-1-1-2.1-1-3.3 0-1.4.4-2.7 1.3-3.8s2.1-1.8 3.5-2.1l1.5-.2c1.4 0 2.5.4 3.3 1.2.7.7 1.1 1.5 1.1 2.5 0 .6-.2 1.2-.6 1.6-.4.4-.9.6-1.6.6-.1 0-.3 0-.5-.1-.3-.1-.5-.1-.7-.2v-.3h.2c.6 0 1.1-.1 1.4-.4s.5-.7.5-1.2c0-.7-.3-1.4-1-2.1-.6-.6-1.5-1-2.5-1l-1.3.1c-1.1.3-2 .9-2.6 1.7-.6.9-1 1.8-1 2.9 0 .8.2 1.6.6 2.4.6 1.2 1.5 2.1 2.8 2.8 1.3.7 2.7 1 4.2 1 .3 0 .6 0 1.1-.1.4-.1.8-.1 1.1-.2 1.5-.4 2.8-1.3 3.7-2.7.9-1.4 1.4-2.9 1.4-4.5 0-1.1-.2-2.1-.6-3-.4-.9-1-1.7-1.8-2.4-.7-.5-1.6-.9-2.6-1.1-1-.2-2.1-.3-3.2-.3h-1.5v-.7l1.3.1c.6 0 1.1-.1 1.7-.2.6-.1 1.1-.3 1.6-.5s.8-.6 1.1-1.1c.2-.5.3-1 .3-1.6 0-.5-.1-1-.2-1.4-.2-.6-.6-1.1-1.2-1.5-.6-.4-1.3-.5-2-.5-1.5 0-2.6.6-3.4 1.8-.3.4-.5.8-.6 1.3-.1.5-.2 1.1-.2 1.6v2h-.4v-8.6h.4v2.2c.5-.3 1.2-.5 1.9-.8.8-.2 1.5-.3 2.3-.3.9 0 1.7.1 2.4.3.7.2 1.3.6 1.8 1.2.2.3.4.6.5.9.1.3.2.8.2 1.2 0 .9-.3 1.7-1 2.4s-1.5 1.3-2.4 1.5c2 .2 3.6 1.1 5 2.6s2.1 3.2 2.1 5.1c0 .6-.1 1.1-.2 1.6s-.3 1.1-.6 1.7c-.7 1.4-1.7 2.5-3.1 3.3-1.3 1.6-2.8 2-4.4 2zM160.7 54.7h-6.5c-.7 0-1.3.1-1.8.2s-.9.3-1.1.7c-.2.3-.4.8-.5 1.5-.1.7-.2 1.3-.2 2v2.5h-.4v-8.9h.4v1.5h.7l6.2-23.2 6.4 20.9c.2.7.5 1.3.8 1.7.3.4.6.6.9.6v-1.5h.5v8.9h-.5v-3.5c0-1.4-.3-2.3-.8-2.7-.6-.5-2-.7-4.1-.7zm-7.7-3.6c-.1.3-.1.6-.2.9-.1.3-.1.5-.1.6 0 .6.2 1 .7 1.2s1.3.3 2.4.3h7.1l-4.3-14.6-1.5-4.9-1.2 4.9-2.9 11.6zM180.2 50.9V52c0 .7.1 1.2.4 1.6s.8.5 1.6.5v.6h-5.5v-.6h2V39.7h-7.3v11.5c0 1.2.1 1.9.4 2.3.3.4 1 .5 2.1.5v.6h-6.1V54h1.9V34.7c0-.7-.1-1.2-.4-1.4s-.8-.4-1.6-.4v-.6h5.6v.7h-2v6.2h7.3v-4c0-.9-.1-1.5-.2-1.7-.2-.3-.8-.5-1.7-.5v-.6h5.5v.6h-1.9v17.9zM195.8 50.9V52c0 .7.1 1.2.4 1.6s.8.5 1.6.5v.6h-5.5v-.6h2V34.2L187 54.7h-3.6v-.6h1.9V34.7c0-.7-.1-1.2-.4-1.4s-.8-.4-1.6-.4v-.6h5.6v.7h-2v19.9l7.3-20.5h3.5v.6h-1.9v17.9zM202.5 43.3v8c0 1.2.1 1.9.4 2.3.3.4 1 .5 2.1.5v.6h-6.1v-.6h1.9V34.7c0-.7-.1-1.2-.4-1.4s-.8-.4-1.6-.4v-.5h5.6v.5h-2v9.3l6.8-9.3h-2.1v-.5h5.6v.5h-2.3l-5.5 7.3 6.3 11.6c.5 1 .8 1.5.8 1.5.4.5 1.1.8 2.3.8v.6h-3.4l-7-13-1.4 1.6zM239.1 48.1c-1 2.1-2.5 3.8-4.7 5.1-2.2 1.3-4.5 1.9-6.9 1.9-1.6 0-3.1-.3-4.5-.8-2.2-.9-3.9-2.3-5.1-4.2-1.2-2-1.9-4.1-1.9-6.4 0-1.6.3-3.1.9-4.6.9-2.2 2.4-3.9 4.5-5.2 2.1-1.3 4.4-2 6.8-2 1.8 0 3.5.4 5.1 1.1 2.1.9 3.7 2.3 4.9 4.2 1.2 1.9 1.8 3.9 1.8 6.1 0 .8-.1 1.6-.2 2.4-.1.8-.4 1.6-.7 2.4zm-.7-4.8c0-2.9-1-5.4-3.1-7.5-2.1-2.1-4.6-3.2-7.5-3.2-3 0-5.4 1.1-7.3 3.2-1.9 2.1-2.9 4.7-2.9 7.7v.4c0 3.3 1.1 5.9 3.2 7.8 2 1.8 4.3 2.6 7.1 2.6s5.1-.9 7.1-2.8c2.2-2 3.3-4.7 3.3-8v-.2zM241.5 54.7v-.6h1.9V34.8c0-.7-.1-1.1-.4-1.4-.2-.3-.8-.4-1.6-.4v-.6h3.6v1.3c1.2-1.2 2.7-1.8 4.5-1.8.7 0 1.4.1 2 .4.6.2 1.1.6 1.6 1.2.5.7.8 1.4.8 2.2 0 .9-.3 1.7-1 2.4s-1.5 1.3-2.4 1.5c1.2.2 2.3.4 3.3.9s1.8 1.1 2.5 1.9c.5.7.9 1.5 1.2 2.3.3.8.4 1.7.4 2.7 0 1.2-.2 2.3-.7 3.3-.7 1.5-1.7 2.6-3.2 3.4-1.3.7-2.8 1-4.5 1-1.6 0-3.1-.3-4.6-.8v.6h-3.4zm12.3-13.4c-.7-.5-1.6-.9-2.7-1.1-1.1-.2-2.2-.3-3.4-.3h-2.6v8.5l-.1 1.8c0 1 .1 1.9.4 2.6.3.7.8 1.1 1.7 1.3.4.1.8.2 1.1.3.3.1.6.1 1 .1 1.2 0 2.4-.3 3.5-.9 1.1-.6 1.9-1.4 2.5-2.5.7-1.3 1-2.7 1-4.1 0-1.2-.2-2.2-.6-3.2-.4-1-1-1.8-1.8-2.5zm-1.7-6.7c-.2-.6-.6-1.1-1.2-1.5s-1.2-.5-1.9-.5c-.8 0-1.6.3-2.4.8-.7.5-1.2 1.2-1.5 2.1v3.7c.3 0 .8 0 1.5.1s1.1.1 1.2.1c.5 0 1.1-.1 1.7-.2s1.1-.3 1.5-.5c.5-.2.8-.6 1-1 .2-.5.3-1 .3-1.5 0-.6-.1-1.1-.2-1.6z"/><g><path class="organization0" d="M95.7 7.5c0-1 .1-2 .4-2.9s.7-1.7 1.2-2.3 1.2-1.1 2-1.5c.9-.4 1.8-.6 2.8-.6s1.9.2 2.7.5c.8.4 1.4.9 2 1.5.5.6 1 1.4 1.2 2.3.3.9.4 1.8.4 2.9s-.1 2-.4 2.9-.7 1.7-1.2 2.3-1.2 1.1-2 1.5-1.7.5-2.7.5-1.9-.2-2.7-.5c-.8-.4-1.5-.9-2-1.5s-1-1.4-1.2-2.3c-.3-.8-.5-1.8-.5-2.8zm2.2 0c0 .9.1 1.7.3 2.4.2.8.4 1.4.8 2s.8 1 1.4 1.3c.5.3 1.2.5 1.9.5s1.3-.2 1.8-.5.9-.8 1.3-1.3c.3-.6.6-1.2.7-2 .2-.8.3-1.6.3-2.4s-.1-1.7-.3-2.4c-.2-.8-.4-1.4-.8-2s-.8-1-1.4-1.3c-.5-.3-1.2-.5-1.9-.5s-1.4.2-1.9.5-.9.8-1.3 1.3c-.3.6-.6 1.2-.7 2-.1.7-.2 1.5-.2 2.4zM113.6 13.4c.4 0 .7.1 1 .2l.9.3v.6h-5.4v-.6c.3-.1.5-.2.8-.3s.6-.1.8-.2V1.5c-.3-.1-.6-.1-.9-.2s-.5-.1-.7-.3V.5h1.8c.5 0 1.1 0 1.7-.1s1.2-.1 1.8-.1c.7 0 1.3.1 1.9.2s1.2.4 1.7.7.9.8 1.2 1.3c.3.6.5 1.2.5 2.1 0 .8-.2 1.5-.5 2-.3.6-.7 1-1.2 1.4-.5.4-1.1.6-1.8.8-.7.2-1.3.3-2 .3h-1.6v4.3zM115 1.3h-.8c-.2 0-.4 0-.6.1v6.5H115c.5 0 .9-.1 1.3-.2s.8-.3 1.1-.6c.3-.3.6-.6.8-1.1.2-.4.3-.9.3-1.5 0-1.1-.3-1.9-.9-2.5-.7-.4-1.5-.7-2.6-.7zM125.5 13.4c.7.1 1.3.3 1.9.5v.6h-5.5v-.6c.5-.2 1.1-.4 1.6-.5V1.5c-.3-.1-.5-.1-.8-.2s-.6-.2-.8-.3V.5h9.4v2c0 .4 0 .7-.1 1.1 0 .4-.1.7-.1 1h-.5l-1-3h-4l-.1 11.8zM134.5 14.5h-4.4v-.6c.5-.2 1-.4 1.4-.5L136.6.2h.6l5.1 13.2c.3.1.5.1.8.2.3.1.5.2.7.3v.6h-5.2v-.6c.3-.1.5-.2.8-.3s.6-.1.8-.2l-1.4-3.7h-4.7l-1.3 3.7c.6.1 1.1.2 1.7.5v.6zm0-5.8h4l-1.6-4.2-.4-1.7-.5 1.8-1.5 4.1zM149.4 14.5h-5.1v-.6c.5-.2 1.1-.4 1.6-.5V1.5c-.6-.1-1.2-.3-1.6-.5V.5h5.1v.6c-.2.1-.5.2-.7.3s-.5.1-.8.2v5.2h6.3V1.5c-.3-.1-.5-.1-.8-.2s-.5-.2-.7-.3V.5h5.1v.6c-.2.1-.5.2-.8.3s-.6.1-.9.2v11.9c.3.1.6.1.9.2.3.1.5.2.8.3v.6h-5.1V14c.5-.2 1-.4 1.5-.5V7.8h-6.3v5.6c.3.1.5.1.8.2s.5.2.7.3v.6zM163.9 14.5h-5.1v-.6c.5-.2 1.1-.4 1.6-.5V1.5c-.3-.1-.5-.1-.8-.2-.2-.1-.5-.1-.7-.3V.5h5.1v.6c-.2.1-.4.2-.7.3-.2.1-.5.2-.8.2v8.6l-.2 1.5 1-1.6 5.9-8.1v-.5c-.3-.1-.6-.1-.9-.2-.3-.1-.5-.2-.8-.3V.5h5.1v.6c-.2.1-.5.2-.8.3s-.6.2-.9.2v11.9c.6.1 1.2.3 1.6.5v.6h-5.1V14c.2-.1.4-.2.7-.3s.5-.2.8-.2V4.7l.2-1.5-.9 1.5-5.9 8.2v.4c.3.1.6.1.9.2.3.1.5.2.8.3v.7h-.1zM177.9 14.7c-.7 0-1.5-.1-2.1-.2-.7-.1-1.2-.3-1.7-.6v-.7c0-.3.1-.6.1-.9 0-.3.1-.6.2-.9.1-.3.1-.6.2-.8h.5l.8 2.8c.1 0 .2.1.3.1s.3.1.5.1.4 0 .6.1h.5c.5 0 .9-.1 1.4-.2.4-.2.8-.4 1-.7.3-.3.5-.6.7-1s.2-.8.2-1.2c0-.5-.1-1-.3-1.3-.2-.4-.4-.7-.7-.9s-.6-.4-1-.5-.8-.1-1.2-.1l-1.5.2c-.1-.4-.1-.8 0-1.2h1.4c.3 0 .6 0 .8-.1.6-.2 1.1-.6 1.4-1 .3-.5.5-1 .5-1.7 0-.9-.2-1.6-.7-2-.5-.5-1.2-.7-2.1-.7-.4 0-.8 0-1 .1s-.4.2-.5.3l-1.1 2.4h-.5c-.1-.4-.1-.8-.2-1.4 0-.6-.1-1.1-.1-1.7.2-.2.4-.3.7-.4l.9-.3c.3-.1.6-.1 1-.1h.9c.5 0 1.1 0 1.6.1s1 .3 1.5.5c.4.3.8.6 1.1 1.1.3.4.4 1 .4 1.7s-.2 1.3-.6 1.9c-.4.6-1 1.1-1.9 1.4V7c.4.1.8.2 1.1.3.4.2.7.4.9.7.3.3.5.6.6 1 .2.4.2.9.2 1.4 0 .7-.1 1.3-.4 1.9-.3.5-.7 1-1.2 1.3s-1 .6-1.7.8c-.2.2-.8.3-1.5.3zM188.6 14.5h-4.4v-.6c.5-.2 1-.4 1.4-.5L190.7.2h.6l5.1 13.2c.3.1.5.1.8.2.3.1.5.2.7.3v.6h-5.2v-.6c.3-.1.5-.2.8-.3s.6-.1.8-.2l-1.4-3.7h-4.8l-1.3 3.7c.6.1 1.1.2 1.7.5l.1.6zm0-5.8h4L191 4.5l-.4-1.7-.5 1.7-1.5 4.2zM198.4 14.5v-.6c.4-.2.9-.3 1.6-.5V1.5c-.5-.1-1.1-.2-1.6-.5V.5h5.1v.6c-.4.2-.9.3-1.5.5v11.9h6v-12c-.2-.1-.5-.1-.7-.2s-.5-.2-.8-.3V.5h5.1v.6c-.5.2-1.1.4-1.6.5v11.9h2.3v.9c0 .4-.1.7-.1 1.1s-.1.7-.1 1.1-.1.7-.2.9h-.5l-.9-3h-12.1zM218.1 14.5H213v-.6c.5-.2 1.1-.4 1.6-.5V1.5c-.3-.1-.5-.1-.8-.2s-.6-.2-.8-.3V.5h5.1v.6c-.2.1-.4.2-.7.3s-.5.2-.8.2v8.6l-.2 1.5 1-1.6 5.9-8.1v-.5c-.3-.1-.6-.1-.9-.2-.3-.1-.5-.2-.8-.3V.5h5.1v.6c-.2.1-.5.2-.8.3s-.6.2-.9.2v11.9c.6.1 1.2.3 1.6.5v.6h-5.1V14c.2-.1.4-.2.7-.3s.5-.2.8-.2V4.7l.2-1.5-.9 1.5-5.9 8.2v.4c.3.1.6.1.9.2s.5.2.8.3v.7zM239.4.5v.6c-.2.1-.4.2-.7.3s-.6.2-.9.2v11.9c.7.1 1.2.3 1.6.5v.6h-5.3V14c.5-.2 1.1-.4 1.7-.5V8.6h-2c-.3.5-.6 1-.8 1.4s-.5.9-.7 1.4-.5.9-.8 1.3-.6.8-.9 1.3l-.7.5h-2.5V14l1-.5c.4-.5.8-.9 1.1-1.3.3-.4.6-.9.9-1.3s.5-.8.8-1.2.5-.8.8-1.2c-.4-.1-.8-.3-1.1-.5-.4-.2-.7-.5-.9-.8-.3-.3-.5-.7-.6-1.1-.2-.4-.2-.9-.2-1.5 0-.7.2-1.4.5-1.9s.7-1 1.3-1.3c.5-.3 1.1-.6 1.8-.7s1.3-.2 2-.2h4.6zm-5 7.2h.7c.3 0 .5-.1.6-.1v-6c-.1 0-.3-.1-.6-.1h-.6c-1 0-1.8.2-2.5.7-.6.5-.9 1.3-.9 2.4 0 1 .3 1.8.8 2.3.7.5 1.5.8 2.5.8z"/></g></svg>