<svg id="layer" xmlns="http://www.w3.org/2000/svg" viewBox="0 0 311.9 68"><style>.st10{fill:#671700}.st11{fill:#c9a568}</style><path class="st10" d="M67.8 48.4l1.1-.8c-9.3-11.4-18.7-11-29.9-9.1-8.2 1.4-11.4-4.9-9.1-7.7 1-1.2 2.7-1.3 3.5-.4-1.7.1-2.3 2.9-.8 3.8 2 1.3 4.1-1.1 4-3.3-.1-1.6-1.9-5-6.5-3.6-6.7 2.1-5 13.3 6.5 13.5 9.2.2 17.6-6.4 31.2 7.6zM7.2 53.6c.8-1.4 1.1-3.2 6.4-6.1 1.8-1 3.3-2 4.1-3.3 1.3-2.1 1.3-5.6.2-6.9.9-.2 7.5 4.1 1.8 8.9-4.5 3.8-8.5 2-12.5 7.4zM2 63.6c-1.7-.3-2.3-4.1.3-5.1 3.2-1.2 6.4 2.5 7.2 4.6-1-.6-4.2-2.6-6.3-1.9-.8.3-1.3 1-1.2 2.4zM10.5 61.9c-4.8-4.2-3.1-8.8.3-9.8 3.6-1 6.6 3.3 3.8 5.7 0-2.1-2-2.2-3.3-1.8-1.5.5-1.9 2.7-.8 5.9zM10.7 62c2.1 1 5.5 2.3 10.2-5.2 2.4-3.7 5.9-7.9 9.8-10.7 3.9-2.9 7.5-3.7 10.4-4.1-16.4 9.1-13.2 15.8-19.7 20.4-3.9 2.8-8.4 2.5-10.7-.4z"/><path class="st10" d="M61 45.1c-1-.3-4.5-3.1-11.1-.9-3.4 1.1-5.2 3.7-5.5 6.1-.2 2.4.5 4.7 2.1 5.7 2.9 1.9 7.1 1.3 7.8-2.1.7-3.4-3.1-4.7-3.8-4.9 1-1.6 4.8-1.4 6.3-.3 1.5 1.1 1.3 3 1.4 4.8.2.7 2.6.7 3 .5.1 1.5-.6 3.3-3.1 3.2 0 0-.2 1.5-.1 2.5-.5.7-2.3.8-2.9.9-.1.3 0 1.3.4 2.5-1.1.7-5.3.8-6.7-.1-.3.1-.3 1.1-.5 2-5.4.3-6.4-2-6.3-4-.3.1-6.1 2.7-5.8-7.7.5-16.2 22.9-13.1 24.8-8.2zM243.9 49c13.6-14 22-7.4 31.2-7.5 11.5-.2 13.2-11.4 6.5-13.5-4.6-1.4-6.5 2-6.5 3.6-.1 2.2 2 4.6 4 3.3 1.5-.9.9-3.7-.8-3.8.8-.9 2.5-.8 3.5.4 2.3 2.8-.9 9.1-9.1 7.7-11.1-2-20.5-2.3-29.9 9.1l1.1.7zM304.5 54.2c-4-5.4-8-3.6-12.4-7.4-5.7-4.8.9-9.1 1.8-8.9-1.2 1.3-1.1 4.8.2 6.9.8 1.3 2.3 2.3 4.1 3.3 5.2 2.9 5.5 4.7 6.3 6.1zM309.7 64.2c.1-1.4-.4-2.2-1.3-2.4-2.1-.7-5.3 1.3-6.3 1.9.8-2.1 4-5.9 7.2-4.6 2.7 1 2.1 4.8.4 5.1zM301.2 62.5c1.1-3.2.7-5.4-.8-5.8-1.3-.4-3.3-.3-3.3 1.8-2.7-2.4.3-6.8 3.8-5.7 3.4.9 5.1 5.6.3 9.7z"/><path class="st10" d="M301 62.6c-2.3 2.9-6.7 3.1-10.7.3-6.5-4.6-3.3-11.3-19.8-20.3 3 .4 6.5 1.3 10.4 4.1s7.5 7 9.8 10.7c4.8 7.6 8.1 6.3 10.3 5.2z"/><path class="st10" d="M250.7 45.7c1.9-4.9 24.3-8 24.8 8.2.3 10.4-5.5 7.8-5.8 7.7 0 2.1-.9 4.3-6.4 4-.2-.9-.3-1.9-.5-2-1.4.9-5.6.8-6.7.1.5-1.2.5-2.2.4-2.5-.6 0-2.4-.1-2.9-.9.1-1-.1-2.5-.1-2.5-2.5.1-3.2-1.7-3.1-3.2.4.2 2.8.1 3-.5.1-1.8-.1-3.7 1.4-4.8 1.5-1.1 5.3-1.3 6.3.3-.8.2-4.6 1.4-3.8 4.9.8 3.5 4.9 4 7.8 2.1 1.6-1 2.3-3.3 2.1-5.7-.2-2.5-2.1-5.1-5.5-6.1-6.5-2.1-10 .6-11 .9zM84.6 7.3c0-1 .1-2 .4-2.9.3-.9.7-1.7 1.2-2.3.5-.6 1.2-1.1 2-1.5C89.1.2 90 0 91 0s1.9.2 2.7.5c.8.4 1.4.9 2 1.5.5.6 1 1.4 1.2 2.3.3.9.4 1.8.4 2.9s-.1 2-.4 2.9c-.3.9-.7 1.7-1.2 2.3-.5.6-1.2 1.1-2 1.5-.8.4-1.7.5-2.7.5s-1.9-.2-2.7-.5c-.8-.4-1.5-.9-2-1.5s-1-1.4-1.2-2.3c-.3-.8-.5-1.8-.5-2.8zm2.2 0c0 .9.1 1.7.3 2.4.2.8.4 1.4.8 2 .4.6.8 1 1.4 1.3.5.3 1.2.5 1.9.5s1.3-.2 1.8-.5.9-.8 1.3-1.3c.3-.6.6-1.2.7-2 .2-.8.3-1.6.3-2.4s-.1-1.7-.3-2.4c-.2-.8-.4-1.4-.8-2-.4-.6-.8-1-1.4-1.3-.5-.3-1.2-.5-1.9-.5s-1.4.2-1.9.5-.9.8-1.3 1.3c-.3.6-.6 1.2-.7 2-.1.7-.2 1.5-.2 2.4zM102.5 13.2c.4 0 .7.1 1 .2l.9.3v.6H99v-.6c.3-.1.5-.2.8-.3.3-.1.6-.1.8-.2V1.3c-.3-.1-.6-.1-.9-.2s-.5-.1-.7-.3V.3h1.8c.5 0 1.1 0 1.7-.1.6-.1 1.2-.1 1.8-.1.7 0 1.3.1 1.9.2.6.1 1.2.4 1.7.7.5.3.9.8 1.2 1.3.3.6.5 1.2.5 2.1 0 .8-.2 1.5-.5 2-.3.6-.7 1-1.2 1.4-.5.4-1.1.6-1.8.8-.7.2-1.3.3-2 .3h-1.6v4.3zm1.4-12.1h-.8c-.2 0-.4 0-.6.1v6.5H103.9c.5 0 .9-.1 1.3-.2s.8-.3 1.1-.6c.3-.3.6-.6.8-1.1.2-.4.3-.9.3-1.5 0-1.1-.3-1.9-.9-2.5-.7-.4-1.5-.7-2.6-.7zM114.4 13.2c.7.1 1.3.3 1.9.5v.6h-5.5v-.6c.5-.2 1.1-.4 1.6-.5V1.3c-.3-.1-.5-.1-.8-.2-.3-.1-.6-.2-.8-.3V.3h9.4v2c0 .4 0 .7-.1 1.1 0 .4-.1.7-.1 1h-.5l-1-3h-4v11.8zM123.4 14.3H119v-.6c.5-.2 1-.4 1.4-.5L125.5 0h.6l5.1 13.2c.3.1.5.1.8.2.3.1.5.2.7.3v.6h-5.2v-.6c.3-.1.5-.2.8-.3.3-.1.6-.1.8-.2l-1.4-3.7H123l-1.3 3.7c.6.1 1.1.2 1.7.5v.6zm0-5.8h4l-1.6-4.2-.4-1.7-.5 1.8-1.5 4.1zM138.3 14.3h-5.1v-.6c.5-.2 1.1-.4 1.6-.5V1.3c-.6-.1-1.2-.3-1.6-.5V.3h5.1v.6c-.2.1-.5.2-.7.3s-.5.1-.8.2v5.2h6.3V1.3c-.3-.1-.5-.1-.8-.2s-.5-.2-.7-.3V.3h5.1v.6c-.2.1-.5.2-.8.3-.3.1-.6.1-.9.2v11.9c.3.1.6.1.9.2.3.1.5.2.8.3v.6h-5.1v-.6c.5-.2 1-.4 1.5-.5V7.6h-6.3v5.6c.3.1.5.1.8.2s.5.2.7.3v.6zM152.8 14.3h-5.1v-.6c.5-.2 1.1-.4 1.6-.5V1.3c-.3-.1-.5-.1-.8-.2-.2-.1-.5-.1-.7-.3V.3h5.1v.6c-.2.1-.4.2-.7.3-.2.1-.5.2-.8.2V10l-.2 1.5 1-1.6 5.9-8.1v-.5c-.3-.1-.6-.1-.9-.2-.3-.1-.5-.2-.8-.3V.3h5.1v.6c-.2.1-.5.2-.8.3s-.6.2-.9.2v11.9c.6.1 1.2.3 1.6.5v.6h-5.1v-.6c.2-.1.4-.2.7-.3.3-.1.5-.2.8-.2V4.5L158 3l-.9 1.5-5.9 8.2v.4c.3.1.6.1.9.2.3.1.5.2.8.3v.7zM166.8 14.5c-.7 0-1.5-.1-2.1-.2-.7-.1-1.2-.3-1.7-.6V13c0-.3.1-.6.1-.9 0-.3.1-.6.2-.9.1-.3.1-.6.2-.8h.5l.8 2.8c.1 0 .2.1.3.1.1 0 .3.1.5.1s.4 0 .6.1h.5c.5 0 .9-.1 1.4-.2.4-.2.8-.4 1-.7.3-.3.5-.6.7-1 .2-.4.2-.8.2-1.2 0-.5-.1-1-.3-1.3-.2-.4-.4-.7-.7-.9s-.6-.4-1-.5c-.4-.1-.8-.1-1.2-.1l-1.5.2c-.1-.4-.1-.8 0-1.2h1.4c.3 0 .6 0 .8-.1.6-.2 1.1-.6 1.4-1 .3-.5.5-1 .5-1.7 0-.9-.2-1.6-.7-2-.5-.5-1.2-.7-2.1-.7-.4 0-.8 0-1 .1s-.4.2-.5.3L164 3.9h-.5c-.1-.4-.1-.8-.2-1.4 0-.6-.1-1.1-.1-1.7.2-.2.4-.3.7-.4l.9-.3c.3-.1.6-.1 1-.1h.9c.5 0 1.1 0 1.6.1s1 .3 1.5.5c.4.3.8.6 1.1 1.1.3.4.4 1 .4 1.7s-.2 1.3-.6 1.9c-.4.6-1 1.1-1.9 1.4v.1c.4.1.8.2 1.1.3.4.2.7.4.9.7.3.3.5.6.6 1 .2.4.2.9.2 1.4 0 .7-.1 1.3-.4 1.9-.3.5-.7 1-1.2 1.3-.5.3-1 .6-1.7.8-.2.2-.8.3-1.5.3zM177.5 14.3h-4.4v-.6c.5-.2 1-.4 1.4-.5L179.6 0h.6l5.1 13.2c.3.1.5.1.8.2.3.1.5.2.7.3v.6h-5.2v-.6c.3-.1.5-.2.8-.3.3-.1.6-.1.8-.2l-1.4-3.7H177l-1.3 3.7c.6.1 1.1.2 1.7.5v.6zm0-5.8h4l-1.6-4.2-.4-1.7-.5 1.7-1.5 4.2zM187.3 14.3v-.6c.4-.2.9-.3 1.6-.5V1.3c-.5-.1-1.1-.2-1.6-.5V.3h5.1v.6c-.4.2-.9.3-1.5.5v11.9h6v-12c-.2-.1-.5-.1-.7-.2s-.5-.2-.8-.3V.3h5.1v.6c-.5.2-1.1.4-1.6.5v11.9h2.3v.9c0 .4-.1.7-.1 1.1s-.1.7-.1 1.1c0 .4-.1.7-.2.9h-.5l-.9-3h-12.1zM207 14.3h-5.1v-.6c.5-.2 1.1-.4 1.6-.5V1.3c-.3-.1-.5-.1-.8-.2-.3-.1-.6-.2-.8-.3V.3h5.1v.6c-.2.1-.4.2-.7.3s-.5.2-.8.2V10l-.2 1.5 1-1.6 5.9-8.1v-.5c-.3-.1-.6-.1-.9-.2-.3-.1-.5-.2-.8-.3V.3h5.1v.6c-.2.1-.5.2-.8.3s-.6.2-.9.2v11.9c.6.1 1.2.3 1.6.5v.6h-5.1v-.6c.2-.1.4-.2.7-.3.3-.1.5-.2.8-.2V4.5l.2-1.5-.9 1.5-5.9 8.2v.4c.3.1.6.1.9.2s.5.2.8.3v.7zM228.3.3v.6c-.2.1-.4.2-.7.3-.3.1-.6.2-.9.2v11.9c.7.1 1.2.3 1.6.5v.6H223v-.6c.5-.2 1.1-.4 1.7-.5V8.4h-2c-.3.5-.6 1-.8 1.4s-.5.9-.7 1.4c-.2.5-.5.9-.8 1.3s-.6.8-.9 1.3l-.7.5h-2.5v-.5l1-.5c.4-.5.8-.9 1.1-1.3.3-.4.6-.9.9-1.3s.5-.8.8-1.2c.3-.4.5-.8.8-1.2-.4-.1-.8-.3-1.1-.5-.4-.2-.7-.5-.9-.8-.3-.3-.5-.7-.6-1.1-.2-.4-.2-.9-.2-1.5 0-.7.2-1.4.5-1.9s.7-1 1.3-1.3c.5-.3 1.1-.6 1.8-.7s1.3-.2 2-.2h4.6zm-5 7.2h.7c.3 0 .5-.1.6-.1v-6c-.1 0-.3-.1-.6-.1h-.6c-1 0-1.8.2-2.5.7-.6.5-.9 1.3-.9 2.4 0 1 .3 1.8.8 2.3.7.5 1.5.8 2.5.8z"/><g><path class="st11" d="M87.6 27.4h-4.2v37.5H79V26.5h12.8v38.4h-4.2V27.4zM103.5 44.9c.3.1.6.3.8.6.2.2.4.5.6.8.1.3.2.7.2 1 0 .4-.1.7-.2 1-.1.3-.3.6-.5.8s-.5.4-.8.5c-.3.1-.7.2-1 .2-.5 0-.8-.1-1.2-.2s-.7-.3-1-.5-.7-.5-1.1-.9c-.4-.4-.8-.8-1.4-1.3v18h-4V26.5h13V40c-1.1.5-2.1.9-3.1 1.2-1 .3-1.8.7-2.5 1s-1.3.7-1.7 1c-.4.4-.6.8-.6 1.3 0 .7.1 1.3.3 1.9.2.6.5 1 .9 1.3 0-.4.1-.8.2-1.1.1-.4.3-.7.5-1 .2-.3.5-.5.8-.7.3-.2.7-.2 1-.2.1 0 .5 0 .8.2zm-1-17.5h-4.6v14.9l4.6-2.1V27.4zM111.8 29c.3.1.6.3.8.6.2.2.4.5.5.8.1.3.2.7.2 1 0 .4-.1.7-.2 1-.1.3-.3.6-.5.8-.2.2-.5.4-.8.5-.3.1-.7.2-1 .2-.4 0-.7-.1-1-.2-.3-.1-.6-.3-.8-.5-.2-.2-.4-.5-.5-.8-.1-.3-.2-.6-.2-1 0-.6.1-1.2.2-1.8.2-.6.4-1.1.7-1.5.3-.4.7-.8 1.2-1.1.5-.3 1-.4 1.7-.4 1.5 0 2.6.4 3.3 1.3 0 0 .1.1.1.2.1.1.2.3.3.4.1.2.2.3.3.4l.2.2h.1v-2.6h4.2v38.4h-4.2v-20l-4.2 3.4v16.6H108V49.6l7.8-6.2v-1l-.4.2c-.2.1-.5.3-.8.5s-.7.3-1.1.5c-.4.1-.8.2-1.2.2-.6 0-1.1-.1-1.7-.4-.5-.3-1-.6-1.3-1.1-.4-.4-.7-1-.9-1.5s-.3-1.2-.3-1.7c0-.7.1-1.2.2-1.7.1-.4.4-.8.6-1.1s.6-.5 1-.7c.4-.2.9-.4 1.4-.6.4-.2.8-.4 1.3-.6.5-.2 1-.5 1.5-.8s.9-.6 1.2-.9c.3-.3.5-.6.5-.8v-1.8c0-.3-.1-.5-.3-.8-.2-.3-.4-.6-.7-.8-.3-.3-.6-.5-1-.7-.3-.2-.7-.3-.9-.3h-.9c-.3 0-.6.1-.9.1-.3.1-.5.2-.7.3-.2.1-.3.3-.3.6 0 0 0 .1.1.1s.1.1.2.1.2.1.2.1h.1c.5-.1.8 0 1.1.2zm4 4.2c-.4.4-.8.8-1.2 1.1l-1.2 1.2c-.4.4-.6.8-.8 1.4-.2.5-.3 1.1-.3 1.6 0 .4 0 .8.1 1.2.1.4.2.8.4 1.1.2.3.4.6.6.8.2.2.5.3.9.3 1.5 0 2.2-.6 2.2-1.8v-7h-.7zM135.7 59.9c0 1.6-.7 2.8-2.2 3.8-.6.4-1.3.7-2 .9-.7.2-1.5.3-2.3.3-.7 0-1.5-.1-2.2-.3-.8-.2-1.5-.5-2.1-.9-.6-.4-1.2-.9-1.6-1.5s-.6-1.3-.6-2v-6h4.4v8c0 .2.1.5.2.7.1.2.3.4.5.6.2.2.4.3.7.4.2.1.5.2.7.2.3 0 .5 0 .8-.1.2-.1.5-.2.6-.4.2-.2.3-.4.4-.6.1-.2.2-.5.2-.8V47.3c0-1.8-.7-2.8-2-2.8-1.4 0-2.1.9-2.1 2.8v1.1h-3.6c0-1.4.5-2.6 1.4-3.7.4-.4.8-.8 1.2-1.1.5-.3 1-.6 1.5-.8.5-.2 1.1-.4 1.7-.5.6-.1 1.2-.2 1.8-.2V29.4c0-1.3-.7-2-2-2-.3 0-.5.1-.8.2-.3.1-.5.2-.7.4-.2.2-.4.4-.5.6-.1.2-.2.5-.2.8v8.2h-4.4v-5.8c0-2.3 1.2-3.9 3.5-4.8.8-.3 1.9-.5 3.1-.5 2.5 0 4.3.8 5.3 2.5.4.6.7 1.4.8 2.3.2.9.3 2 .3 3.2v3c0 .6-.1 1.1-.2 1.6s-.3.9-.6 1.3-.6.8-1 1.3-.8.9-1.4 1.4v.3c1 1.2 1.8 2.4 2.3 3.5.5 1.1.8 2.3.8 3.4v9.6zM141.5 64.9c-.3 0-.7.1-1.1.4-.4.2-.8.5-1.2.9l-1.1 1.1c-.3.4-.5.8-.6 1.1h-.2V64h4.2V42.4c0-.1.1-.2.2-.4s.3-.4.6-.7l.8-.8.9-.9.8-.8c.3-.3.5-.5.6-.7 2.6-2.8 3.9-4.9 3.9-6.2 0-.8-.1-1.5-.3-2-.2-.5-.5-.9-.8-1.2-.4-.3-.9-.5-1.4-.6s-1.3-.2-2.1-.2c1.3.3 2 1.1 2 2.6 0 .4-.1.7-.2 1-.1.3-.3.6-.5.8-.2.2-.5.4-.8.5-.3.1-.6.2-1 .2s-.7-.1-1-.2-.6-.3-.8-.6c-.2-.2-.4-.5-.5-.8-.1-.3-.2-.6-.2-1 0-.7.1-1.2.3-1.7.2-.5.4-.8.8-1.1.4-.3.8-.5 1.3-.6.5-.1 1.1-.2 1.8-.2h.7c.3 0 .6.1.9.2.3.1.7.2 1.1.4.4.2.8.4 1.2.7l.6.5v-2.1h4.4V64h3.8v4.4h-.1s-.1-.1-.2-.3-.3-.4-.6-.6c-.2-.3-.5-.5-.8-.8l-.8-.8c-.3-.3-.5-.5-.7-.6-.2-.2-.4-.3-.5-.3h-13.4zm8.7-.9V34l-.5.7c-.2.2-.4.6-.7 1s-.7.9-1 1.3-.7.9-1.1 1.4-.7.9-1 1.2V64h4.3zM168.8 49.2V26.5h4.4v38.4h-4.4V54.2l-1.7 1.9-.7-3.1 1.1-1.4c.1-.1.1-.2.1-.4v-.5c0-.7-.2-1.5-.5-2.5l-2.5-6.4v23h-4.5V26.5h4.5v11l1.8-2 .8 2.9-1.3 1.6c-.2.2-.2.5-.2 1v.4c0 .1.1.3.1.5l3 7.3zM179.8 49.2l2.9-7.4c.1-.2.1-.3.1-.5v-.4c0-.3-.1-.6-.2-1l-1.3-1.6.8-2.9 1.8 2v-11h4.4v38.4h-4.4v-23l-2.5 6.4c-.4 1-.6 1.8-.6 2.5v.5c0 .1.1.3.1.4L182 53l-.7 3.1-1.7-1.9v10.7h-4.5V26.5h4.5v22.7zM190.5 64.9V26.5h4.3v15.4h.3c.8-1.3 2-2.4 3.9-3.4v-12h4.5v12c-.3 0-.8.1-1.3.2s-1 .4-1.6.6-1.1.6-1.6.9-1 .7-1.4 1.1-.8.8-1 1.2-.4.8-.4 1.2c0 .5.1.9.4 1.3s.6.8 1 1.1.9.7 1.4.9 1.1.5 1.6.7 1.1.3 1.6.4.9.2 1.3.2v16.5H199V48.5c-1.6-.5-2.9-1.5-3.9-3h-.3V65h-4.3zM213.4 27.2c.2.4.4 1 .6 1.8s.5 1.6.7 2.6c.3 1 .5 2 .8 3 .2 1 .5 2.1.7 3.1s.4 2 .6 2.9.3 1.7.5 2.4.2 1.2.3 1.5c.2 1.5.4 2.7.4 3.7 0 1.7-.2 3.4-.6 5.2s-1 3.5-1.9 5.4c-1.9 4.1-3.9 6.2-6.1 6.2-.3 0-.5-.2-.8-.6s-.5-1-.7-1.7-.4-1.5-.6-2.5l-.6-3c-.2-1-.4-2.2-.5-3.3s-.3-2.3-.4-3.4-.2-2.2-.4-3.2-.2-1.9-.3-2.7-.1-1.5-.2-2-.1-.9-.1-1c0-.7.1-1.5.2-2.5s.4-2.1.7-3.2c.3-1.1.7-2.2 1.1-3.3.4-1.1 1-2.1 1.6-3s1.3-1.6 2-2.1 1.5-.8 2.4-.8c.2-.2.4 0 .6.5zm-2.8 2.8c-.4.4-.8.8-1.2 1.4s-.7 1.2-1 2-.5 1.4-.7 2.1c-.2.7-.4 1.4-.5 2s-.2 1.1-.2 1.5c0 .8.1 1.7.4 2.7s.5 2 .9 3 .7 2.1 1.2 3.2.8 2.2 1.2 3.2.7 2.1.9 3 .4 1.8.4 2.6c0 .7-.1 1.4-.2 2.1s-.3 1.5-.6 2.3c.5 0 .9-.2 1.3-.6s.8-1 1.1-1.6.6-1.4.9-2.2.5-1.6.6-2.4.3-1.5.4-2.1.1-1.1.1-1.5c0-.4-.1-1-.3-1.7s-.5-1.4-.8-2.3-.7-1.7-1-2.6-.7-1.8-1-2.6-.6-1.6-.8-2.3-.3-1.3-.3-1.7c0-1.4.1-2.8.2-4.2.1-1.4.4-2.7.6-4-.7.1-1.1.3-1.6.7zM219.6 64.9V26.5h13.2v11.4c-.9 0-1.8.2-2.7.5s-1.7.8-2.5 1.5c-1.8 1.5-2.7 3.2-2.7 5.4 0 .9.1 1.8.4 2.6s.6 1.6 1.1 2.3 1 1.3 1.7 1.9 1.4 1 2.2 1.4c.5.2.9.4 1.4.5s.9.2 1.3.2v10.9h-13.4zm9-37.5H224v14.9c.4-.7.8-1.3 1.1-1.8.3-.5.6-.8.8-1.1.7-.8 1.6-1.4 2.8-1.8V27.4zm0 26.7c-2.1-1.2-3.7-3-4.7-5.3V64h4.7v-9.9z"/></g></svg>