<svg id="Слой_1" xmlns="http://www.w3.org/2000/svg" viewBox="0 0 300 68"><style>.or0{fill:#671700}.or1{fill:#c9a468}</style><path class="or0" d="M124.2 14.2h-5.1v-.6c.5-.2 1.1-.4 1.6-.5V1.3c-.6-.1-1.2-.3-1.6-.5V.2h5.1v.6c-.2.1-.5.2-.7.3s-.5.1-.8.2v5.2h6.3V1.3c-.3-.1-.5-.1-.8-.2s-.5-.2-.7-.3V.2h5.1v.6c-.2.1-.5.2-.8.3s-.6.1-.9.2v11.9c.3.1.6.1.9.2.3.1.5.2.8.3v.6h-5.1v-.6c.5-.2 1-.4 1.5-.5V7.6h-6.3v5.6c.3.1.5.1.8.2s.5.2.7.3v.5zM137.6 14.2h-4.4v-.6c.5-.2 1-.4 1.4-.5l5-13.1h.6l5.1 13.2c.3.1.5.1.8.2.3.1.5.2.7.3v.6h-5.2v-.6c.3-.1.5-.2.8-.3.3-.1.6-.1.8-.2l-1.4-3.7H137l-1.3 3.7c.6.1 1.1.2 1.7.5v.5zm0-5.7h4L140 4.2l-.4-1.7-.5 1.8-1.5 4.2zM153.9.2h4.5v.6l-.6.3c-.2.1-.4.2-.7.2v11.9h4.4V1.3c-.5-.1-.9-.3-1.3-.5V.2h4.6v.6l-.6.3c-.2.1-.5.2-.8.2v11.9c.5.1 1 .3 1.4.5v.6h-17.4v-.6c.5-.2 1-.4 1.4-.5V1.3c-.3-.1-.5-.1-.7-.2-.2-.1-.5-.2-.7-.3V.2h4.7v.6c-.3.2-.8.3-1.3.5v11.9h4.4V1.3c-.3-.1-.5-.2-.7-.3l-.6-.3V.2zM171 14.2h-5v-.6c.5-.2 1.1-.4 1.6-.5V1.3c-.3-.1-.5-.1-.8-.2-.3-.1-.6-.2-.8-.3V.2h5.1v.6c-.2.1-.4.2-.7.3s-.5.2-.8.2V10l-.2 1.5 1-1.6 5.9-8.1v-.5c-.3-.1-.6-.1-.9-.2-.3-.1-.5-.2-.8-.3V.2h5.1v.6c-.2.1-.5.2-.8.3-.3.1-.6.2-.9.2v11.9c.6.1 1.2.3 1.6.5v.6h-5.1v-.6c.2-.1.4-.2.7-.3.3-.1.5-.2.8-.2V4.5l.2-1.5-.9 1.5-5.9 8.2v.4c.3.1.6.1.9.2s.5.2.8.3v.6z"/><path class="or1" d="M89.9 47.2c.3.1.6.3.8.6.2.2.4.5.6.8.1.3.2.7.2 1 0 .4-.1.7-.2 1-.1.3-.3.6-.5.8-.2.2-.5.4-.8.5-.3.1-.7.2-1 .2-.5 0-.8-.1-1.2-.2-.3-.1-.7-.3-1-.5-.3-.2-.7-.5-1.1-.9-.4-.4-.8-.8-1.4-1.3v18h-4V28.8h13v13.5c-1.1.5-2.1.9-3.1 1.2-1 .3-1.8.7-2.5 1s-1.3.7-1.7 1c-.4.4-.6.8-.6 1.3 0 .7.1 1.3.3 1.9.2.6.5 1 .9 1.3 0-.4.1-.8.2-1.1.1-.4.3-.7.5-1 .2-.3.5-.5.8-.7.3-.2.7-.2 1-.2.2 0 .5.1.8.2zm-1-17.5h-4.6v14.9l4.6-2.1V29.7zM103.5 32.6c0-.3-.1-.6-.2-.9-.1-.3-.3-.5-.5-.7s-.5-.3-.7-.5c-.3-.1-.6-.2-.9-.2-.3 0-.5.1-.8.2-.2.1-.5.3-.6.6-.2.2-.3.5-.4.8-.1.3-.2.6-.2.9v10.1h4.4c1.8 0 3 .9 3.6 2.7.4 1.1.6 2.7.6 4.9h-4.2v-4.4c0-.2-.1-.4-.2-.6-.1-.2-.3-.4-.6-.6-.2-.2-.5-.3-.7-.5-.3-.1-.5-.2-.7-.2-.2 0-.5.1-.8.2-.3.1-.5.2-.7.4-.2.2-.4.4-.5.6-.1.2-.2.5-.2.7V62c0 2.5.3 3.7.9 3.7.4 0 .8-.2 1.2-.5.3-.4.6-.8.9-1.4s.5-1.3.6-2.1c.2-.8.3-1.6.4-2.4.1-.8.2-1.7.2-2.5s.1-1.6.1-2.3h4.2c0 3.9-.9 7.1-2.7 9.4-1.7 2.2-3.9 3.4-6.6 3.4-.5 0-1 0-1.4-.1-.5-.1-.9-.2-1.3-.4s-.7-.4-1-.7c-.3-.3-.4-.6-.4-1 0-.9.1-1.5.3-1.9.3-.5.8-.8 1.7-.8.1 0 .3.1.4.4s.3.5.4.8c.1.3.3.5.4.8.1.2.3.4.5.4-.2-.9-.4-2-.7-3.1-.2-1.1-.5-2.3-.7-3.5-.2-1.2-.4-2.4-.6-3.7-.2-1.2-.4-2.4-.5-3.6-.2-1.1-.3-2.2-.4-3.2-.1-1.1-.1-2-.1-2.7 0-4.3.5-7.9 1.4-10.8 1.1-3.5 2.7-5.3 4.8-5.3 1.4 0 2.5.2 3.4.7.9.4 1.5 1.1 2 1.8.5.8.8 1.7.9 2.8s.2 2.3.2 3.6v3.9h-4.2v-9.1zM118.5 32.6c0-.3-.1-.6-.2-.9-.1-.3-.3-.5-.5-.7-.2-.2-.5-.4-.7-.5-.3-.1-.6-.2-.9-.2-.3 0-.5.1-.8.2-.2.1-.5.3-.6.6-.2.2-.3.5-.4.8-.1.3-.2.6-.2.9V62c0 2.5.3 3.7.9 3.7.4 0 .8-.2 1.2-.5.3-.4.6-.8.9-1.4s.5-1.3.6-2.1c.2-.8.3-1.6.4-2.4.1-.8.2-1.7.2-2.5s.1-1.6.1-2.3h4.2c0 3.9-.9 7.1-2.7 9.4-1.7 2.2-3.9 3.4-6.6 3.4-.5 0-1 0-1.4-.1-.5-.1-.9-.2-1.3-.4s-.7-.4-1-.7c-.3-.3-.4-.6-.4-1 0-.9.1-1.5.3-1.9.3-.5.8-.8 1.7-.8.1 0 .3.1.5.4s.3.5.5.8c.2.3.3.5.5.8.1.2.3.4.3.4-.2-.9-.4-2-.7-3.1-.2-1.1-.5-2.3-.7-3.5-.2-1.2-.4-2.4-.6-3.7-.2-1.2-.4-2.4-.5-3.6-.2-1.1-.3-2.2-.4-3.2-.1-1-.1-1.9-.1-2.6 0-4.3.5-7.9 1.4-10.8 1.1-3.5 2.7-5.3 4.8-5.3 1.5 0 2.6.2 3.5.7.9.5 1.5 1.2 2 2.1s.7 1.9.9 3.1c.1 1.2.2 2.5.2 3.9v3h-4.2v-9.2zM136.5 35v-5.3h-1.9v37.5h-4.4V29.7h-2.1v9.9h-4.2V28.8h17V35h-4.4zM150.5 29.5c.2.4.4 1 .6 1.8s.5 1.6.7 2.6c.3 1 .5 2 .8 3 .2 1 .5 2.1.7 3.1.2 1 .4 2 .6 2.9s.3 1.7.5 2.4c.1.7.2 1.2.3 1.5.2 1.5.4 2.7.4 3.7 0 1.7-.2 3.4-.6 5.2-.4 1.7-1 3.5-1.9 5.4-1.9 4.1-3.9 6.2-6.1 6.2-.3 0-.5-.2-.8-.6s-.5-1-.7-1.7c-.2-.7-.4-1.5-.6-2.5l-.6-3c-.2-1-.4-2.2-.5-3.3s-.3-2.3-.4-3.4c-.1-1.1-.2-2.2-.4-3.2-.1-1-.2-1.9-.3-2.7-.1-.8-.1-1.5-.2-2 0-.5-.1-.9-.1-1 0-.7.1-1.5.2-2.5s.4-2.1.7-3.2c.3-1.1.7-2.2 1.1-3.3.4-1.1 1-2.1 1.6-3s1.3-1.6 2-2.1 1.5-.8 2.4-.8c.2-.1.4.1.6.5zm-2.8 2.8c-.4.4-.8.8-1.2 1.4s-.7 1.2-1 2-.5 1.4-.7 2.1-.4 1.4-.5 2c-.1.6-.2 1.1-.2 1.5 0 .8.1 1.7.4 2.7.2 1 .5 2 .9 3 .4 1.1.7 2.1 1.2 3.2.4 1.1.8 2.2 1.2 3.2.4 1 .7 2.1.9 3s.4 1.8.4 2.6c0 .7-.1 1.4-.2 2.1s-.3 1.5-.6 2.3c.5 0 .9-.2 1.3-.6.4-.4.8-1 1.1-1.6s.6-1.4.9-2.2c.2-.8.5-1.6.6-2.4.2-.8.3-1.5.4-2.1.1-.7.1-1.1.1-1.5 0-.4-.1-1-.3-1.7s-.5-1.4-.8-2.3c-.3-.8-.7-1.7-1-2.6-.4-.9-.7-1.8-1-2.6-.3-.8-.6-1.6-.8-2.3-.2-.7-.3-1.3-.3-1.7 0-1.4.1-2.8.2-4.2.1-1.4.4-2.7.6-4-.7.2-1.2.3-1.6.7zM166.3 47.2c.3.1.6.3.8.6s.4.5.6.8.2.7.2 1c0 .4-.1.7-.2 1s-.3.6-.5.8c-.2.2-.5.4-.8.5-.3.1-.7.2-1 .2-.5 0-.8-.1-1.2-.2-.3-.1-.7-.3-1-.5-.3-.2-.7-.5-1.1-.9s-.8-.8-1.4-1.3v18h-4V28.8h13v13.5c-1.1.5-2.1.9-3.1 1.2s-1.8.7-2.5 1-1.3.7-1.7 1-.6.8-.6 1.3c0 .7.1 1.3.3 1.9.2.6.5 1 .9 1.3 0-.4.1-.8.2-1.1.1-.4.3-.7.5-1 .2-.3.5-.5.8-.7.3-.2.7-.2 1-.2.1 0 .5.1.8.2zm-1-17.5h-4.6v14.9l4.6-2.1V29.7zM174.6 31.3c.3.1.6.3.8.6s.4.5.5.8.2.7.2 1c0 .4-.1.7-.2 1s-.3.6-.5.8-.5.4-.8.5c-.3.1-.7.2-1 .2-.4 0-.7-.1-1-.2-.3-.1-.6-.3-.8-.5s-.4-.5-.5-.8-.2-.6-.2-1c0-.6.1-1.2.2-1.8.2-.6.4-1.1.7-1.5s.7-.8 1.2-1.1 1-.4 1.7-.4c1.5 0 2.6.4 3.3 1.3 0 0 .1.1.1.2s.2.3.3.4c.1.2.2.3.3.4l.2.2h.1v-2.6h4.2v38.4h-4.2v-20l-4.2 3.4v16.6h-4.2V51.9l7.8-6.2v-1l-.4.2c-.2.1-.5.3-.8.5-.3.2-.7.3-1.1.5-.4.1-.8.2-1.2.2-.6 0-1.1-.1-1.7-.4s-1-.6-1.3-1.1-.7-1-.9-1.5c-.2-.6-.3-1.2-.3-1.7 0-.7.1-1.2.2-1.7s.4-.8.6-1.1.6-.5 1-.7.9-.4 1.4-.6c.4-.2.8-.4 1.3-.6.5-.2 1-.5 1.5-.8s.9-.6 1.2-.9c.3-.3.5-.6.5-.8v-1.8c0-.3-.1-.5-.3-.8-.2-.3-.4-.6-.7-.8-.3-.3-.6-.5-1-.7s-.7-.3-.9-.3h-.9c-.4 0-.6.1-.9.1s-.5.2-.7.3c-.2.1-.3.3-.3.6 0 0 0 .1.1.1s.1.1.2.1.2.1.2.1h.1c.5 0 .8.1 1.1.2zm4 4.2c-.4.4-.8.8-1.2 1.1s-.8.8-1.2 1.2c-.4.4-.6.8-.8 1.4s-.3 1.1-.3 1.6c0 .4 0 .8.1 1.2s.2.8.4 1.1c.2.3.4.6.6.8.2.2.5.3.9.3 1.5 0 2.2-.6 2.2-1.8v-7h-.7zM194.2 51.6V28.9h4.4v38.4h-4.4V56.6l-1.7 1.9-.7-3.1 1.1-1.4c.1-.1.1-.2.1-.4v-.5c0-.7-.2-1.5-.5-2.5l-2.5-6.4v23h-4.5V28.9h4.5v11l1.8-2 .8 2.9-1.3 1.6c-.2.2-.2.5-.2 1v.4c0 .1.1.3.1.5l3 7.3zM208.5 48.8c-.3-.2-.6-.4-.8-.7-.2-.3-.4-.5-.5-.8-.1-.3-.2-.5-.2-.8l-.6.9c-.1.3-.3.5-.4.9s-.2.6-.2.9c0 .5.2 1 .7 1.3.4.4 1 .7 1.8 1.1s1.6.7 2.5 1 2 .7 3 1.1v13.5h-13V28.9h4v18c.5-.5 1-.9 1.4-1.3s.7-.7 1.1-.9c.3-.2.7-.4 1-.5.3-.1.7-.2 1.2-.2.4 0 .7.1 1 .2.3.1.6.3.8.5.2.2.4.5.5.8.1.3.2.7.2 1 0 .4-.1.7-.2 1s-.3.6-.5.8-.5.4-.8.6-.6.2-1 .2-.7-.1-1-.3zm.9 17.6V53.6l-4.6-2.1v14.9h4.6z"/><path class="or0" d="M68.9 51.4l1.1-.8c-9.3-11.4-18.7-11-29.9-9.1-8.2 1.4-11.4-4.9-9.1-7.7 1-1.2 2.7-1.3 3.5-.4-1.7.1-2.3 2.9-.8 3.8 2 1.3 4.1-1.1 4-3.3-.1-1.6-1.9-5-6.5-3.6-6.7 2.1-5 13.3 6.5 13.5 9.2.2 17.6-6.4 31.2 7.6zM8.3 56.6c.8-1.4 1.1-3.2 6.4-6.1 1.8-1 3.3-2 4.1-3.3 1.3-2.1 1.3-5.6.2-6.9.9-.2 7.5 4.1 1.8 8.9-4.5 3.8-8.5 2-12.5 7.4zM3.1 66.6c-1.7-.3-2.3-4.1.3-5.1 3.2-1.2 6.4 2.5 7.2 4.6-1-.6-4.2-2.6-6.3-1.9-.8.3-1.3 1-1.2 2.4zM11.6 64.9c-4.8-4.2-3.1-8.8.3-9.8 3.6-1 6.6 3.3 3.8 5.7 0-2.1-2-2.2-3.3-1.8-1.5.5-1.9 2.7-.8 5.9z"/><path class="or0" d="M11.8 65c2.1 1 5.5 2.3 10.2-5.2 2.4-3.7 5.9-7.9 9.8-10.7 3.9-2.9 7.5-3.7 10.4-4.1C25.8 54.1 29 60.8 22.5 65.4c-3.9 2.8-8.4 2.5-10.7-.4z"/><path class="or0" d="M62.1 48.1c-1-.3-4.5-3.1-11.1-.9-3.4 1.1-5.2 3.7-5.5 6.1-.2 2.4.5 4.7 2.1 5.7 2.9 1.9 7.1 1.3 7.8-2.1.7-3.4-3.1-4.7-3.8-4.9 1-1.6 4.8-1.4 6.3-.3 1.5 1.1 1.3 3 1.4 4.8.2.7 2.6.7 3 .5.1 1.5-.6 3.3-3.1 3.2 0 0-.2 1.5-.1 2.5-.5.7-2.3.8-2.9.9-.1.3 0 1.3.4 2.5-1.1.7-5.3.8-6.7-.1-.3.1-.3 1.1-.5 2-5.4.3-6.4-2-6.3-4-.3.1-6.1 2.7-5.8-7.7.5-16.2 22.9-13.1 24.8-8.2zM231.1 51.4c13.6-14 22-7.4 31.2-7.5 11.5-.2 13.2-11.4 6.5-13.5-4.6-1.4-6.5 2-6.5 3.6-.1 2.2 2 4.6 4 3.3 1.5-.9.9-3.7-.8-3.8.8-.9 2.5-.8 3.5.4 2.3 2.8-.9 9.1-9.1 7.7-11.1-2-20.5-2.3-29.9 9.1l1.1.7zM291.7 56.6c-4-5.4-8-3.6-12.4-7.4-5.7-4.8.9-9.1 1.8-8.9-1.2 1.3-1.1 4.8.2 6.9.8 1.3 2.3 2.3 4.1 3.3 5.2 2.9 5.5 4.7 6.3 6.1zM296.9 66.6c.1-1.4-.4-2.2-1.3-2.4-2.1-.7-5.3 1.3-6.3 1.9.8-2.1 4-5.9 7.2-4.6 2.7 1 2.1 4.8.4 5.1zM288.4 64.9c1.1-3.2.7-5.4-.8-5.8-1.3-.4-3.3-.3-3.3 1.8-2.7-2.4.3-6.8 3.8-5.7 3.4.9 5.1 5.6.3 9.7z"/><path class="or0" d="M288.2 65c-2.3 2.9-6.7 3.1-10.7.3-6.5-4.6-3.3-11.3-19.8-20.3 3 .4 6.5 1.3 10.4 4.1 3.9 2.8 7.5 7 9.8 10.7 4.8 7.6 8.1 6.3 10.3 5.2z"/><path class="or0" d="M237.9 48.1c1.9-4.9 24.3-8 24.8 8.2.3 10.4-5.5 7.8-5.8 7.7 0 2.1-.9 4.3-6.4 4-.2-.9-.3-1.9-.5-2-1.4.9-5.6.8-6.7.1.5-1.2.5-2.2.4-2.5-.6 0-2.4-.1-2.9-.9.1-1-.1-2.5-.1-2.5-2.5.1-3.2-1.7-3.1-3.2.4.2 2.8.1 3-.5.1-1.8-.1-3.7 1.4-4.8 1.5-1.1 5.3-1.3 6.3.3-.8.2-4.6 1.4-3.8 4.9s4.9 4 7.8 2.1c1.6-1 2.3-3.3 2.1-5.7-.2-2.5-2.1-5.1-5.5-6.1-6.5-2.1-10 .6-11 .9z"/><path class="or1" d="M216 29h4v38h-4z"/></svg>