<svg id="Restaurants" xmlns="http://www.w3.org/2000/svg" viewBox="0 0 323.7 57.5"><style>.restaurants0{fill:#671700}.restaurants1{fill:#c9a468}</style><path class="restaurants0" d="M136.9 14.2h-5.1v-.6c.5-.2 1.1-.4 1.6-.5V1.3c-.6-.1-1.2-.3-1.6-.5V.2h5.1v.6c-.2.1-.5.2-.7.3s-.5.1-.8.2v5.2h6.3V1.3c-.3-.1-.5-.1-.8-.2s-.5-.2-.7-.3V.2h5.1v.6c-.2.1-.5.2-.8.3s-.6.1-.9.2v11.9c.3.1.6.1.9.2.3.1.5.2.8.3v.6h-5.1v-.6c.5-.2 1-.4 1.5-.5V7.6h-6.3v5.6c.3.1.5.1.8.2s.5.2.7.3v.5zM150.3 14.2h-4.4v-.6c.5-.2 1-.4 1.4-.5l5-13.1h.6l5.1 13.2c.3.1.5.1.8.2.3.1.5.2.7.3v.6h-5.2v-.6c.3-.1.5-.2.8-.3s.6-.1.8-.2l-1.4-3.7h-4.8l-1.3 3.7c.6.1 1.1.2 1.7.5v.5h.2zm0-5.7h4l-1.6-4.3-.4-1.7-.5 1.8-1.5 4.2zM166.6.2h4.5v.6l-.6.3c-.2.1-.4.2-.7.2v11.9h4.4V1.3c-.5-.1-.9-.3-1.3-.5V.2h4.6v.6l-.6.3c-.2.1-.5.2-.8.2v11.9c.5.1 1 .3 1.4.5v.6h-17.4v-.6c.5-.2 1-.4 1.4-.5V1.3c-.3-.1-.5-.1-.7-.2s-.5-.2-.7-.3V.2h4.7v.6c-.3.2-.8.3-1.3.5v11.9h4.4V1.3c-.3-.1-.5-.2-.7-.3l-.6-.3V.2zM183.7 14.2h-5v-.6c.5-.2 1.1-.4 1.6-.5V1.3c-.3-.1-.5-.1-.8-.2s-.6-.2-.8-.3V.2h5.1v.6c-.2.1-.4.2-.7.3s-.5.2-.8.2V10l-.2 1.5 1-1.6 5.9-8.1v-.5c-.3-.1-.6-.1-.9-.2-.3-.1-.5-.2-.8-.3V.2h5.1v.6c-.2.1-.5.2-.8.3s-.6.2-.9.2v11.9c.6.1 1.2.3 1.6.5v.6h-5.1v-.6c.2-.1.4-.2.7-.3s.5-.2.8-.2V4.5l.2-1.5-.9 1.5-5.9 8.2v.4c.3.1.6.1.9.2s.5.2.8.3v.6h-.1zM67.3 39.7l1.1-.8c-9.3-11.4-18.7-11-29.9-9.1-8.2 1.4-11.4-4.9-9.1-7.7 1-1.2 2.7-1.3 3.5-.4-1.7.1-2.3 2.9-.8 3.8 2 1.3 4.1-1.1 4-3.3-.1-1.6-1.9-5-6.5-3.6-6.7 2.1-5 13.3 6.5 13.5 9.2.2 17.6-6.4 31.2 7.6zM6.7 44.9c.8-1.4 1.1-3.2 6.4-6.1 1.8-1 3.3-2 4.1-3.3 1.3-2.1 1.3-5.6.2-6.9.9-.2 7.5 4.1 1.8 8.9-4.5 3.8-8.5 2-12.5 7.4zM1.5 54.9c-1.7-.3-2.3-4.1.3-5.1C5 48.6 8.2 52.3 9 54.4c-1-.6-4.2-2.6-6.3-1.9-.8.3-1.3 1-1.2 2.4zM10 53.2c-4.8-4.2-3.1-8.8.3-9.8 3.6-1 6.6 3.3 3.8 5.7 0-2.1-2-2.2-3.3-1.8-1.5.5-1.9 2.7-.8 5.9z"/><path class="restaurants0" d="M10.2 53.3c2.1 1 5.5 2.3 10.2-5.2 2.4-3.7 5.9-7.9 9.8-10.7 3.9-2.9 7.5-3.7 10.4-4.1-16.4 9.1-13.2 15.8-19.7 20.4-3.9 2.8-8.4 2.5-10.7-.4z"/><path class="restaurants0" d="M60.5 36.4c-1-.3-4.5-3.1-11.1-.9-3.4 1.1-5.2 3.7-5.5 6.1-.2 2.4.5 4.7 2.1 5.7 2.9 1.9 7.1 1.3 7.8-2.1.7-3.4-3.1-4.7-3.8-4.9 1-1.6 4.8-1.4 6.3-.3 1.5 1.1 1.3 3 1.4 4.8.2.7 2.6.7 3 .5.1 1.5-.6 3.3-3.1 3.2 0 0-.2 1.5-.1 2.5-.5.7-2.3.8-2.9.9-.1.3 0 1.3.4 2.5-1.1.7-5.3.8-6.7-.1-.3.1-.3 1.1-.5 2-5.4.3-6.4-2-6.3-4-.3.1-6.1 2.7-5.8-7.7.5-16.2 22.9-13.1 24.8-8.2zM256.4 39.7c13.6-14 22-7.4 31.2-7.5 11.5-.2 13.2-11.4 6.5-13.5-4.6-1.4-6.5 2-6.5 3.6-.1 2.2 2 4.6 4 3.3 1.5-.9.9-3.7-.8-3.8.8-.9 2.5-.8 3.5.4 2.3 2.8-.9 9.1-9.1 7.7-11.1-2-20.5-2.3-29.9 9.1l1.1.7zM317 44.9c-4-5.4-8-3.6-12.4-7.4-5.7-4.8.9-9.1 1.8-8.9-1.2 1.3-1.1 4.8.2 6.9.8 1.3 2.3 2.3 4.1 3.3 5.2 2.9 5.5 4.7 6.3 6.1zM322.2 54.9c.1-1.4-.4-2.2-1.3-2.4-2.1-.7-5.3 1.3-6.3 1.9.8-2.1 4-5.9 7.2-4.6 2.7 1 2.1 4.8.4 5.1zM313.7 53.2c1.1-3.2.7-5.4-.8-5.8-1.3-.4-3.3-.3-3.3 1.8-2.7-2.4.3-6.8 3.8-5.7 3.4.9 5.1 5.6.3 9.7z"/><path class="restaurants0" d="M313.5 53.3c-2.3 2.9-6.7 3.1-10.7.3-6.5-4.6-3.3-11.3-19.8-20.3 3 .4 6.5 1.3 10.4 4.1s7.5 7 9.8 10.7c4.8 7.6 8.1 6.3 10.3 5.2z"/><path class="restaurants0" d="M263.2 36.4c1.9-4.9 24.3-8 24.8 8.2.3 10.4-5.5 7.8-5.8 7.7 0 2.1-.9 4.3-6.4 4-.2-.9-.3-1.9-.5-2-1.4.9-5.6.8-6.7.1.5-1.2.5-2.2.4-2.5-.6 0-2.4-.1-2.9-.9.1-1-.1-2.5-.1-2.5-2.5.1-3.2-1.7-3.1-3.2.4.2 2.8.1 3-.5.1-1.8-.1-3.7 1.4-4.8s5.3-1.3 6.3.3c-.8.2-4.6 1.4-3.8 4.9.8 3.5 4.9 4 7.8 2.1 1.6-1 2.3-3.3 2.1-5.7-.2-2.5-2.1-5.1-5.5-6.1-6.5-2.1-10 .6-11 .9z"/><g><path class="restaurants1" d="M78.1 54.7v-.5H80V34.8c0-.7-.1-1.1-.4-1.4-.2-.3-.8-.4-1.6-.4v-.6h3.6v1.3c1.1-.5 2.2-1 3.2-1.3 1.1-.3 2.1-.5 3.1-.5h.7c.3 0 .5 0 .7.1 2.2.3 4.1 1.2 5.6 2.8 1.6 1.5 2.4 3.3 2.4 5.4v.8c0 2.1-.6 4-1.8 5.7-1.2 1.6-2.8 2.8-4.9 3.4-.5.1-1 .3-1.7.4-.7.1-1.3.2-1.7.2-.9 0-1.9-.1-2.8-.4-.9-.3-1.8-.7-2.7-1.2V51c0 1.1.1 2 .4 2.5.1.2.4.4.7.5.3.1.7.2 1.1.2h.9v.5h-6.7zm17.7-13.6c0-2.4-.8-4.4-2.4-6-1.6-1.6-3.5-2.4-5.8-2.4-1 0-2.1.2-3 .6-1 .4-1.9 1-2.8 1.8v12.1c.7.9 1.6 1.5 2.6 2 1.1.5 2.1.7 3.2.7 2.2 0 4-.7 5.6-2.2 1.7-1.6 2.6-3.8 2.6-6.6zM102.4 39.1h3v-3.5h.4v7.7h-.4v-.8c0-1.2-.1-1.9-.4-2.2-.4-.4-1.2-.6-2.6-.6v14.4l2.6.1c1.9 0 3.1-.3 3.5-.9.4-.6.6-2.2.6-4.8h.5v7.8h-.5v-1.6H98.8v-.5h1.9V34.6c0-.6-.1-1.1-.4-1.3-.2-.2-.8-.4-1.6-.4v-.5H109v-1.6h.5V39h-.5c0-2.9-.2-4.6-.6-5.2-.4-.6-1.6-.9-3.7-.9h-2.4v6.2zM129.8 52.3c-1 1-2.1 1.7-3.3 2.1-1.2.5-2.5.7-3.8.7-2.6 0-4.9-.8-7-2.4-2.2-1.7-3.5-3.9-4.1-6.6-.1-.4-.2-.9-.2-1.3-.1-.5-.1-.9-.1-1.3 0-3.3 1.1-6 3.4-8.2 2.3-2.1 5.1-3.2 8.3-3.2 1.6 0 3.2.3 4.9.9v-2.2h.5v8.6h-.5v-2c0-.6 0-1.2-.1-1.6-.1-.5-.3-.9-.5-1.3-.4-.5-1-.9-1.7-1.2-.8-.3-1.5-.4-2.3-.4h-.4c-2.5 0-4.8.9-6.8 2.8s-3 4-3 6.5v1c0 3.2 1.1 5.9 3.2 8.2 2.1 2.1 4.4 3.2 7.1 3.2 1.1 0 2.2-.2 3.3-.6 1-.4 2-1 2.8-1.9l.3.2zM136.5 32.9h-1.6c-.7 0-1.3.1-1.8.2s-.8.3-1 .7c-.2.3-.4.8-.5 1.4-.1.6-.2 1.2-.2 1.8l.1 2.7h-.5v-8.9h.5v1.6h11.7v-1.6h.5v8.9h-.5v-3.3c0-1.5-.3-2.4-.9-2.8-.6-.4-1.9-.6-4.1-.6v18.8c0 1.1.2 1.8.5 2.1.4.3 1.2.4 2.6.4v.6h-7.7v-.6h2.8V32.9zM168.8 48.1c-1 2.1-2.5 3.8-4.7 5.1-2.2 1.3-4.5 1.9-6.9 1.9-1.6 0-3.1-.3-4.5-.8-2.2-.9-3.9-2.3-5.1-4.2-1.2-2-1.9-4.1-1.9-6.4 0-1.6.3-3.1.9-4.6.9-2.2 2.4-3.9 4.5-5.2 2.1-1.3 4.4-2 6.8-2 1.8 0 3.5.4 5.1 1.1 2.1.9 3.7 2.3 4.9 4.2 1.2 1.9 1.8 3.9 1.8 6.1 0 .8-.1 1.6-.2 2.4-.1.8-.3 1.6-.7 2.4zm-.7-4.8c0-2.9-1-5.4-3.1-7.5-2.1-2.1-4.6-3.2-7.5-3.2-3 0-5.4 1.1-7.3 3.2-1.9 2.1-2.9 4.7-2.9 7.7v.4c0 3.3 1.1 5.9 3.2 7.8 2 1.8 4.3 2.6 7.1 2.6s5.1-.9 7.1-2.8c2.2-2 3.3-4.7 3.3-8v-.2zM171.2 54.7v-.5h1.9V34.8c0-.7-.1-1.1-.4-1.4-.2-.3-.8-.4-1.6-.4v-.6h3.6v1.3c1.1-.5 2.2-1 3.2-1.3 1.1-.3 2.1-.5 3.1-.5h.7c.3 0 .5 0 .7.1 2.2.3 4.1 1.2 5.6 2.8 1.6 1.5 2.4 3.3 2.4 5.4v.8c0 2.1-.6 4-1.8 5.7-1.2 1.6-2.8 2.8-4.9 3.4-.5.1-1 .3-1.7.4-.7.1-1.3.2-1.7.2-.9 0-1.9-.1-2.8-.4-.9-.3-1.8-.7-2.7-1.2V51c0 1.1.1 2 .4 2.5.1.2.4.4.7.5.3.1.7.2 1.1.2h.9v.5h-6.7zm17.7-13.6c0-2.4-.8-4.4-2.4-6-1.6-1.6-3.5-2.4-5.8-2.4-1 0-2.1.2-3 .6-1 .4-1.9 1-2.8 1.8v12.1c.7.9 1.6 1.5 2.6 2 1.1.5 2.1.7 3.2.7 2.2 0 4-.7 5.6-2.2 1.7-1.6 2.6-3.8 2.6-6.6zM191.2 54.7v-.6h1.2l6.2-23.2 6.4 20.9c.2.7.4 1.2.4 1.3.3.7.9 1 1.6 1v.6h-5v-.6h2L199.9 40h-3.1l-2.7 11.1c-.1.2-.1.4-.2.7 0 .3-.1.5-.1.7 0 .6.2 1 .7 1.2.5.2 1.3.3 2.4.3v.6h-5.7zm5.9-15.3h2.7l-1.5-4.9-1.2 4.9zM220.7 50.9V52c0 .7.1 1.2.4 1.6s.8.5 1.6.5v.6h-5.5v-.6h2V39.7h-7.3v11.5c0 1.2.1 1.9.4 2.3.3.4 1 .5 2.1.5v.6h-6.1V54h1.9V34.7c0-.7-.1-1.2-.4-1.4s-.8-.3-1.6-.3v-.6h5.6v.6h-2v6.2h7.3v-4c0-.9-.1-1.5-.2-1.7-.2-.3-.8-.5-1.7-.5v-.6h5.5v.6h-1.9v17.9zM227.7 32.9v6.2h1.2c2.4 0 4.2.1 5.5.4 2 .5 3.6 1.4 4.6 2.8 1.1 1.4 1.6 3 1.6 4.9 0 1.1-.2 2.2-.7 3.3-.7 1.5-1.7 2.6-3.2 3.4-1.3.7-2.8 1-4.5 1-1.5 0-3.1-.3-4.6-.8v.6h-3.4v-.6h1.9V34.7c0-.7-.1-1.1-.4-1.4-.2-.3-.8-.4-1.6-.4v-.5h5.6v.6l-2-.1zm8.7 8.4c-.7-.5-1.6-.9-2.7-1.1-1.1-.2-2.2-.3-3.4-.3h-2.6v10.3c0 1.3.2 2.3.6 2.9.3.5.8.8 1.4 1 .6.2 1 .3 1.2.3.3.1.6.1.9.1 1.2 0 2.4-.3 3.5-.9 1.1-.6 1.9-1.4 2.5-2.5.7-1.2 1-2.6 1-4.2 0-1.2-.2-2.2-.6-3.2-.3-1-1-1.8-1.8-2.4zm6.1-5.2v-1.2c0-.7-.1-1.2-.3-1.5-.3-.3-.8-.5-1.7-.5v-.5h5.8v.5h-2.1v19c0 .8.1 1.3.3 1.6.3.4.9.6 1.8.6v.6h-5.8v-.6h2v-18z"/></g></svg>