<svg id="Слой_1" xmlns="http://www.w3.org/2000/svg" viewBox="0 0 450 450"><style>.st0{fill:#fff}.st1{fill:#671700}</style><path class="st0" d="M0 0v450h450V0H0zm225.5 390C121.9 390 38 306.1 38 202.5S121.9 15 225.5 15 413 98.9 413 202.5 329.1 390 225.5 390z"/><path class="st1" d="M225.5 4c26.8 0 52.8 5.2 77.3 15.6 23.6 10 44.9 24.3 63.1 42.5 18.2 18.2 32.5 39.5 42.5 63.1 10.3 24.5 15.6 50.5 15.6 77.3s-5.2 52.8-15.6 77.3c-10 23.6-24.3 44.9-42.5 63.1-18.2 18.2-39.5 32.5-63.1 42.5-24.5 10.3-50.5 15.6-77.3 15.6s-52.8-5.2-77.3-15.6c-23.6-10-44.9-24.3-63.1-42.5-18.2-18.2-32.5-39.5-42.5-63.1C32.2 255.3 27 229.3 27 202.5s5.2-52.8 15.6-77.3c10-23.6 24.3-44.9 42.5-63.1s39.5-32.5 63.1-42.5C172.7 9.2 198.7 4 225.5 4m0-4C113.7 0 23 90.7 23 202.5S113.7 405 225.5 405 428 314.3 428 202.5 337.3 0 225.5 0z"/><path class="st0" d="M139 381c21 6.5 52 13.5 90 13 34.1-.5 62.2-6.9 82-13v69H139v-69z"/></svg>