<svg id="Capa_1" xmlns="http://www.w3.org/2000/svg" viewBox="0 0 512 512"><style>.vk{fill:#671700}</style><path class="vk" d="M256 0C114.6 0 0 114.6 0 256s114.6 256 256 256 256-114.6 256-256S397.4 0 256 0zm129.9 283.7c11.9 11.7 24.6 22.6 35.3 35.5 4.7 5.7 9.2 11.6 12.6 18.2 4.9 9.4.5 19.8-8 20.3h-52.4c-13.5 1.1-24.3-4.3-33.4-13.6-7.3-7.4-14-15.3-21-22.9-2.9-3.1-5.9-6.1-9.4-8.4-7.1-4.7-13.4-3.2-17.5 4.2-4.2 7.6-5.1 16-5.5 24.5-.6 12.4-4.3 15.6-16.7 16.2-26.5 1.2-51.7-2.8-75.1-16.1-20.6-11.8-36.6-28.4-50.5-47.3-27.1-36.7-47.8-77-66.5-118.5-4.2-9.3-1.1-14.3 9.2-14.5 17.1-.3 34.2-.3 51.4 0 7 .1 11.6 4.1 14.3 10.7 9.3 22.8 20.6 44.4 34.8 64.5 3.8 5.3 7.7 10.7 13.2 14.5 6.1 4.2 10.7 2.8 13.6-4 1.8-4.3 2.6-8.9 3-13.5 1.4-15.8 1.5-31.6-.8-47.4-1.5-9.9-7-16.2-16.8-18.1-5-.9-4.3-2.8-1.8-5.7 4.2-4.9 8.2-8 16.1-8h59.3c9.3 1.8 11.4 6 12.7 15.4l.1 65.9c-.1 3.6 1.8 14.4 8.4 16.8 5.2 1.7 8.7-2.5 11.8-5.8 14.2-15.1 24.3-32.9 33.4-51.3 4-8.1 7.5-16.5 10.8-25 2.5-6.2 6.4-9.3 13.4-9.2l57.1.1c1.7 0 3.4 0 5.1.3 9.6 1.6 12.3 5.8 9.3 15.2-4.7 14.7-13.8 27-22.7 39.3-9.5 13.2-19.7 25.9-29.1 39.1-9.2 12-8.5 18.1 2.3 28.6z"/></svg>