<svg id="logo" xmlns="http://www.w3.org/2000/svg" viewBox="0 0 163.6 65.3"><style>.st20,.st21{fill:#fff}.st22{fill:#e9dfd1}</style><path class="st20" d="M120.3.2c5.9 5.7 12.5 11.7 16.5 13.7 2.5 1.3 4.6 1.4 5.9.5 1.2-.8 2.5-2.2 3.9-3 2.9-1.7 4.2-1.1 5.2-.8-1 .5-2.4.5-3.7 2.4-2.4 3.4-5.7 7-10.3 4.8-4-1.9-10.2-7.9-19.9-17.6M154.8 37.5c-.3.2-.7.3-1 .3 0 .2-.1.4-.2.6-.5.8-1.4 1.2-2 .9-.6-.4-.7-1.3-.3-2.2.3-.6.9-1 1.4-1 .2-.3.5-.7.8-.9.8-.5 1.8-.4 2.2.2.4.8 0 1.7-.9 2.1z"/><path class="st20" d="M140.3 20.6c9.3 4.1 13.8-1.8 16.2-5.7 1.7-2.8 4.9-1.8 5.6-.4.5 1 .1 2.3-1 2.7-.2-.2-.1-1-.8-1.1-1.8-.1-1.4 1.5-.7 2 .8.5 1.9.5 2.7-.3 4.3-3.9-2.9-10.7-9.4-6.1-2.5 1.7-3.1 4.9-5.7 6.8-1.4 1.1-3.5 1.7-6.9 2.1zM123.2 0c2.2 4.1 7.2 7.6 11.9 7.6 1.8 0 3.5-.1 4.3.7.5.5.6 2.2-.8 2.4 1.1 2.1 6.3.2 4.2-4.5-.4-.8-1.2-1.3-1.9-1.6-1.9-1-4.6-.2-9.1-1.2-2.3-.4-5.3-1.3-8.6-3.4zM141.9 25.9l-.2-.2s3.7 8.4-2.6 10.3c3.6.8 6.2-1.2 7.5-2.8.4.2.5 1 .5 1.7-.6.2-1.1.8-1.1 1.5 0 .9.7 1.6 1.6 1.6.9 0 1.6-.7 1.6-1.6 0-.7-.4-1.2-1-1.5 0-1.1-.3-2.6-.5-3.2.4.2 2.2.6 3.5.5.2.6.8 1 1.5 1 .9 0 1.6-.7 1.5-1.6 0-.9-.7-1.6-1.6-1.6-.7 0-1.3.5-1.5 1.1-.7 0-1.4-.1-1.7-.5 1.5-1.3 3.6-4 2.7-7.5-1.7 6.1-9.4 3.1-10.2 2.8zM113.8.2c11.1 10.6 17.7 17.3 20 21.5 2.3 4.5-1.3 7.9-4.6 10.3-1.9 1.4-1.9 2.8-2.4 3.7-.3-1-.9-2.3.7-5.2.8-1.4 2.2-2.7 3-4s.7-3.4-.6-5.9c-2.7-4.9-11.5-13.8-18.4-20.4"/><path class="st20" d="M136.4 24.2c4.3 9.3-1.6 13.8-5.5 16.3-2.7 1.8-1.8 5-.3 5.6 1 .4 2.3.1 2.7-1-.2-.2-1-.1-1.1-.8-.1-1.8 1.5-1.4 2-.7.5.8.5 1.9-.2 2.7-3.8 4.3-10.7-2.7-6.3-9.3 1.7-2.5 4.9-3.1 6.7-5.8 1.1-1.5 1.6-3.6 2-7zM115.6 7.4c2.2 3.2 3.1 6.3 3.6 8.6 1 4.5.3 7.3 1.3 9.1.3.6.8 1.5 1.6 1.8 4.7 2 6.6-3.3 4.4-4.3-.2 1.5-1.8 1.4-2.4.9-.9-.8-.8-2.5-.8-4.3 0-4.7-3.6-9.6-7.7-11.8z"/><path class="st20" d="M107.9.2c6.5 8 5.9 16.2 4.3 25.6-1.5 8.4 5 11.7 7.9 9.3 1.3-1 1.4-2.8.4-3.6-.1 1.7-2.9 2.3-3.9.8-1.3-2 1.1-4.2 3.4-4.1 1.6.1 5.1 2 3.7 6.7-2.2 6.9-13.6 5.2-13.8-6.6-.3-8.6 5.2-16.4-4.2-28.1M96.6 58.4c1.4-.8 3.3-1.1 6.3-6.5 1-1.9 2-3.4 3.3-4.2 2.2-1.3 5.7-1.4 7.1-.2.2-.9-4.2-7.6-9.1-1.8-3.9 4.6-2.1 8.7-7.6 12.7zM86.3 63.8c.3 1.7 4.2 2.4 5.2-.3 1.3-3.2-2.6-6.6-4.8-7.3.6 1 2.6 4.3 2 6.4-.2.8-.9 1.3-2.4 1.2zM88.1 55.1c3.3 1.2 5.6.6 6-.9.4-1.3.3-3.3-1.9-3.4 2.5-2.8 6.9.3 5.9 4-1 3.4-5.7 5.2-10 .3zM87.9 54.8c-1-2.2-2.4-5.6 5.3-10.5 3.8-2.4 8.1-6.1 11-10.1s3.8-7.6 4.2-10.7c-9.3 16.9-16.2 13.6-20.8 20.3-2.9 4.1-2.6 8.7.3 11z"/><path class="st20" d="M105.3 3.3c.3 1 3.1 4.7.9 11.4-1.1 3.4-3.8 5.4-6.3 5.6-2.4.2-4.8-.5-5.8-2.1-1.9-3-1.4-7.3 2.1-8s4.8 3.1 5 4c1.6-1 1.4-4.9.3-6.4-1.1-1.5-3.1-1.4-4.9-1.4-.7-.2-.7-2.7-.6-3-1.6-.1-3.4.6-3.3 3.2 0 0-1.5.2-2.5.1-.7.5-.8 2.3-.9 3-.3.1-1.3 0-2.5-.5-.6 1.1-.8 5.4.1 6.9-.1.3-1.1.4-2 .6-.4 5.6 2 6.6 4.1 6.6-.1.3-2.7 6.3 7.9 5.9 16.6-.9 13.5-23.9 8.4-25.9zM52.1.2C45.3 7 36.3 16.3 33.7 21.4c-1.3 2.5-1.4 4.6-.5 5.9.8 1.2 2.2 2.5 3 3.9 1.7 2.9 1.1 4.2.8 5.2-.5-1-.5-2.4-2.4-3.7-3.4-2.4-7-5.7-4.8-10.3 2.1-4.3 8.8-11.2 20-22.2M10 39.4c-.2-.3-.3-.7-.3-1-.2 0-.4-.1-.6-.2-.8-.5-1.3-1.4-.9-2 .4-.6 1.3-.7 2.2-.3.6.3 1 .9 1 1.4.3.2.7.5.9.8.5.8.4 1.8-.2 2.2-.7.4-1.6 0-2.1-.9z"/><path class="st20" d="M27 24.9c-4.1 9.3 1.8 13.8 5.7 16.3 2.8 1.7 1.8 4.9.4 5.6-.9.5-2.3.1-2.7-1 .2-.2 1-.1 1.1-.8.1-1.8-1.5-1.4-2-.7-.5.8-.5 1.9.3 2.7 3.8 4.3 10.7-2.9 6.1-9.4-1.8-2.5-4.9-3.1-6.8-5.7-1.1-1.5-1.7-3.6-2.1-7zM47.6 7.8C43.5 10 40 15 40 19.7c0 1.8.1 3.5-.7 4.3-.6.5-2.2.6-2.4-.8-2.1 1.1-.2 6.3 4.5 4.2.8-.4 1.3-1.2 1.6-1.9 1-1.9.2-4.6 1.2-9.1.4-2.3 1.3-5.3 3.4-8.6z"/><path class="st20" d="M57.8.2c-9.7 12-3.9 19.8-4 28.4-.1 11.8-11.5 13.7-13.7 6.8-1.6-4.7 2-6.7 3.6-6.8 2.3-.1 4.7 2 3.4 4-1 1.6-3.8 1-3.9-.7-.9.8-.8 2.6.5 3.6 2.9 2.3 9.3-1.1 7.7-9.4-1.8-9.5-2.5-17.8 4.1-25.9M67.3 58.5c-5.6-4-3.8-8.1-7.7-12.6-5-5.8-9.4 1.1-9.1 1.9 1.3-1.2 4.9-1.2 7.1.1 1.3.8 2.3 2.3 3.4 4.2 3 5.3 4.9 5.7 6.3 6.4zM77.7 63.8c-.3 1.7-4.1 2.5-5.3-.3-1.3-3.2 2.5-6.6 4.7-7.4-.6 1-2.6 4.3-1.9 6.5.3.8 1 1.3 2.5 1.2z"/><path class="st20" d="M75.8 55.1c-4.2 5-9 3.3-10-.1-1.1-3.7 3.3-6.8 5.8-4-2.2.1-2.3 2.1-1.8 3.4.4 1.4 2.7 1.9 6 .7zM75.9 54.8c2.9-2.4 3.1-7 .2-11-4.8-6.6-11.6-3.2-21.1-20 .4 3 1.4 6.6 4.4 10.6s7.3 7.6 11.1 9.9c7.7 4.9 6.4 8.3 5.4 10.5z"/><path class="st20" d="M57.8 3.5c-5 2-7.8 25.1 8.8 25.4 10.6.2 7.9-5.7 7.8-6 2.1 0 4.4-1 4-6.6-.9-.2-1.9-.3-2-.5.9-1.5.7-5.7 0-6.9-1.2.5-2.2.6-2.5.5-.1-.6-.2-2.5-.9-2.9-1 .2-2.5 0-2.5 0 .1-2.6-1.8-3.2-3.3-3.1.2.4.2 2.8-.5 3.1-1.8.1-3.8 0-4.9 1.5s-1.2 5.4.4 6.4c.2-.8 1.4-4.7 5-4 3.5.7 4.1 5 2.3 7.9-1 1.6-3.4 2.4-5.8 2.2-2.6-.2-5.2-2.1-6.4-5.5-2.6-6.8.2-10.4.5-11.5zM21.7 26.5l.2-.2s-8.4 3.7-10.3-2.6c-.8 3.6 1.2 6.2 2.8 7.5-.2.4-1 .5-1.7.5-.2-.6-.8-1.1-1.5-1.1-.9 0-1.6.7-1.6 1.6s.7 1.6 1.6 1.6c.7 0 1.2-.4 1.5-1 1.1 0 2.6-.3 3.2-.5-.2.4-.6 2.2-.5 3.5-.6.2-1 .8-1 1.5 0 .9.7 1.6 1.6 1.5.9 0 1.6-.7 1.6-1.6 0-.7-.5-1.3-1.1-1.5 0-.7.1-1.4.5-1.7 1.3 1.5 4 3.6 7.6 2.7-6.2-1.7-3.2-9.4-2.9-10.2zM45.6.2c-9.6 9.9-15.7 16-19.7 18.1-4.5 2.3-7.9-1.3-10.3-4.6-1.4-1.9-2.8-1.9-3.7-2.4 1-.3 2.3-.9 5.2.7 1.4.8 2.7 2.2 4 3s3.4.7 5.9-.6C30.9 12.2 37.5 6.1 43.3.2"/><path class="st20" d="M23.4 21c-9.3 4.3-13.8-1.6-16.3-5.5-1.8-2.7-5-1.8-5.6-.3-.4 1-.1 2.3 1 2.7.2-.2.1-1 .8-1.1 1.8-.1 1.5 1.5.7 2s-1.9.5-2.7-.2c-4.3-3.8 2.8-10.7 9.3-6.3 2.5 1.7 3.1 4.9 5.8 6.7 1.5 1.1 3.6 1.6 7 2zM40.2.2c-3.2 2.2-6.3 3.1-8.6 3.6-4.5 1-7.3.3-9.1 1.3-.6.3-1.5.8-1.8 1.7-2 4.7 3.3 6.6 4.3 4.4-1.5-.2-1.4-1.8-.9-2.4.8-.9 2.5-.8 4.3-.8C33.1 7.9 38 4.3 40.2.2z"/><path class="st22" d="M-31.4 7.2l.3 1.6.7 1.5V7.2zM195.1 7.2l-.4 1.6-.6 1.5V7.2z"/></svg>